<svg width="16" height="16" viewBox="0 0 16 16" fill="none" xmlns="http://www.w3.org/2000/svg">
<path d="M10.6257 9.77578C10.3048 10.1605 9.90331 10.4701 9.44958 10.6825C8.99585 10.8949 8.50099 11.005 8 11.005C7.49902 11.005 7.00415 10.8949 6.55042 10.6825C6.0967 10.4701 5.6952 10.1605 5.37433 9.77578C5.31145 9.70019 5.2343 9.63773 5.14728 9.59197C5.06026 9.5462 4.96507 9.51802 4.86716 9.50904C4.76925 9.50005 4.67053 9.51044 4.57663 9.53961C4.48274 9.56878 4.3955 9.61616 4.31992 9.67904C4.24433 9.74193 4.18187 9.81908 4.13611 9.9061C4.09034 9.99312 4.06216 10.0883 4.05318 10.1862C4.03503 10.384 4.09619 10.5808 4.22318 10.7335C4.68449 11.2875 5.26202 11.7333 5.91483 12.0392C6.56764 12.3451 7.27975 12.5037 8.00069 12.5037C8.72163 12.5037 9.43374 12.3451 10.0866 12.0392C10.7394 11.7333 11.3169 11.2875 11.7782 10.7335C11.8458 10.6584 11.8975 10.5705 11.9303 10.475C11.963 10.3795 11.9761 10.2783 11.9688 10.1776C11.9614 10.0769 11.9338 9.97875 11.8875 9.88899C11.8413 9.79923 11.7774 9.71975 11.6996 9.65533C11.6219 9.59091 11.5319 9.54287 11.4351 9.51411C11.3383 9.48535 11.2367 9.47646 11.1364 9.48797C11.0361 9.49948 10.9391 9.53115 10.8513 9.58109C10.7636 9.63102 10.6868 9.69819 10.6257 9.77854V9.77578ZM5.47245 7.49974C5.67022 7.50001 5.86363 7.44167 6.02825 7.33208C6.19287 7.22249 6.32133 7.06657 6.39739 6.88401C6.47345 6.70146 6.4937 6.50046 6.45558 6.3064C6.41747 6.11234 6.3227 5.93393 6.18325 5.7937C6.04379 5.65348 5.86591 5.55772 5.67206 5.51854C5.47822 5.47936 5.27711 5.4985 5.09413 5.57355C4.91116 5.6486 4.75454 5.77619 4.64404 5.94021C4.53354 6.10423 4.47413 6.29731 4.47331 6.49508C4.47616 6.75969 4.58217 7.01275 4.76877 7.20039C4.95538 7.38803 5.20785 7.49543 5.47245 7.49974ZM10.5027 5.6286C10.0894 5.61094 9.68181 5.73056 9.3436 5.96878C9.00538 6.20701 8.7555 6.55046 8.63293 6.94558C8.62128 7.02143 8.6333 7.09902 8.66735 7.16779C8.7014 7.23655 8.75583 7.29315 8.82321 7.32986C8.89059 7.36657 8.96765 7.38162 9.0439 7.37294C9.12014 7.36427 9.19185 7.3323 9.24927 7.28139L9.54776 7.01606C9.82551 6.81612 10.1591 6.70854 10.5013 6.70854C10.8435 6.70854 11.1771 6.81612 11.4548 7.01606L11.7478 7.27863C11.8053 7.33045 11.8774 7.3633 11.9543 7.37273C12.0312 7.38216 12.1091 7.36771 12.1774 7.33134C12.2458 7.29496 12.3013 7.23844 12.3365 7.16943C12.3716 7.10041 12.3846 7.02226 12.3738 6.94558C12.2559 6.54739 12.0069 6.20069 11.6673 5.96166C11.3277 5.72263 10.9173 5.60527 10.5027 5.6286ZM8 0C6.41775 0 4.87103 0.469192 3.55544 1.34824C2.23985 2.22729 1.21447 3.47672 0.608967 4.93853C0.00346627 6.40034 -0.15496 8.00887 0.153721 9.56072C0.462403 11.1126 1.22433 12.538 2.34315 13.6569C3.46197 14.7757 4.88743 15.5376 6.43928 15.8463C7.99113 16.155 9.59966 15.9965 11.0615 15.391C12.5233 14.7855 13.7727 13.7602 14.6518 12.4446C15.5308 11.129 16 9.58225 16 8C16 5.87827 15.1571 3.84344 13.6569 2.34315C12.1566 0.842854 10.1217 0 8 0ZM8 14.5006C6.7154 14.5006 5.45964 14.1197 4.39153 13.406C3.32342 12.6923 2.49093 11.6779 1.99933 10.4911C1.50774 9.30426 1.37911 7.99832 1.62973 6.7384C1.88034 5.47848 2.49894 4.32117 3.40729 3.41281C4.31564 2.50446 5.47295 1.88587 6.73288 1.63525C7.9928 1.38464 9.29874 1.51326 10.4856 2.00486C11.6724 2.49646 12.6868 3.32895 13.4005 4.39706C14.1141 5.46517 14.4951 6.72092 14.4951 8.00553C14.4918 9.72712 13.8064 11.3773 12.5891 12.5946C11.3717 13.812 9.72159 14.4973 8 14.5006Z" fill="#D5F223" fill-opacity="0.8"/>
</svg>
