<svg width="19" height="19" viewBox="0 0 19 19" fill="none" xmlns="http://www.w3.org/2000/svg">
<g id="vuesax/linear/message-notif">
<g id="message-notif">
<path id="Vector" d="M17.4167 7.91658V10.2916C17.4167 13.4583 15.8334 15.0416 12.6667 15.0416H12.2709C12.0255 15.0416 11.788 15.1603 11.6375 15.3583L10.45 16.9416C9.92754 17.6383 9.07254 17.6383 8.55004 16.9416L7.36254 15.3583C7.23587 15.1841 6.94296 15.0416 6.72921 15.0416H6.33337C3.16671 15.0416 1.58337 14.2499 1.58337 10.2916V6.33325C1.58337 3.16659 3.16671 1.58325 6.33337 1.58325H11.0834" stroke="#D5F223" stroke-opacity="0.8" stroke-width="1.5" stroke-miterlimit="10" stroke-linecap="round" stroke-linejoin="round"/>
<path id="Vector_2" d="M15.4375 5.54158C16.5306 5.54158 17.4167 4.65548 17.4167 3.56242C17.4167 2.46935 16.5306 1.58325 15.4375 1.58325C14.3445 1.58325 13.4584 2.46935 13.4584 3.56242C13.4584 4.65548 14.3445 5.54158 15.4375 5.54158Z" stroke="#D5F223" stroke-opacity="0.8" stroke-width="1.5" stroke-linecap="round" stroke-linejoin="round"/>
<path id="Vector_3" d="M12.6638 8.70833H12.6709" stroke="#D5F223" stroke-opacity="0.8" stroke-width="2" stroke-linecap="round" stroke-linejoin="round"/>
<path id="Vector_4" d="M9.49647 8.70833H9.50358" stroke="#D5F223" stroke-opacity="0.8" stroke-width="2" stroke-linecap="round" stroke-linejoin="round"/>
<path id="Vector_5" d="M6.32898 8.70833H6.3361" stroke="#D5F223" stroke-opacity="0.8" stroke-width="2" stroke-linecap="round" stroke-linejoin="round"/>
</g>
</g>
</svg>
