<svg width="16" height="16" viewBox="0 0 16 16" fill="none" xmlns="http://www.w3.org/2000/svg">
<g id="message-search">
<g id="vuesax/linear/message-search">
<g id="message-search_2">
<g id="Group">
<path id="Vector" d="M8.80005 14.2466C8.36005 14.8332 7.64003 14.8332 7.20003 14.2466L6.20003 12.9132C6.0867 12.7666 5.84671 12.6466 5.66671 12.6466H5.33337C2.66671 12.6466 1.33337 11.9799 1.33337 8.64657V5.31323C1.33337 2.64657 2.66671 1.31323 5.33337 1.31323H10.6667C13.3334 1.31323 14.6667 2.64657 14.6667 5.31323V8.64657" stroke="#9E9FA4" stroke-miterlimit="10" stroke-linecap="round" stroke-linejoin="round"/>
</g>
<g id="Group_2">
<path id="Vector_2" d="M12.1333 14.2667C13.3115 14.2667 14.2667 13.3115 14.2667 12.1333C14.2667 10.9551 13.3115 10 12.1333 10C10.9551 10 10 10.9551 10 12.1333C10 13.3115 10.9551 14.2667 12.1333 14.2667Z" stroke="#9E9FA4" stroke-linecap="round" stroke-linejoin="round"/>
<path id="Vector_3" d="M14.6667 14.6667L14 14" stroke="#9E9FA4" stroke-linecap="round" stroke-linejoin="round"/>
</g>
<path id="Vector_4" d="M10.6643 7.33333H10.6703" stroke="#9E9FA4" stroke-width="1.5" stroke-linecap="round" stroke-linejoin="round"/>
<path id="Vector_5" d="M7.99695 7.33325H8.00294" stroke="#9E9FA4" stroke-width="1.5" stroke-linecap="round" stroke-linejoin="round"/>
<path id="Vector_6" d="M5.32967 7.33333H5.33566" stroke="#9E9FA4" stroke-width="1.5" stroke-linecap="round" stroke-linejoin="round"/>
</g>
</g>
</g>
</svg>
