<svg width="19" height="19" viewBox="0 0 19 19" fill="none" xmlns="http://www.w3.org/2000/svg">
<g id="vuesax/linear/people">
<g id="vuesax/linear/people_2">
<g id="people">
<g id="Group">
<path id="Vector" d="M14.25 5.66825C14.2025 5.66034 14.1471 5.66034 14.0996 5.66825C13.0071 5.62867 12.1362 4.73409 12.1362 3.62575C12.1362 2.49367 13.0466 1.58325 14.1787 1.58325C15.3108 1.58325 16.2212 2.50159 16.2212 3.62575C16.2133 4.73409 15.3425 5.62867 14.25 5.66825Z" stroke="#D5F223" stroke-opacity="0.8" stroke-width="1.5" stroke-linecap="round" stroke-linejoin="round"/>
<path id="Vector_2" d="M13.4345 11.4317C14.5191 11.6138 15.7145 11.4238 16.5537 10.8617C17.6699 10.1175 17.6699 8.89838 16.5537 8.15421C15.7066 7.59213 14.4953 7.40213 13.4108 7.59213" stroke="#D5F223" stroke-opacity="0.8" stroke-width="1.5" stroke-linecap="round" stroke-linejoin="round"/>
</g>
<g id="Group_2">
<path id="Vector_3" d="M4.72626 5.66825C4.77376 5.66034 4.82917 5.66034 4.87667 5.66825C5.96917 5.62867 6.84 4.73409 6.84 3.62575C6.84 2.49367 5.92959 1.58325 4.79751 1.58325C3.66542 1.58325 2.755 2.50159 2.755 3.62575C2.76292 4.73409 3.63376 5.62867 4.72626 5.66825Z" stroke="#D5F223" stroke-opacity="0.8" stroke-width="1.5" stroke-linecap="round" stroke-linejoin="round"/>
<path id="Vector_4" d="M5.54168 11.4317C4.4571 11.6138 3.26168 11.4238 2.42251 10.8617C1.30626 10.1175 1.30626 8.89838 2.42251 8.15421C3.2696 7.59213 4.48085 7.40213 5.56543 7.59213" stroke="#D5F223" stroke-opacity="0.8" stroke-width="1.5" stroke-linecap="round" stroke-linejoin="round"/>
</g>
<g id="Group_3">
<path id="Vector_5" d="M9.49998 11.5821C9.45248 11.5742 9.39706 11.5742 9.34956 11.5821C8.25706 11.5425 7.38623 10.6479 7.38623 9.53957C7.38623 8.40749 8.29665 7.49707 9.42873 7.49707C10.5608 7.49707 11.4712 8.41541 11.4712 9.53957C11.4633 10.6479 10.5925 11.5504 9.49998 11.5821Z" stroke="#D5F223" stroke-opacity="0.4" stroke-width="1.5" stroke-linecap="round" stroke-linejoin="round"/>
<path id="Vector_6" d="M7.1962 14.0759C6.07995 14.8201 6.07995 16.0392 7.1962 16.7834C8.46286 17.6305 10.537 17.6305 11.8037 16.7834C12.9199 16.0392 12.9199 14.8201 11.8037 14.0759C10.5449 13.2367 8.46286 13.2367 7.1962 14.0759Z" stroke="#D5F223" stroke-opacity="0.4" stroke-width="1.5" stroke-linecap="round" stroke-linejoin="round"/>
</g>
</g>
</g>
</g>
</svg>
