<svg width="23" height="24" viewBox="0 0 23 24" fill="none" xmlns="http://www.w3.org/2000/svg">
<rect y="0.5" width="23" height="23" rx="11.5" fill="#9E9FA4"/>
<path d="M17.4912 6.86677L15.9919 16.5946C15.9749 16.7078 15.9323 16.8157 15.8672 16.9099C15.8022 17.004 15.7164 17.0821 15.6165 17.1379C15.5166 17.1938 15.4052 17.226 15.2909 17.2321C15.1766 17.2382 15.0624 17.218 14.9571 17.1731L12.0898 15.9747L10.8978 17.762C10.8573 17.8345 10.7981 17.8948 10.7264 17.9366C10.6547 17.9785 10.5731 18.0004 10.4901 18C10.3608 18 10.2368 17.9486 10.1454 17.8572C10.054 17.7658 10.0027 17.6418 10.0027 17.5126V15.2596C10.0021 15.093 10.0571 14.931 10.1589 14.7991L15.2499 8.25247L8.36881 14.4462L5.96508 13.4465C5.8319 13.391 5.71748 13.2984 5.63547 13.1797C5.55346 13.061 5.50732 12.9212 5.50254 12.777C5.49076 12.6367 5.52011 12.496 5.587 12.3721C5.6539 12.2482 5.75543 12.1465 5.87919 12.0795L16.3789 6.09889C16.5012 6.02887 16.6409 5.99481 16.7818 6.00064C16.9227 6.00647 17.059 6.05193 17.1752 6.13182C17.2914 6.21171 17.3827 6.32276 17.4386 6.45223C17.4945 6.58169 17.5127 6.7243 17.4912 6.86366V6.86677Z" fill="#D5F223" fill-opacity="0.8"/>
</svg>
