<svg width="16" height="16" viewBox="0 0 16 16" fill="none" xmlns="http://www.w3.org/2000/svg">
<ellipse cx="3.75" cy="3.75" rx="3.75" ry="3.75" transform="matrix(4.37114e-08 -1 -1 -4.37114e-08 12.8923 11.75)" fill="#7E869E" fill-opacity="0.25"/>
<path d="M5.09233 8C5.09233 5.76325 6.90558 3.95 9.14233 3.95C11.3791 3.95 13.1923 5.76325 13.1923 8C13.1923 10.2368 11.3791 12.05 9.14233 12.05C6.90558 12.05 5.09233 10.2368 5.09233 8Z" stroke="#7E869E" stroke-opacity="0.25" stroke-width="0.6"/>
<path d="M5.39233 12.3301C6.15243 12.769 7.01465 13 7.89233 13C8.77002 13 9.63224 12.769 10.3923 12.3301C11.1524 11.8913 11.7836 11.2601 12.2225 10.5C12.6613 9.7399 12.8923 8.87768 12.8923 8C12.8923 7.12232 12.6613 6.2601 12.2225 5.5C11.7836 4.7399 11.1524 4.10871 10.3923 3.66987C9.63224 3.23103 8.77002 3 7.89233 3C7.01465 3 6.15243 3.23103 5.39233 3.66987" stroke="#CD5555" stroke-opacity="0.93" stroke-width="1.2"/>
<path d="M1.64233 8L1.17381 7.62518L0.873959 8L1.17381 8.37482L1.64233 8ZM7.26733 8.6C7.5987 8.6 7.86733 8.33137 7.86733 8C7.86733 7.66863 7.5987 7.4 7.26733 7.4V8.6ZM3.67381 4.50018L1.17381 7.62518L2.11086 8.37482L4.61086 5.24982L3.67381 4.50018ZM1.17381 8.37482L3.67381 11.4998L4.61086 10.7502L2.11086 7.62518L1.17381 8.37482ZM1.64233 8.6H7.26733V7.4H1.64233V8.6Z" fill="#CD5555" fill-opacity="0.93"/>
</svg>
