<svg width="16" height="16" viewBox="0 0 16 16" fill="none" xmlns="http://www.w3.org/2000/svg">
<path d="M7.3498 9.08086C8.34513 9.08086 9.152 8.29456 9.152 7.32461C9.152 6.35466 8.34513 5.56836 7.3498 5.56836C6.35448 5.56836 5.54761 6.35466 5.54761 7.32461C5.54761 8.29456 6.35448 9.08086 7.3498 9.08086Z" stroke="#D5F223" stroke-opacity="0.8" stroke-linecap="round" stroke-linejoin="round"/>
<path d="M10.6785 13.1247C10.6785 11.6685 9.19053 10.481 7.34985 10.481C5.50918 10.481 4.02124 11.6622 4.02124 13.1247" stroke="#D5F223" stroke-opacity="0.8" stroke-linecap="round" stroke-linejoin="round"/>
<path d="M13.4684 8.3125C13.4684 11.5938 10.7427 14.25 7.37556 14.25C4.00846 14.25 1.28271 11.5938 1.28271 8.3125C1.28271 5.03125 4.00846 2.375 7.37556 2.375C8.21573 2.375 9.01742 2.53749 9.74856 2.83749C9.66518 3.08749 9.62029 3.35 9.62029 3.625C9.62029 4.09375 9.75497 4.5375 9.99227 4.9125C10.1205 5.125 10.2873 5.31873 10.4797 5.48123C10.9286 5.88123 11.5251 6.125 12.1857 6.125C12.4679 6.125 12.7373 6.08124 12.9874 5.99374C13.2952 6.70624 13.4684 7.49375 13.4684 8.3125Z" stroke="#D5F223" stroke-opacity="0.8" stroke-linecap="round" stroke-linejoin="round"/>
<path d="M14.7512 3.625C14.7512 3.825 14.7255 4.01875 14.6742 4.20625C14.6165 4.45625 14.5139 4.7 14.3792 4.9125C14.0713 5.41875 13.5775 5.81249 12.9875 5.99374C12.7373 6.08124 12.468 6.125 12.1858 6.125C11.5252 6.125 10.9287 5.88123 10.4798 5.48123C10.2874 5.31873 10.1206 5.125 9.99235 4.9125C9.75505 4.5375 9.62036 4.09375 9.62036 3.625C9.62036 3.35 9.66526 3.08749 9.74863 2.83749C9.87049 2.47499 10.0757 2.15001 10.3451 1.88126C10.8133 1.41251 11.4675 1.125 12.1858 1.125C12.9426 1.125 13.6288 1.44376 14.0906 1.95626C14.501 2.40001 14.7512 2.9875 14.7512 3.625Z" stroke="#D5F223" stroke-opacity="0.8" stroke-miterlimit="10" stroke-linecap="round" stroke-linejoin="round"/>
<path d="M13.1412 3.6123H11.23" stroke="#D5F223" stroke-opacity="0.8" stroke-miterlimit="10" stroke-linecap="round" stroke-linejoin="round"/>
<path d="M12.1855 2.69971V4.56845" stroke="#D5F223" stroke-opacity="0.8" stroke-miterlimit="10" stroke-linecap="round" stroke-linejoin="round"/>
</svg>
