<svg width="17" height="16" viewBox="0 0 17 16" fill="none" xmlns="http://www.w3.org/2000/svg">
<g id="user-search">
<path id="Vector" d="M8.81512 7.99967C10.6986 7.99967 12.2255 6.50729 12.2255 4.66634C12.2255 2.82539 10.6986 1.33301 8.81512 1.33301C6.93165 1.33301 5.40479 2.82539 5.40479 4.66634C5.40479 6.50729 6.93165 7.99967 8.81512 7.99967Z" stroke="#9E9FA4" stroke-linecap="round" stroke-linejoin="round"/>
<path id="Vector_2" d="M2.95618 14.6667C2.95618 12.0867 5.58216 10 8.81516 10" stroke="#9E9FA4" stroke-linecap="round" stroke-linejoin="round"/>
<g id="Group">
<path id="Vector_3" d="M13.044 14.2667C14.2494 14.2667 15.2266 13.3115 15.2266 12.1333C15.2266 10.9551 14.2494 10 13.044 10C11.8385 10 10.8613 10.9551 10.8613 12.1333C10.8613 13.3115 11.8385 14.2667 13.044 14.2667Z" stroke="#9E9FA4" stroke-linecap="round" stroke-linejoin="round"/>
<path id="Vector_4" d="M15.6358 14.6667L14.9537 14" stroke="#9E9FA4" stroke-linecap="round" stroke-linejoin="round"/>
</g>
</g>
</svg>
