<svg width="18" height="17" viewBox="0 0 18 17" fill="none" xmlns="http://www.w3.org/2000/svg">
<path d="M9 8.49984C11.0711 8.49984 12.75 6.91418 12.75 4.95817C12.75 3.00216 11.0711 1.4165 9 1.4165C6.92893 1.4165 5.25 3.00216 5.25 4.95817C5.25 6.91418 6.92893 8.49984 9 8.49984Z" stroke="#9E9FA4" stroke-linecap="round" stroke-linejoin="round"/>
<path d="M2.55737 15.5833C2.55737 12.8421 5.44489 10.625 8.99989 10.625C9.71989 10.625 10.4174 10.7171 11.0699 10.8871" stroke="#9E9FA4" stroke-linecap="round" stroke-linejoin="round"/>
<path d="M16.5 12.7498C16.5 12.9765 16.47 13.1961 16.41 13.4086C16.3425 13.6919 16.2225 13.9682 16.065 14.209C15.5475 15.0307 14.595 15.5832 13.5 15.5832C12.7275 15.5832 12.03 15.3069 11.505 14.8536C11.28 14.6694 11.085 14.4498 10.935 14.209C10.6575 13.784 10.5 13.2811 10.5 12.7498C10.5 11.9848 10.8225 11.2836 11.3475 10.7736C11.895 10.2424 12.66 9.9165 13.5 9.9165C14.385 9.9165 15.1875 10.2778 15.7275 10.8586C16.2075 11.3615 16.5 12.0273 16.5 12.7498Z" stroke="#CD5555" stroke-opacity="0.93" stroke-miterlimit="10" stroke-linecap="round" stroke-linejoin="round"/>
<path d="M14.2903 11.9455L12.7099 13.5259" stroke="#CD5555" stroke-opacity="0.93" stroke-miterlimit="10" stroke-linecap="round" stroke-linejoin="round"/>
</svg>
