<svg width="23" height="16" viewBox="0 0 23 16" fill="none" xmlns="http://www.w3.org/2000/svg">
<path d="M18.302 15.0416H4.62493C4.46122 15.0431 4.30128 14.9924 4.16831 14.8968C4.03534 14.8013 3.93623 14.666 3.88535 14.5103L0.562433 4.37492C0.511524 4.22917 0.506181 4.07138 0.547116 3.92253C0.588051 3.77367 0.673325 3.64081 0.7916 3.54159C0.908416 3.43909 1.05348 3.3743 1.20777 3.35571C1.36206 3.33713 1.51837 3.36561 1.65618 3.43742L7.71868 6.45825L10.8437 0.395752C10.9157 0.274891 11.0179 0.17481 11.1403 0.105309C11.2626 0.0358072 11.4009 -0.000732422 11.5416 -0.000732422C11.6823 -0.000732422 11.8206 0.0358072 11.9429 0.105309C12.0653 0.17481 12.1675 0.274891 12.2395 0.395752L15.3645 6.46867L21.4374 3.44784C21.5737 3.3769 21.7282 3.34888 21.8807 3.36748C22.0331 3.38607 22.1764 3.4504 22.2916 3.552C22.3913 3.66128 22.458 3.79664 22.4838 3.94232C22.5096 4.088 22.4935 4.23802 22.4374 4.37492L19.0416 14.4999C18.9925 14.6575 18.8942 14.7951 18.7611 14.8926C18.6279 14.9901 18.467 15.0424 18.302 15.0416ZM5.24993 13.4791H17.7499L20.3645 5.677L15.2916 8.19784C15.2008 8.24431 15.1016 8.27229 14.9999 8.28015C14.8981 8.288 14.7958 8.27558 14.6989 8.24361C14.602 8.21163 14.5125 8.16073 14.4354 8.09387C14.3583 8.027 14.2953 7.9455 14.2499 7.85409L11.4999 2.45825L8.76035 7.85409C8.71501 7.9455 8.65198 8.027 8.5749 8.09387C8.49782 8.16073 8.40824 8.21163 8.31134 8.24361C8.21444 8.27558 8.11216 8.288 8.01042 8.28015C7.90869 8.27229 7.80952 8.24431 7.71868 8.19784L2.62493 5.64575L5.24993 13.4791Z" fill="#D5F223" fill-opacity="0.8"/>
</svg>
