<svg width="35" height="18" viewBox="0 0 35 18" fill="none" xmlns="http://www.w3.org/2000/svg">
<rect width="35" height="18" rx="9" fill="#9E9FA4" fill-opacity="0.8"/>
<rect x="2" y="2" width="16" height="14" rx="7" fill="#D5F223" fill-opacity="0.8"/>
<path d="M24.7417 6.24165C24.1126 7.04165 23.7667 8.06665 23.8459 9.17498C23.9959 11.3208 25.8167 13.0667 27.9959 13.1625C29.5334 13.2292 30.9084 12.5125 31.7334 11.3833C32.0751 10.9208 31.8917 10.6125 31.3209 10.7167C31.0417 10.7667 30.7542 10.7875 30.4542 10.775C28.4167 10.6917 26.7501 8.98748 26.7417 6.97498C26.7376 6.43332 26.8501 5.92082 27.0542 5.45415C27.2792 4.93748 27.0084 4.69165 26.4876 4.91248" stroke="#292D32" stroke-opacity="0.77" stroke-linecap="round" stroke-linejoin="round"/>
</svg>
