<svg width="18" height="17" viewBox="0 0 18 17" fill="none" xmlns="http://www.w3.org/2000/svg">
<path d="M8.99994 8.50033C11.071 8.50033 12.7499 6.91467 12.7499 4.95866C12.7499 3.00265 11.071 1.41699 8.99994 1.41699C6.92887 1.41699 5.24994 3.00265 5.24994 4.95866C5.24994 6.91467 6.92887 8.50033 8.99994 8.50033Z" stroke="#CD5555" stroke-opacity="0.93" stroke-linecap="round" stroke-linejoin="round"/>
<path d="M2.55762 15.5833C2.55762 12.8421 5.44511 10.625 9.00011 10.625C9.72011 10.625 10.4176 10.7171 11.0701 10.8871" stroke="#CD5555" stroke-opacity="0.93" stroke-linecap="round" stroke-linejoin="round"/>
<path d="M16.5001 12.7498C16.5001 12.9765 16.4701 13.1961 16.4101 13.4086C16.3426 13.6919 16.2226 13.9682 16.0651 14.209C15.5476 15.0307 14.5951 15.5832 13.5001 15.5832C12.7276 15.5832 12.0301 15.3069 11.5051 14.8536C11.2801 14.6694 11.0851 14.4498 10.9351 14.209C10.6576 13.784 10.5001 13.2811 10.5001 12.7498C10.5001 11.9848 10.8226 11.2836 11.3476 10.7736C11.8951 10.2424 12.6601 9.9165 13.5001 9.9165C14.3851 9.9165 15.1876 10.2778 15.7276 10.8586C16.2076 11.3615 16.5001 12.0273 16.5001 12.7498Z" stroke="#CD5555" stroke-opacity="0.93" stroke-miterlimit="10" stroke-linecap="round" stroke-linejoin="round"/>
<path d="M14.2724 11.999L12.6899 13.4936" stroke="#CD5555" stroke-opacity="0.93" stroke-miterlimit="10" stroke-linecap="round" stroke-linejoin="round"/>
<path d="M12.705 12.0132L14.295 13.5078" stroke="#CD5555" stroke-opacity="0.93" stroke-miterlimit="10" stroke-linecap="round" stroke-linejoin="round"/>
</svg>
