<svg width="23" height="22" viewBox="0 0 23 22" fill="none" xmlns="http://www.w3.org/2000/svg">
<path opacity="0.4" d="M1.91669 7.79751V14.2025C1.91669 15.515 3.47876 16.3375 4.7246 15.6813L7.76253 14.0888L10.8004 12.4875C10.9921 12.3825 11.1454 12.2688 11.27 12.1288V9.88877C11.1454 9.74877 10.9921 9.63502 10.8004 9.53002L7.76253 7.92875L4.7246 6.33627C3.47876 5.66252 1.91669 6.48501 1.91669 7.79751Z" stroke="#D5F223" stroke-opacity="0.8" stroke-width="1.5" stroke-linecap="round" stroke-linejoin="round"/>
<path d="M11.27 7.79751V14.2025C11.27 15.515 12.8321 16.3375 14.0779 15.6813L17.1158 14.0888L20.1538 12.4875C21.3996 11.8313 21.3996 10.195 20.1538 9.53002L17.1158 7.92875L14.0779 6.33627C12.8321 5.66252 11.27 6.48501 11.27 7.79751Z" stroke="#D5F223" stroke-opacity="0.8" stroke-width="1.5" stroke-linecap="round" stroke-linejoin="round"/>
</svg>
