<svg width="25" height="25" viewBox="0 0 25 25" fill="none" xmlns="http://www.w3.org/2000/svg">
<path d="M19.302 20.0417H5.62493C5.46122 20.0432 5.30128 19.9925 5.16831 19.897C5.03534 19.8014 4.93623 19.6661 4.88535 19.5105L1.56243 9.37504C1.51152 9.2293 1.50618 9.07151 1.54712 8.92265C1.58805 8.7738 1.67332 8.64093 1.7916 8.54171C1.90842 8.43922 2.05348 8.37443 2.20777 8.35584C2.36206 8.33725 2.51837 8.36573 2.65618 8.43754L8.71868 11.4584L11.8437 5.39587C11.9157 5.27501 12.0179 5.17493 12.1403 5.10543C12.2626 5.03593 12.4009 4.99939 12.5416 4.99939C12.6823 4.99939 12.8206 5.03593 12.9429 5.10543C13.0653 5.17493 13.1675 5.27501 13.2395 5.39587L16.3645 11.4688L22.4374 8.44796C22.5737 8.37702 22.7282 8.34901 22.8807 8.3676C23.0331 8.38619 23.1764 8.45052 23.2916 8.55212C23.3913 8.66141 23.458 8.79676 23.4838 8.94244C23.5096 9.08812 23.4935 9.23814 23.4374 9.37504L20.0416 19.5C19.9925 19.6576 19.8942 19.7953 19.7611 19.8928C19.6279 19.9903 19.467 20.0425 19.302 20.0417ZM6.24993 18.4792H18.7499L21.3645 10.6771L16.2916 13.198C16.2008 13.2444 16.1016 13.2724 15.9999 13.2803C15.8981 13.2881 15.7958 13.2757 15.6989 13.2437C15.602 13.2118 15.5125 13.1609 15.4354 13.094C15.3583 13.0271 15.2953 12.9456 15.2499 12.8542L12.4999 7.45837L9.76035 12.8542C9.71501 12.9456 9.65198 13.0271 9.5749 13.094C9.49782 13.1609 9.40824 13.2118 9.31134 13.2437C9.21444 13.2757 9.11216 13.2881 9.01042 13.2803C8.90869 13.2724 8.80952 13.2444 8.71868 13.198L3.62493 10.6459L6.24993 18.4792Z" fill="#D5F223" fill-opacity="0.8"/>
<path d="M13.0066 16.0001C12.7407 15.9967 12.4867 15.8902 12.2987 15.7034C12.1106 15.5166 12.0034 15.2643 12 15.0001C11.9982 14.8694 12.0226 14.7397 12.0717 14.6184C12.1208 14.4972 12.1937 14.3868 12.2861 14.2938C12.3785 14.2008 12.4886 14.1269 12.61 14.0765C12.7314 14.0261 12.8616 14.0001 12.9932 14.0001C13.2602 14.0001 13.5162 14.1055 13.705 14.293C13.8938 14.4806 13.9999 14.7349 13.9999 15.0001C13.9999 15.2653 13.8938 15.5197 13.705 15.7072C13.5162 15.8948 13.2602 16.0001 12.9932 16.0001H13.0066Z" fill="#D5F223" fill-opacity="0.4"/>
</svg>
