<svg width="26" height="23" viewBox="0 0 26 23" fill="none" xmlns="http://www.w3.org/2000/svg">
<g clip-path="url(#clip0_575_17110)">
<path opacity="0.3" d="M14.0276 7.96976L11.9722 7.36366C12.8006 5.16512 14.1295 3.79366 15.9872 3.38282C16.9544 3.16892 18.4166 1.79166 18.4166 0.958374H20.5832C20.5832 2.68065 18.4343 4.81728 16.5127 5.24226C15.4815 5.47031 14.6437 6.33496 14.0276 7.96976Z" fill="white"/>
<path fill-rule="evenodd" clip-rule="evenodd" d="M8.46942 6.70831H17.5527C19.0219 6.44907 20.5285 7.11775 21.1536 8.35709L24.8626 15.7109C25.4221 16.8202 25.1331 18.1209 24.1405 18.9603L23.6591 19.3675C23.637 19.3862 23.6145 19.4046 23.5917 19.4227C22.4146 20.3562 20.605 20.2688 19.5497 19.2276L16.5744 16.2916H9.60322L6.62787 19.2276C5.57262 20.2688 3.76295 20.3562 2.58586 19.4227C2.56306 19.4046 2.5406 19.3862 2.51847 19.3675L2.01245 18.9395C1.03204 18.1103 0.736895 16.8297 1.2721 15.7271L4.8332 8.39106C5.44743 7.1257 6.97769 6.43771 8.46942 6.70831ZM8.66661 13.4166C9.86323 13.4166 10.8333 12.5585 10.8333 11.5C10.8333 10.4414 9.86323 9.58331 8.66661 9.58331C7.46999 9.58331 6.49994 10.4414 6.49994 11.5C6.49994 12.5585 7.46999 13.4166 8.66661 13.4166ZM18.4166 11.5C19.0149 11.5 19.4999 11.0709 19.4999 10.5416C19.4999 10.0124 19.0149 9.58331 18.4166 9.58331C17.8183 9.58331 17.3333 10.0124 17.3333 10.5416C17.3333 11.0709 17.8183 11.5 18.4166 11.5ZM16.2499 13.4166C16.8483 13.4166 17.3333 12.9876 17.3333 12.4583C17.3333 11.929 16.8483 11.5 16.2499 11.5C15.6516 11.5 15.1666 11.929 15.1666 12.4583C15.1666 12.9876 15.6516 13.4166 16.2499 13.4166Z" fill="#D5F223" fill-opacity="0.8"/>
</g>
<defs>
<clipPath id="clip0_575_17110">
<rect width="26" height="23" fill="white"/>
</clipPath>
</defs>
</svg>
