<svg width="100" height="71" viewBox="0 0 100 71" fill="none" xmlns="http://www.w3.org/2000/svg">
<g id="GANSY_Logo">
<g id="Group">
<path id="Vector" opacity="0.999" fill-rule="evenodd" clip-rule="evenodd" d="M60.2459 15.6191C60.436 15.913 60.3267 16.028 59.918 15.9643C56.6605 14.4367 53.409 12.8834 50.1639 11.3044C46.5209 13.0062 42.8872 14.7321 39.2623 16.4821C38.9019 16.4978 38.8473 16.3827 39.0983 16.1369C42.769 14.0601 46.4301 11.9315 50.0819 9.75116C53.498 11.6141 56.8859 13.5701 60.2459 15.6191Z" fill="#D2D6DB"/>
</g>
<g id="Group_2">
<path id="Vector_2" opacity="0.953" fill-rule="evenodd" clip-rule="evenodd" d="M60.246 15.6191C61.6281 16.2605 62.9396 17.0371 64.1804 17.9491C62.7353 17.3737 61.3145 16.7121 59.9181 15.9643C60.3268 16.0281 60.4361 15.913 60.246 15.6191Z" fill="#949CA9"/>
</g>
<g id="Group_3">
<path id="Vector_3" opacity="0.706" fill-rule="evenodd" clip-rule="evenodd" d="M39.0984 16.1369C38.8474 16.3828 38.902 16.4978 39.2623 16.4821C38.2994 16.9741 37.3158 17.4344 36.3115 17.8628C37.1656 17.1597 38.0946 16.5844 39.0984 16.1369Z" fill="#8E97A5"/>
</g>
<g id="Group_4">
<path id="Vector_4" opacity="0.043" fill-rule="evenodd" clip-rule="evenodd" d="M36.3119 17.8628C36.202 17.9779 36.202 17.9779 36.3119 17.8628V17.8628Z" fill="#46566B"/>
</g>
<g id="Group_5">
<path id="Vector_5" fill-rule="evenodd" clip-rule="evenodd" d="M51.8853 22.0049C51.6685 22.0342 51.4772 21.9768 51.3115 21.8323C51.1931 22.3088 51.2205 22.7689 51.3935 23.213C50.9259 22.9384 50.4341 22.7084 49.918 22.5227C49.7541 22.5227 49.5902 22.5227 49.4262 22.5227C49.3618 22.0027 49.4712 21.5424 49.7541 21.142C50.5574 21.0721 51.2677 21.3596 51.8853 22.0049Z" fill="#D5F223" fill-opacity="0.8"/>
</g>
<g id="Group_6">
<path id="Vector_6" fill-rule="evenodd" clip-rule="evenodd" d="M51.8853 22.0049C52.2103 22.1724 52.5382 22.345 52.8689 22.5226C52.7264 22.9053 52.6718 23.3079 52.7049 23.7307C52.541 23.7307 52.3771 23.7307 52.2131 23.7307C52.0505 23.7604 51.9413 23.7028 51.8853 23.5581C51.8077 23.3155 51.6438 23.2004 51.3935 23.213C51.2205 22.7689 51.1931 22.3088 51.3115 21.8323C51.4772 21.9767 51.6685 22.0342 51.8853 22.0049Z" fill="#D5F223" fill-opacity="0.8"/>
</g>
<g id="Group_7">
<path id="Vector_7" fill-rule="evenodd" clip-rule="evenodd" d="M52.8689 22.5226C53.1525 22.6134 53.3712 22.786 53.5246 23.0404C53.3607 23.0404 53.1967 23.0404 53.0328 23.0404C53.1233 23.3564 53.1233 23.6439 53.0328 23.9033C53.1464 24.079 53.2556 24.2516 53.3607 24.4211C52.9502 24.234 52.5677 24.004 52.2131 23.7308C52.3771 23.7308 52.541 23.7308 52.7049 23.7308C52.6718 23.3079 52.7264 22.9053 52.8689 22.5226Z" fill="#D5F223" fill-opacity="0.8"/>
</g>
<g id="Group_8">
<path id="Vector_8" opacity="0.906" fill-rule="evenodd" clip-rule="evenodd" d="M53.6885 23.0404C53.8868 23.115 54.0508 23.2301 54.1803 23.3856C53.905 23.4227 53.7411 23.3076 53.6885 23.0404Z" fill="#D5F223" fill-opacity="0.8"/>
</g>
<g id="Group_9">
<path id="Vector_9" opacity="0.153" fill-rule="evenodd" clip-rule="evenodd" d="M51.3934 23.213C51.6438 23.2004 51.8077 23.3155 51.8852 23.5582C51.6349 23.5708 51.471 23.4557 51.3934 23.213Z" fill="#425A58"/>
</g>
<g id="Group_10">
<path id="Vector_10" fill-rule="evenodd" clip-rule="evenodd" d="M51.3935 24.4211C51.0912 24.7281 50.982 25.1308 51.0656 25.6292C50.9645 25.6101 50.8825 25.5526 50.8197 25.4566C50.7381 26.0291 50.7107 26.6043 50.7377 27.1825C50.7396 27.4443 50.8487 27.6457 51.0656 27.7866C51.5163 27.9804 51.9261 28.2393 52.2951 28.5632C52.3771 28.4769 52.4591 28.3906 52.541 28.3043C52.3843 27.7186 52.3297 27.1145 52.3771 26.4922C52.6935 27.1606 52.8028 27.9084 52.705 28.7358C51.6663 28.3337 51.3384 28.6788 51.7214 29.7713C51.5587 29.801 51.4495 29.7434 51.3935 29.5987C51.3159 29.3561 51.152 29.241 50.9017 29.2535C50.6135 29.1885 50.3402 29.0734 50.082 28.9084C49.8981 29.1034 49.6794 29.2185 49.4263 29.2535C49.2623 29.2535 49.0984 29.2535 48.9345 29.2535C48.9994 28.7991 49.054 28.3388 49.0984 27.8729C49.2617 27.8877 49.3982 27.83 49.5082 27.7003C49.644 26.9459 49.6166 26.1979 49.4263 25.4566C49.2587 25.5179 49.1494 25.633 49.0984 25.8018C49.0423 25.9464 48.9332 26.0041 48.7705 25.9744C48.3566 25.4896 48.3566 24.9718 48.7705 24.4211C49.2112 24.1163 49.6756 23.8286 50.164 23.5582C50.6269 23.7856 51.0368 24.0733 51.3935 24.4211Z" fill="#D5F223" fill-opacity="0.8"/>
</g>
<g id="Group_11">
<path id="Vector_11" fill-rule="evenodd" clip-rule="evenodd" d="M49.7541 21.142C49.4711 21.5424 49.3618 22.0027 49.4262 22.5227C49.5901 22.5227 49.7541 22.5227 49.918 22.5227C48.7483 23.3404 47.5462 24.117 46.3115 24.8526C46.487 24.9996 46.651 25.1434 46.8033 25.2841C46.6393 25.2841 46.4754 25.2841 46.3115 25.2841C46.3115 25.6867 46.3115 26.0895 46.3115 26.4922C46.0405 26.4646 45.8219 26.3496 45.6557 26.147C45.6459 26.0533 45.5913 25.9958 45.4918 25.9744C45.4372 26.8085 45.3824 27.6428 45.3278 28.4769C45.3288 29.3771 45.4382 30.2113 45.6557 30.9794C45.9267 31.0071 46.1452 31.122 46.3115 31.3246C46.6651 31.6546 47.0477 31.9423 47.459 32.1876C47.2513 32.6296 47.2513 33.0898 47.459 33.5683C46.339 33.0657 45.3006 32.4328 44.3442 31.6698C44.3442 29.2536 44.3442 26.8374 44.3442 24.4211C46.1044 23.2605 47.9077 22.1675 49.7541 21.142Z" fill="#D5F223" fill-opacity="0.8"/>
</g>
<g id="Group_12">
<path id="Vector_12" opacity="0.957" fill-rule="evenodd" clip-rule="evenodd" d="M55.1639 23.9033C55.4702 24.035 55.7434 24.2076 55.9836 24.4211C55.6471 24.438 55.3738 24.3229 55.1639 24.0759C55.1639 24.0184 55.1639 23.9608 55.1639 23.9033Z" fill="#D5F223" fill-opacity="0.8"/>
</g>
<g id="Group_13">
<path id="Vector_13" fill-rule="evenodd" clip-rule="evenodd" d="M55.164 24.0759C55.3738 24.3229 55.6471 24.438 55.9836 24.4211C56.1717 26.7093 56.1989 29.0105 56.0656 31.3246C55.9948 31.7685 55.7489 31.9987 55.3279 32.0149C55.1843 32.0376 55.0749 31.9801 55 31.8424C54.9741 29.1919 55.0287 26.6031 55.164 24.0759Z" fill="#D5F223" fill-opacity="0.8"/>
</g>
<g id="Group_14">
<path id="Vector_14" opacity="0.596" fill-rule="evenodd" clip-rule="evenodd" d="M44.3443 24.4211C44.3443 26.8373 44.3443 29.2535 44.3443 31.6698C44.1151 31.4494 44.0059 31.1618 44.0164 30.8068C44.1163 28.6515 44.2255 26.5229 44.3443 24.4211Z" fill="#D5F223" fill-opacity="0.8"/>
</g>
<g id="Group_15">
<path id="Vector_15" fill-rule="evenodd" clip-rule="evenodd" d="M48.7705 24.4211C48.3565 24.9718 48.3565 25.4896 48.7705 25.9744C48.5411 26.2143 48.2678 26.3869 47.9508 26.4921C47.9777 26.0284 47.9503 25.5681 47.8688 25.1114C47.7588 25.2412 47.6223 25.2989 47.459 25.284C47.8396 24.9105 48.2769 24.6228 48.7705 24.4211Z" fill="#D5F223" fill-opacity="0.8"/>
</g>
<g id="Group_16">
<path id="Vector_16" opacity="0.957" fill-rule="evenodd" clip-rule="evenodd" d="M53.6886 24.5937C53.8945 24.587 54.0584 24.6733 54.1804 24.8526C53.969 25.1636 53.6958 25.365 53.3607 25.4566C52.8864 25.5376 52.5586 25.365 52.3771 24.9389C52.9059 25.4112 53.3977 25.3824 53.8525 24.8526C53.7613 24.7865 53.7067 24.7002 53.6886 24.5937Z" fill="#D5F223" fill-opacity="0.8"/>
</g>
<g id="Group_17">
<path id="Vector_17" fill-rule="evenodd" clip-rule="evenodd" d="M51.3934 24.4211C51.7736 24.506 52.1014 24.6786 52.377 24.9388C52.5585 25.365 52.8863 25.5375 53.3606 25.4566C53.1832 25.6454 53.074 25.8755 53.0327 26.147C52.9919 27.5059 53.0465 28.8866 53.1967 30.2891C53.3606 30.2891 53.5245 30.2891 53.6885 30.2891C53.1977 30.7205 52.6513 31.0657 52.0491 31.3246C51.8852 31.3246 51.7213 31.3246 51.5573 31.3246C51.6527 30.8935 51.6527 30.4908 51.5573 30.1165C52.0426 30.0246 52.0972 29.9095 51.7213 29.7713C51.3383 28.6788 51.6662 28.3336 52.7049 28.7358C52.8027 27.9084 52.6934 27.1606 52.377 26.4921C52.106 26.4645 51.8875 26.3496 51.7213 26.147C51.6437 25.9043 51.4798 25.7892 51.2295 25.8018C51.2295 25.6867 51.1749 25.6292 51.0655 25.6292C50.9819 25.1308 51.0911 24.7281 51.3934 24.4211Z" fill="#D5F223" fill-opacity="0.8"/>
</g>
<g id="Group_18">
<path id="Vector_18" fill-rule="evenodd" clip-rule="evenodd" d="M47.9509 26.4921C47.7378 26.7895 47.6284 27.1635 47.623 27.614C47.6776 27.988 47.7323 28.3618 47.7869 28.7358C47.8864 28.7144 47.941 28.6569 47.9509 28.5632C48.3055 28.29 48.6879 28.0599 49.0984 27.8728C49.054 28.3388 48.9994 28.7991 48.9345 29.2535C49.0984 29.2535 49.2623 29.2535 49.4263 29.2535C49.1861 29.467 48.9128 29.6396 48.6066 29.7713C48.2307 29.9096 48.2853 30.0247 48.7705 30.1165C48.9332 30.0868 49.0423 30.1444 49.0984 30.2891C48.9345 30.2891 48.7705 30.2891 48.6066 30.2891C48.6066 30.6917 48.6066 31.0945 48.6066 31.4972C48.2759 31.3196 47.9481 31.147 47.623 30.9794C47.5455 30.7368 47.3815 30.6216 47.1312 30.6342C46.9686 30.6639 46.8594 30.6063 46.8033 30.4617C46.7545 29.0825 46.5905 27.7595 46.3115 26.4921C46.3115 26.0895 46.3115 25.6867 46.3115 25.284C46.4755 25.284 46.6394 25.284 46.8033 25.284C47.0219 25.284 47.2405 25.284 47.4591 25.284C47.6223 25.2989 47.7589 25.2412 47.8689 25.1115C47.9504 25.5681 47.9778 26.0284 47.9509 26.4921Z" fill="#D5F223" fill-opacity="0.8"/>
</g>
<g id="Group_19">
<path id="Vector_19" opacity="0.341" fill-rule="evenodd" clip-rule="evenodd" d="M49.0984 27.8729C49.3467 27.5272 49.4559 27.1244 49.4263 26.6648C49.4171 26.2954 49.3077 26.0079 49.0984 25.8018C49.1494 25.633 49.2587 25.5179 49.4263 25.4567C49.6166 26.1979 49.644 26.9459 49.5082 27.7003C49.3982 27.8301 49.2617 27.8877 49.0984 27.8729Z" fill="#3C5953"/>
</g>
<g id="Group_20">
<path id="Vector_20" opacity="0.036" fill-rule="evenodd" clip-rule="evenodd" d="M51.0656 25.6293C51.175 25.6293 51.2295 25.6867 51.2295 25.8018C50.9676 26.2086 50.8036 26.6687 50.7377 27.1825C50.7107 26.6044 50.7381 26.0291 50.8197 25.4567C50.8825 25.5526 50.9645 25.6101 51.0656 25.6293Z" fill="#3D4F5F"/>
</g>
<g id="Group_21">
<path id="Vector_21" fill-rule="evenodd" clip-rule="evenodd" d="M53.5245 23.0404C53.5791 23.0404 53.6339 23.0404 53.6885 23.0404C53.7411 23.3076 53.905 23.4227 54.1803 23.3856C54.5054 23.5532 54.8332 23.7257 55.1639 23.9033C55.1639 23.9608 55.1639 24.0185 55.1639 24.0759C55.0286 26.6031 54.974 29.1919 54.9999 31.8424C55.0749 31.9801 55.1842 32.0376 55.3278 32.0149C54.6175 32.5619 53.8524 33.0222 53.0327 33.3956C52.6485 33.0128 52.5939 32.5526 52.8688 32.0149C53.1191 32.0275 53.2831 31.9124 53.3606 31.6698C53.9117 31.3798 54.4035 31.006 54.836 30.548C54.6175 29.1098 54.6175 27.6714 54.836 26.2333C54.5439 26.2122 54.2708 26.2985 54.0163 26.4922C53.6945 27.6871 53.5852 28.9527 53.6885 30.2891C53.5245 30.2891 53.3606 30.2891 53.1967 30.2891C53.0465 28.8866 52.9919 27.5059 53.0327 26.147C53.074 25.8755 53.1832 25.6454 53.3606 25.4566C53.6957 25.365 53.969 25.1636 54.1803 24.8526C54.0583 24.6733 53.8944 24.587 53.6885 24.5937C53.5258 24.6234 53.4167 24.5657 53.3606 24.4211C53.2555 24.2516 53.1463 24.079 53.0327 23.9033C53.1232 23.6439 53.1232 23.3564 53.0327 23.0404C53.1967 23.0404 53.3606 23.0404 53.5245 23.0404Z" fill="#D5F223" fill-opacity="0.8"/>
</g>
<g id="Group_22">
<path id="Vector_22" opacity="0.365" fill-rule="evenodd" clip-rule="evenodd" d="M45.6557 26.147C45.44 27.7409 45.44 29.3516 45.6557 30.9795C45.4382 30.2113 45.3289 29.3772 45.3279 28.4769C45.3825 27.6428 45.4372 26.8085 45.4918 25.9744C45.5913 25.9958 45.6459 26.0533 45.6557 26.147Z" fill="#D5F223" fill-opacity="0.8"/>
</g>
<g id="Group_23">
<path id="Vector_23" opacity="0.184" fill-rule="evenodd" clip-rule="evenodd" d="M51.2295 25.8018C51.4798 25.7892 51.6438 25.9044 51.7213 26.147C51.471 26.1596 51.307 26.0445 51.2295 25.8018Z" fill="#D5F223" fill-opacity="0.8"/>
</g>
<g id="Group_24">
<path id="Vector_24" opacity="0.785" fill-rule="evenodd" clip-rule="evenodd" d="M46.3114 26.4922C46.5905 27.7595 46.7544 29.0826 46.8032 30.4617C46.4124 30.3021 46.2485 29.9857 46.3114 29.5125C46.4839 28.5477 46.4839 27.541 46.3114 26.4922Z" fill="#D5F223" fill-opacity="0.8"/>
</g>
<g id="Group_25">
<path id="Vector_25" opacity="0.19" fill-rule="evenodd" clip-rule="evenodd" d="M47.9508 26.4922C47.7392 27.2 47.7392 27.8903 47.9508 28.5632C47.941 28.657 47.8864 28.7144 47.7869 28.7358C47.7323 28.3618 47.6775 27.988 47.6229 27.614C47.6283 27.1636 47.7377 26.7896 47.9508 26.4922Z" fill="#385059"/>
</g>
<g id="Group_26">
<path id="Vector_26" opacity="0.109" fill-rule="evenodd" clip-rule="evenodd" d="M54.0164 26.4922C53.9121 27.775 53.8029 29.0406 53.6885 30.2891C53.5852 28.9528 53.6946 27.6872 54.0164 26.4922Z" fill="#D5F223" fill-opacity="0.8"/>
</g>
<g id="Group_27">
<path id="Vector_27" opacity="0.22" fill-rule="evenodd" clip-rule="evenodd" d="M50.9016 29.2536C51.1519 29.241 51.3159 29.3561 51.3934 29.5987C51.1431 29.6113 50.9792 29.4962 50.9016 29.2536Z" fill="#425C54"/>
</g>
<g id="Group_28">
<path id="Vector_28" opacity="0.078" fill-rule="evenodd" clip-rule="evenodd" d="M48.6065 29.7713C48.6611 29.8864 48.7159 30.0014 48.7704 30.1165C48.2852 30.0247 48.2306 29.9095 48.6065 29.7713Z" fill="#394E5C"/>
</g>
<g id="Group_29">
<path id="Vector_29" opacity="0.58" fill-rule="evenodd" clip-rule="evenodd" d="M51.7213 29.7713C52.0972 29.9095 52.0426 30.0247 51.5574 30.1165C51.612 30.0014 51.6667 29.8864 51.7213 29.7713Z" fill="#D5F223" fill-opacity="0.8"/>
</g>
<g id="Group_30">
<path id="Vector_30" opacity="0.251" fill-rule="evenodd" clip-rule="evenodd" d="M47.1311 30.6342C47.3814 30.6216 47.5454 30.7367 47.6229 30.9794C47.3726 30.992 47.2086 30.8769 47.1311 30.6342Z" fill="#D5F223" fill-opacity="0.8"/>
</g>
<g id="Group_31">
<path id="Vector_31" fill-rule="evenodd" clip-rule="evenodd" d="M51.5574 30.1165C51.6528 30.4909 51.6528 30.8935 51.5574 31.3246C51.7213 31.3246 51.8853 31.3246 52.0492 31.3246C51.6946 31.5978 51.3121 31.8279 50.9016 32.015C50.689 32.3935 50.689 32.7963 50.9016 33.2231C51.0012 33.2017 51.0557 33.1442 51.0656 33.0505C51.3412 32.7902 51.669 32.6177 52.0492 32.5327C52.2125 32.5476 52.349 32.4899 52.459 32.3602C52.5405 32.8168 52.5679 33.2771 52.541 33.7409C51.8582 34.1958 51.1479 34.6273 50.4098 35.0353C50.1531 35.1673 49.9346 35.1385 49.7541 34.949C49.6061 34.45 49.5515 33.9323 49.5902 33.3957C49.841 32.3942 49.5131 31.7613 48.6066 31.4972C48.6066 31.0946 48.6066 30.6917 48.6066 30.2891C48.7705 30.2891 48.9344 30.2891 49.0984 30.2891C49.1759 30.5318 49.3398 30.6469 49.5902 30.6343C49.8553 30.7271 50.1285 30.7846 50.4098 30.8069C50.6602 30.8195 50.8241 30.7043 50.9016 30.4617C51.0679 30.2591 51.2864 30.1441 51.5574 30.1165Z" fill="#D5F223" fill-opacity="0.8"/>
</g>
<g id="Group_32">
<path id="Vector_32" opacity="0.639" fill-rule="evenodd" clip-rule="evenodd" d="M50.9016 30.4617C50.8241 30.7043 50.6601 30.8195 50.4098 30.8069C50.4873 30.5642 50.6513 30.4491 50.9016 30.4617Z" fill="#415F4F"/>
</g>
<g id="Group_33">
<path id="Vector_33" opacity="0.01" fill-rule="evenodd" clip-rule="evenodd" d="M49.0984 30.2891C49.3487 30.2765 49.5127 30.3916 49.5902 30.6343C49.3399 30.6469 49.1759 30.5317 49.0984 30.2891Z" fill="#3B515A"/>
</g>
<g id="Group_34">
<path id="Vector_34" opacity="0.736" fill-rule="evenodd" clip-rule="evenodd" d="M47.623 30.9794C47.9481 31.147 48.2759 31.3196 48.6066 31.4972C49.5132 31.7613 49.841 32.3941 49.5902 33.3957C48.9059 32.949 48.1956 32.5464 47.4591 32.1875C47.0478 31.9423 46.6651 31.6546 46.3115 31.3246C46.7096 31.4475 47.092 31.6201 47.4591 31.8424C47.8204 31.6211 47.8751 31.3334 47.623 30.9794Z" fill="#394C5D"/>
</g>
<g id="Group_35">
<path id="Vector_35" opacity="0.565" fill-rule="evenodd" clip-rule="evenodd" d="M53.3607 31.6698C53.2832 31.9125 53.1192 32.0276 52.8689 32.015C52.9464 31.7723 53.1104 31.6572 53.3607 31.6698Z" fill="#D5F223" fill-opacity="0.8"/>
</g>
<g id="Group_36">
<path id="Vector_36" opacity="0.053" fill-rule="evenodd" clip-rule="evenodd" d="M50.9017 32.015C50.8533 32.4007 50.908 32.7459 51.0656 33.0505C51.0558 33.1442 51.0012 33.2017 50.9017 33.2231C50.689 32.7963 50.689 32.3934 50.9017 32.015Z" fill="#3A4B60"/>
</g>
<g id="Group_37">
<path id="Vector_37" fill-rule="evenodd" clip-rule="evenodd" d="M52.8689 32.015C52.5939 32.5526 52.6485 33.0129 53.0328 33.3957C52.9553 33.6383 52.7913 33.7534 52.541 33.7408C52.5679 33.2771 52.5405 32.8168 52.459 32.3601C52.349 32.4899 52.2125 32.5476 52.0492 32.5327C52.2392 32.2307 52.5125 32.0581 52.8689 32.015Z" fill="#D5F223" fill-opacity="0.8"/>
</g>
<g id="Group_38">
<path id="Vector_38" fill-rule="evenodd" clip-rule="evenodd" d="M47.459 32.1876C48.1956 32.5464 48.9059 32.949 49.5901 33.3957C49.5515 33.9322 49.6061 34.45 49.7541 34.949C48.9344 34.5755 48.1693 34.1152 47.459 33.5683C47.2513 33.0898 47.2513 32.6296 47.459 32.1876Z" fill="#D5F223" fill-opacity="0.8"/>
</g>
<g id="Group_39">
<path id="Vector_39" opacity="0.997" fill-rule="evenodd" clip-rule="evenodd" d="M47.6229 37.7104C48.3557 37.5402 49.1208 37.4827 49.918 37.5378C50.8059 43.6734 51.1883 43.6734 51.0655 37.5378C51.6119 37.5378 52.1585 37.5378 52.7049 37.5378C52.7323 41.4502 52.7049 45.3622 52.6229 49.2737C51.9672 49.5038 51.3114 49.5038 50.6557 49.2737C50.2733 47.4327 49.8906 45.5919 49.5082 43.7509C49.4262 45.6485 49.3988 47.547 49.4262 49.4463C48.889 49.4953 48.37 49.4378 47.8688 49.2737C47.8413 45.3898 47.7593 41.5354 47.6229 37.7104Z" fill="#C1DCE7"/>
</g>
<g id="Group_40">
<path id="Vector_40" opacity="0.997" fill-rule="evenodd" clip-rule="evenodd" d="M62.8689 45.6494C62.7064 46.8252 62.6517 48.0333 62.7049 49.2737C62.2677 49.2737 61.8307 49.2737 61.3935 49.2737C61.4467 48.0333 61.392 46.8252 61.2295 45.6494C60.6574 43.2399 60.0836 40.8236 59.5082 38.4007C59.4635 38.085 59.3267 37.8261 59.0984 37.624C59.7518 37.5379 60.4076 37.5091 61.0656 37.5378C61.3177 39.0596 61.6728 40.5553 62.1312 42.025C62.4331 40.5805 62.761 39.1423 63.1148 37.7103C63.6812 37.4875 64.2549 37.4875 64.8361 37.7103C64.1794 40.3608 63.5236 43.0072 62.8689 45.6494Z" fill="#C6E1EC"/>
</g>
<g id="Group_41">
<path id="Vector_41" opacity="0.995" fill-rule="evenodd" clip-rule="evenodd" d="M38.7706 41.6799C38.7706 40.8744 38.7706 40.0691 38.7706 39.2636C38.0581 39.235 37.3478 39.2638 36.6394 39.3499C36.7286 39.4737 36.8379 39.56 36.9673 39.6088C36.9673 42.1976 36.9673 44.7864 36.9673 47.3752C37.5348 47.5447 38.136 47.6022 38.7706 47.5478C38.8242 45.9631 38.7694 44.4098 38.6066 42.888C38.3225 42.8003 38.2679 42.6565 38.4427 42.4565C39.0314 42.3203 39.6051 42.3492 40.164 42.5428C40.2987 44.8282 40.2714 47.1007 40.082 49.36C38.8251 49.4751 37.5684 49.4751 36.3115 49.36C35.985 49.2609 35.7391 49.0595 35.5738 48.7559C35.4645 45.1891 35.4645 41.6224 35.5738 38.0555C35.7104 37.9118 35.8471 37.7678 35.9837 37.6241C37.2406 37.5089 38.4973 37.5089 39.7542 37.6241C39.951 37.7799 40.0878 37.9811 40.164 38.2281C40.246 39.3772 40.2732 40.5278 40.246 41.6799C39.7542 41.6799 39.2624 41.6799 38.7706 41.6799Z" fill="#C7E2ED"/>
</g>
<g id="Group_42">
<path id="Vector_42" opacity="0.997" fill-rule="evenodd" clip-rule="evenodd" d="M42.377 37.7103C43.3295 37.5395 44.3131 37.482 45.3279 37.5377C45.857 41.4953 46.2943 45.4648 46.6393 49.4463C46.1357 49.501 45.6439 49.4435 45.1639 49.2737C45.0546 48.7559 44.9454 48.2381 44.8361 47.7204C44.2447 47.5497 43.6436 47.4921 43.0328 47.5478C43.0454 48.189 42.9908 48.8217 42.8688 49.4463C42.377 49.4463 41.8852 49.4463 41.3934 49.4463C41.6977 45.786 42.0803 42.133 42.541 38.487C42.5397 38.1924 42.4849 37.9335 42.377 37.7103ZM43.8524 40.8169C44.1016 41.1773 44.2656 41.5801 44.3443 42.025C44.3613 43.2433 44.4706 44.4514 44.6721 45.6493C44.2349 45.6493 43.7979 45.6493 43.3606 45.6493C43.5246 44.0384 43.6885 42.4275 43.8524 40.8169Z" fill="#C5E0EB"/>
</g>
<g id="Group_43">
<path id="Vector_43" opacity="0.998" fill-rule="evenodd" clip-rule="evenodd" d="M56.9672 39.4362C56.3425 39.2386 55.6867 39.2098 55 39.3499C55.0892 39.4737 55.1985 39.56 55.3279 39.6088C55.2761 40.2091 55.358 40.7845 55.5738 41.3347C56.5574 42.6003 57.541 43.866 58.5246 45.1316C58.6636 46.4086 58.609 47.6744 58.3607 48.9285C57.6872 49.3579 56.9495 49.5305 56.1475 49.4463C55.4605 49.4836 54.8048 49.3686 54.1803 49.1011C54.0026 48.9001 53.8661 48.67 53.7705 48.4108C53.6887 47.4921 53.6613 46.5717 53.6885 45.6494C54.2377 45.6209 54.7841 45.6497 55.3279 45.7357C55.357 46.2457 55.357 46.7921 55.3279 47.3753C55.8743 47.3753 56.4208 47.3753 56.9672 47.3753C56.9943 46.7971 56.9669 46.2219 56.8852 45.6494C55.847 44.3262 54.8087 43.0031 53.7705 41.6799C53.6611 40.5869 53.6611 39.4937 53.7705 38.4007C53.8661 38.1415 54.0026 37.9114 54.1803 37.7104C55.429 37.5148 56.6859 37.486 57.9508 37.6241C58.2849 37.8374 58.4762 38.1537 58.5246 38.5733C58.6339 39.3788 58.6339 40.1841 58.5246 40.9895C58.0234 41.1537 57.5044 41.2111 56.9672 41.1621C56.9672 40.5869 56.9672 40.0115 56.9672 39.4362Z" fill="#C1DCE8"/>
</g>
<g id="Group_44">
<path id="Vector_44" opacity="0.169" fill-rule="evenodd" clip-rule="evenodd" d="M56.9672 39.4362C56.3866 39.3822 55.8402 39.4399 55.3279 39.6088C55.1985 39.56 55.0892 39.4737 55 39.3499C55.6867 39.2098 56.3425 39.2386 56.9672 39.4362Z" fill="#526479"/>
</g>
<g id="Group_45">
<path id="Vector_45" opacity="0.46" fill-rule="evenodd" clip-rule="evenodd" d="M38.7704 41.6799C38.609 40.9664 38.5544 40.2184 38.6065 39.4362C38.0258 39.3822 37.4794 39.4399 36.9672 39.6088C36.8378 39.56 36.7285 39.4737 36.6393 39.3499C37.3476 39.2638 38.058 39.235 38.7704 39.2636C38.7704 40.0691 38.7704 40.8744 38.7704 41.6799Z" fill="#758A9C"/>
</g>
<g id="Group_46">
<path id="Vector_46" opacity="0.314" fill-rule="evenodd" clip-rule="evenodd" d="M44.3442 42.025C44.2655 41.5801 44.1016 41.1773 43.8524 40.8169C43.8019 40.3986 43.8567 39.9959 44.0163 39.6088C44.2327 40.3982 44.3421 41.2035 44.3442 42.025Z" fill="#6B8093"/>
</g>
<g id="Group_47">
<path id="Vector_47" opacity="0.45" fill-rule="evenodd" clip-rule="evenodd" d="M38.6065 42.8879C38.7693 44.4098 38.824 45.9631 38.7704 47.5478C38.1359 47.6022 37.5347 47.5447 36.9672 47.3752C37.5136 47.3752 38.0601 47.3752 38.6065 47.3752C38.6065 45.8794 38.6065 44.3838 38.6065 42.8879Z" fill="#7990A1"/>
</g>
<g id="Group_48">
<path id="Vector_48" opacity="0.402" fill-rule="evenodd" clip-rule="evenodd" d="M61.2295 45.6494C61.392 46.8252 61.4467 48.0333 61.3934 49.2737C61.8306 49.2737 62.2677 49.2737 62.7049 49.2737C62.6516 48.0333 62.7064 46.8252 62.8688 45.6494C62.89 46.8764 62.89 48.142 62.8688 49.4463C62.3224 49.4463 61.7759 49.4463 61.2295 49.4463C61.2295 48.1807 61.2295 46.9149 61.2295 45.6494Z" fill="#768C9E"/>
</g>
<g id="Group_49">
<path id="Vector_49" opacity="0.024" fill-rule="evenodd" clip-rule="evenodd" d="M63.8524 49.9641C64.0709 50.0792 64.0709 50.0792 63.8524 49.9641V49.9641Z" fill="#4D5C70"/>
</g>
<g id="Group_50">
<path id="Vector_50" opacity="0.259" fill-rule="evenodd" clip-rule="evenodd" d="M63.8529 50.1366C63.743 50.2517 63.743 50.2517 63.8529 50.1366V50.1366Z" fill="#6B7888"/>
</g>
<g id="Group_51">
<path id="Vector_51" opacity="0.148" fill-rule="evenodd" clip-rule="evenodd" d="M46.6393 57.0401C46.1962 56.75 45.7592 56.4625 45.3279 56.1772C45.1652 56.2069 45.0561 56.1492 45 56.0046C45.168 55.9361 45.1954 55.8211 45.082 55.6594C44.3728 55.0854 43.717 54.4525 43.1147 53.761C42.9623 53.1828 43.0988 52.6939 43.5246 52.294C42.8595 51.958 42.6136 51.4114 42.7869 50.6544C43.0164 50.5481 43.2623 50.4906 43.5246 50.4818C44.6152 50.5968 45.708 50.683 46.8033 50.7407C47.2246 51.2098 47.2246 51.6701 46.8033 52.1214C46.1834 52.053 45.5551 51.9668 44.918 51.8625C43.9047 51.8308 43.7956 52.1185 44.5902 52.7254C45.0321 54.3944 46.0977 55.2285 47.7869 55.228C48.298 55.4107 48.7898 55.6408 49.2623 55.9183C50.031 55.9685 50.7961 55.9685 51.5574 55.9183C51.9987 56.3726 51.9441 56.7754 51.3934 57.1264C51.1749 57.2415 50.9562 57.3565 50.7377 57.4716C49.357 57.6592 48.0728 57.4003 46.8852 56.695C46.7677 56.7888 46.6857 56.904 46.6393 57.0401Z" fill="#33445B"/>
</g>
<g id="Group_52">
<path id="Vector_52" opacity="0.745" fill-rule="evenodd" clip-rule="evenodd" d="M63.6886 50.3092C62.4361 51.3715 61.1246 52.3495 59.7541 53.2432C59.6981 53.0986 59.5889 53.0409 59.4263 53.0706C60.7909 52.0641 62.2117 51.1437 63.6886 50.3092Z" fill="#A6ADB8"/>
</g>
<g id="Group_53">
<path id="Vector_53" opacity="0.997" fill-rule="evenodd" clip-rule="evenodd" d="M45 56.0046C45.0561 56.1492 45.1653 56.2069 45.3279 56.1772C45.7592 56.4625 46.1962 56.75 46.6394 57.0401C47.8185 57.7044 48.9935 58.3948 50.1639 59.1112C53.192 56.9857 56.2794 54.9723 59.4262 53.0706C59.5889 53.0409 59.698 53.0986 59.7541 53.2432C56.6259 55.7833 53.4018 58.1996 50.082 60.4919C45.6235 57.3226 41.1425 54.1872 36.6394 51.0858C36.4433 50.973 36.4433 50.8867 36.6394 50.827C39.4636 52.5138 42.2505 54.2397 45 56.0046Z" fill="#D5D8DD"/>
</g>
</g>
</svg>
