<svg width="50" height="50" viewBox="0 0 50 50" fill="none" xmlns="http://www.w3.org/2000/svg">
<path d="M22.8331 0.807365L17.8373 5.15738H25.0018V1.72514e-05C24.2286 -0.00248228 23.4546 0.266634 22.8331 0.807365Z" fill="#FDF0BC"/>
<path d="M27.1431 0.802349C26.5282 0.269949 25.7659 0.00249953 25.0027 0V5.15736H32.1672L27.1431 0.802349Z" fill="url(#paint0_linear_575_16947)"/>
<path d="M7.57452 7.93937L6.54388 14.4831L12.032 9.87817L8.71681 5.92725C8.12275 6.42215 7.70283 7.12619 7.57452 7.93937Z" fill="#FDF0BC"/>
<path d="M10.8728 5.16561C10.0596 5.15228 9.30307 5.43806 8.71735 5.92713L12.0326 9.87805L17.5207 5.27309L10.8728 5.16561Z" fill="url(#paint1_linear_575_16947)"/>
<path d="M0.470662 23.2114L3.88669 28.887L5.13062 21.8317L0.052407 20.9352C-0.0850671 21.6967 0.0457416 22.5057 0.470662 23.2114Z" fill="#FDF0BC"/>
<path d="M1.21382 18.9664C0.583101 19.4796 0.187343 20.1845 0.0523682 20.9352L5.13141 21.8308L6.37534 14.7755L1.21382 18.9664Z" fill="url(#paint2_linear_575_16947)"/>
<path d="M4.84476 39.4767L11.1103 41.628L7.52843 35.4233L3.06177 38.002C3.44586 38.6736 4.06574 39.2093 4.84476 39.4767Z" fill="url(#paint3_linear_575_16947)"/>
<path d="M2.68591 35.7473C2.53177 36.5455 2.68175 37.3403 3.06084 38.0027L7.5275 35.424L3.94568 29.2194L2.68591 35.7473Z" fill="url(#paint4_linear_575_16947)"/>
<path d="M18.6505 49.125L24.8327 46.7463L18.1006 44.2959L16.3368 49.1425C17.0625 49.4091 17.8823 49.4208 18.6505 49.125Z" fill="url(#paint5_linear_575_16947)"/>
<path d="M14.5996 47.6552C14.9945 48.3659 15.6202 48.8783 16.3368 49.1416L18.1006 44.295L11.3685 41.8446L14.5996 47.6552Z" fill="url(#paint6_linear_575_16947)"/>
<path d="M35.429 47.6419L38.6359 41.8455L31.9039 44.2958L33.6677 49.1424C34.3942 48.88 35.0299 48.3626 35.429 47.6419Z" fill="url(#paint7_linear_575_16947)"/>
<path d="M31.3806 49.12C32.1404 49.4107 32.9486 49.4007 33.6668 49.1416L31.903 44.295L25.1709 46.7454L31.3806 49.12Z" fill="url(#paint8_linear_575_16947)"/>
<path d="M47.3277 35.7206L46.0588 29.2194L42.4769 35.424L46.9436 38.0027C47.3318 37.3337 47.486 36.5288 47.3277 35.7206Z" fill="url(#paint9_linear_575_16947)"/>
<path d="M45.1773 39.4551C45.9455 39.1893 46.5587 38.6619 46.9428 38.002L42.4761 35.4233L38.8943 41.628L45.1773 39.4551Z" fill="url(#paint10_linear_575_16947)"/>
<path d="M48.7799 18.9397L43.6284 14.7755L44.8723 21.8308L49.9513 20.9352C49.8205 20.1737 49.4206 19.458 48.7799 18.9397Z" fill="url(#paint11_linear_575_16947)"/>
<path d="M49.5329 23.1831C49.9512 22.4857 50.082 21.6875 49.9512 20.9352L44.8721 21.8308L46.1161 28.8862L49.5329 23.1831Z" fill="url(#paint12_linear_575_16947)"/>
<path d="M39.1069 5.15143L32.484 5.27224L37.9721 9.87721L41.2874 5.92628C40.6966 5.42804 39.9309 5.13643 39.1069 5.15143Z" fill="url(#paint13_linear_575_16947)"/>
<path d="M42.4113 7.91868C42.283 7.1155 41.8705 6.42063 41.2873 5.92822L37.9721 9.87915L43.4602 14.4841L42.4113 7.91868Z" fill="url(#paint14_linear_575_16947)"/>
<path d="M25.0018 42.8318C34.665 42.8318 42.4985 34.9982 42.4985 25.3351C42.4985 15.6719 34.665 7.83838 25.0018 7.83838C15.3387 7.83838 7.50513 15.6719 7.50513 25.3351C7.50513 34.9982 15.3387 42.8318 25.0018 42.8318Z" fill="url(#paint15_radial_575_16947)"/>
<path d="M25.0019 6.27539C14.4755 6.27539 5.94214 14.8079 5.94214 25.3343C5.94214 35.8606 14.4755 44.394 25.0019 44.394C35.5282 44.394 44.0616 35.8606 44.0616 25.3343C44.0616 14.8079 35.5282 6.27539 25.0019 6.27539ZM25.0019 42.8293C15.3395 42.8293 7.50684 34.9966 7.50684 25.3343C7.50684 15.672 15.3395 7.83926 25.0019 7.83926C34.6642 7.83926 42.4969 15.672 42.4969 25.3343C42.4969 34.9966 34.6642 42.8293 25.0019 42.8293Z" fill="url(#paint16_linear_575_16947)"/>
<path d="M25.0019 3.84363C13.1325 3.84363 3.51099 13.4651 3.51099 25.3346C3.51099 37.204 13.1325 46.8255 25.0019 46.8255C36.8714 46.8255 46.4929 37.204 46.4929 25.3346C46.4929 13.4651 36.8714 3.84363 25.0019 3.84363ZM25.0019 44.3852C14.4806 44.3852 5.95136 35.8559 5.95136 25.3346C5.95136 14.8132 14.4806 6.28483 25.0019 6.28483C35.5233 6.28483 44.0525 14.8141 44.0525 25.3354C44.0525 35.8568 35.5233 44.3852 25.0019 44.3852Z" fill="url(#paint17_linear_575_16947)"/>
<path d="M20.1776 34.1026C19.886 34.1026 19.6152 34.0093 19.3761 33.8427C19.3452 33.8219 19.3244 33.801 19.3036 33.7802C19.2828 33.7702 19.2719 33.7494 19.2619 33.7385C19.2203 33.7069 19.1994 33.676 19.1686 33.6452C19.1478 33.6244 19.137 33.6036 19.117 33.5827L19.107 33.5727C19.0861 33.5519 19.0753 33.5311 19.0653 33.5102L19.0445 33.4786C19.0028 33.4161 18.972 33.3536 18.9403 33.2911C18.9303 33.2603 18.9195 33.2286 18.9087 33.1978C18.8987 33.1661 18.8878 33.1253 18.8778 33.0937C18.867 33.052 18.857 33.0003 18.8462 32.9479C18.8462 32.927 18.8362 32.8962 18.8362 32.8754C18.8362 32.8337 18.8262 32.792 18.8262 32.7504C18.8262 32.6779 18.8362 32.6046 18.847 32.5213L19.6485 27.8588L16.2658 24.5594C16.2033 24.4969 16.1408 24.4245 16.0892 24.3511C16.0267 24.2578 15.985 24.1845 15.9542 24.1012C15.9442 24.0704 15.9234 24.0287 15.9126 23.9762C15.8809 23.8512 15.8609 23.7263 15.8609 23.5913C15.8609 23.5496 15.8609 23.5188 15.8609 23.4771C15.8609 23.4146 15.8709 23.3522 15.8917 23.2897C15.8917 23.2797 15.9017 23.2588 15.9017 23.248C15.9126 23.2164 15.9126 23.1855 15.9226 23.1547C15.9226 23.1447 15.9326 23.123 15.9434 23.0922C15.9534 23.0605 15.9642 23.0297 15.985 22.9989C16.0159 22.9364 16.0475 22.8739 16.0992 22.8014C16.12 22.7598 16.1508 22.7289 16.1825 22.6973C16.1825 22.6973 16.1825 22.6873 16.1925 22.6873L16.3591 22.4165H16.5049C16.5258 22.4057 16.5358 22.3957 16.5566 22.3848C16.5774 22.3748 16.6191 22.354 16.6499 22.3332C16.6916 22.3124 16.7432 22.2915 16.8057 22.2707C16.8266 22.2607 16.8574 22.2499 16.889 22.2499C16.9307 22.2399 16.9724 22.229 17.024 22.2182L21.7073 21.5417L23.7677 17.3266C23.9969 16.8584 24.4651 16.5668 24.985 16.5668C25.3599 16.5668 25.724 16.7226 25.984 16.9934C26.0257 17.045 26.0673 17.0867 26.0981 17.1392C26.1398 17.2017 26.1815 17.2641 26.2123 17.3266L28.3044 21.5517L32.9768 22.2282C33.4976 22.3007 33.9242 22.6656 34.08 23.1647C34.0908 23.1964 34.1008 23.2164 34.1008 23.248C34.1008 23.258 34.1008 23.258 34.1108 23.2688C34.1208 23.3005 34.1316 23.3313 34.1316 23.373C34.1316 23.383 34.1316 23.383 34.1316 23.3938C34.1416 23.4355 34.1416 23.4663 34.1416 23.508C34.1525 23.7054 34.1208 23.9137 34.0375 24.1012C34.0058 24.1845 33.965 24.257 33.9125 24.3303L33.9017 24.3403C33.85 24.4128 33.7875 24.4861 33.725 24.5486L30.3423 27.848L31.1439 32.4996C31.2272 33.0095 31.0297 33.5194 30.6023 33.8319C30.4981 33.9043 30.3732 33.9777 30.2482 34.0193C30.2374 34.0193 30.2274 34.0301 30.2065 34.0301C30.0716 34.0718 29.9357 34.0926 29.8008 34.0926C29.5825 34.0926 29.3634 34.041 29.1659 33.9368L24.9825 31.7406L20.7991 33.9368C20.6142 34.051 20.3959 34.1026 20.1776 34.1026Z" fill="#DF771E"/>
<path d="M24.9851 17.2325V25.8393L22.1123 22.1658L24.3602 17.6183C24.496 17.3684 24.746 17.2325 24.9851 17.2325Z" fill="#FFFAF6"/>
<path d="M33.4461 23.3839L24.9952 25.8401L27.8671 22.1666L32.8837 22.8948C33.1653 22.9465 33.3628 23.1439 33.4461 23.3839Z" fill="#FEE0AC"/>
<path d="M30.2103 33.3012L24.9863 25.8392L29.628 27.6189L30.4811 32.6146C30.5428 32.9062 30.4178 33.1554 30.2103 33.3012Z" fill="#ECB76B"/>
<path d="M24.9852 25.8392V30.9908L20.4994 33.3528C20.2395 33.4878 19.9687 33.4461 19.7604 33.3012L24.9852 25.8392Z" fill="#F1A341"/>
<path d="M27.858 22.1658L24.9852 25.8393V17.2325C25.1726 17.2325 25.3601 17.305 25.4951 17.4508C25.5159 17.4717 25.5367 17.5025 25.5576 17.5342C25.5784 17.5658 25.5992 17.5966 25.6092 17.6275L27.858 22.1658Z" fill="#FFE9BA"/>
<path d="M33.4255 23.8523C33.4047 23.8939 33.3839 23.9356 33.363 23.9773C33.3314 24.0189 33.3005 24.0498 33.2697 24.0914L29.6379 27.6299L24.9963 25.8502L33.4472 23.394C33.4472 23.404 33.4572 23.4149 33.4572 23.4257C33.4572 23.4365 33.468 23.4465 33.468 23.4674C33.468 23.4782 33.468 23.4782 33.468 23.4782C33.468 23.4882 33.468 23.499 33.468 23.509C33.468 23.5299 33.468 23.5407 33.468 23.5607C33.478 23.654 33.4672 23.7581 33.4255 23.8523Z" fill="#E49632"/>
<path d="M30.21 33.3012C30.1584 33.3428 30.0959 33.3736 30.0226 33.3945C30.0126 33.3945 30.0126 33.3945 30.0017 33.4045C29.8351 33.4561 29.6476 33.4461 29.471 33.3528L24.9852 30.9908V25.8392L30.21 33.3012Z" fill="#E29136"/>
<path d="M24.9851 25.8392L19.7611 33.3012C19.7511 33.2903 19.7403 33.2803 19.7303 33.2695C19.7203 33.2595 19.7094 33.2487 19.6986 33.2378C19.6886 33.2278 19.6778 33.217 19.657 33.1962C19.6461 33.1862 19.6361 33.1753 19.6253 33.1645C19.6145 33.1537 19.6153 33.1545 19.6153 33.1437C19.6053 33.1337 19.5945 33.1229 19.5945 33.112C19.5736 33.0812 19.5528 33.0495 19.5428 33.0187C19.5328 33.0087 19.5328 32.9871 19.522 32.9671C19.512 32.9462 19.512 32.9354 19.5011 32.9154C19.4911 32.8946 19.4911 32.8637 19.4911 32.8429C19.4911 32.8329 19.4911 32.8113 19.4911 32.8013C19.4911 32.7804 19.4911 32.7596 19.4911 32.7388C19.4911 32.6971 19.4911 32.6554 19.5011 32.6138L20.3543 27.6181L24.9851 25.8392Z" fill="#FED891"/>
<path d="M24.9853 25.8394L16.5344 23.3832C16.5344 23.3732 16.5444 23.3623 16.5444 23.3515C16.5544 23.3307 16.5544 23.3099 16.5652 23.2999C16.586 23.2582 16.6069 23.2274 16.6277 23.1957C16.6377 23.1749 16.6485 23.1641 16.6693 23.1441C16.6802 23.1341 16.6902 23.1124 16.711 23.1024C16.721 23.0924 16.7427 23.0716 16.7527 23.0607C16.7627 23.0499 16.7835 23.0399 16.7943 23.0291C16.8151 23.0191 16.836 22.9974 16.8568 22.9874C16.8668 22.9774 16.8876 22.9666 16.9085 22.9666C16.9401 22.9566 16.9601 22.9458 16.9918 22.9349C17.0018 22.9349 17.0126 22.9249 17.0334 22.9249C17.0543 22.9149 17.0851 22.9149 17.1168 22.9041L22.1333 22.1759L24.9853 25.8394Z" fill="#FFF3D9"/>
<path d="M24.9856 25.8395L20.3548 27.6292L16.7229 24.0907C16.6813 24.059 16.6605 24.0182 16.6296 23.9765C16.6088 23.9349 16.578 23.8932 16.5671 23.8515C16.5571 23.8307 16.5463 23.8099 16.5463 23.789C16.5255 23.7266 16.5146 23.6541 16.5146 23.5916C16.5146 23.5708 16.5146 23.5499 16.5146 23.5291C16.5146 23.4983 16.5146 23.4774 16.5255 23.4458C16.5255 23.4358 16.5355 23.4249 16.5355 23.4041C16.5355 23.3941 16.5455 23.3833 16.5455 23.3733L24.9856 25.8395Z" fill="#ECB76B"/>
<defs>
<linearGradient id="paint0_linear_575_16947" x1="25.353" y1="2.57868" x2="31.932" y2="2.57868" gradientUnits="userSpaceOnUse">
<stop stop-color="#FEE998"/>
<stop offset="1" stop-color="#FCC15B"/>
</linearGradient>
<linearGradient id="paint1_linear_575_16947" x1="10.7206" y1="7.61078" x2="17.2866" y2="2.10084" gradientUnits="userSpaceOnUse">
<stop stop-color="#FEE998"/>
<stop offset="1" stop-color="#FCC15B"/>
</linearGradient>
<linearGradient id="paint2_linear_575_16947" x1="6.49286" y1="14.7608" x2="2.78767" y2="20.8478" gradientUnits="userSpaceOnUse">
<stop stop-color="#FCC15B"/>
<stop offset="1" stop-color="#FEE998"/>
</linearGradient>
<linearGradient id="paint3_linear_575_16947" x1="4.75102" y1="36.5683" x2="11.191" y2="40.8028" gradientUnits="userSpaceOnUse">
<stop stop-color="#FFC05F"/>
<stop offset="1" stop-color="#ED892B"/>
</linearGradient>
<linearGradient id="paint4_linear_575_16947" x1="4.01912" y1="29.3544" x2="5.16596" y2="36.5883" gradientUnits="userSpaceOnUse">
<stop stop-color="#FCC15B"/>
<stop offset="1" stop-color="#FEE998"/>
</linearGradient>
<linearGradient id="paint5_linear_575_16947" x1="17.5411" y1="46.8055" x2="23.8929" y2="48.217" gradientUnits="userSpaceOnUse">
<stop stop-color="#FEAC3E"/>
<stop offset="1" stop-color="#F08223"/>
</linearGradient>
<linearGradient id="paint6_linear_575_16947" x1="11.0509" y1="41.7893" x2="16.8733" y2="46.5531" gradientUnits="userSpaceOnUse">
<stop stop-color="#FFA135"/>
<stop offset="1" stop-color="#FEB431"/>
</linearGradient>
<linearGradient id="paint7_linear_575_16947" x1="38.6612" y1="41.804" x2="32.8535" y2="46.8031" gradientUnits="userSpaceOnUse">
<stop stop-color="#FFAA3D"/>
<stop offset="1" stop-color="#ED8B1C"/>
</linearGradient>
<linearGradient id="paint8_linear_575_16947" x1="25.1964" y1="47.2094" x2="32.6068" y2="46.7977" gradientUnits="userSpaceOnUse">
<stop stop-color="#FF962D"/>
<stop offset="1" stop-color="#E56005"/>
</linearGradient>
<linearGradient id="paint9_linear_575_16947" x1="46.3311" y1="29.2454" x2="44.8412" y2="36.499" gradientUnits="userSpaceOnUse">
<stop stop-color="#FDBD41"/>
<stop offset="1" stop-color="#FEB334"/>
</linearGradient>
<linearGradient id="paint10_linear_575_16947" x1="48.2833" y1="30.5226" x2="41.1189" y2="42.9313" gradientUnits="userSpaceOnUse">
<stop stop-color="#F6942F"/>
<stop offset="1" stop-color="#EA6F11"/>
</linearGradient>
<linearGradient id="paint11_linear_575_16947" x1="43.2687" y1="14.9841" x2="47.5816" y2="21.3751" gradientUnits="userSpaceOnUse">
<stop stop-color="#FDBD41"/>
<stop offset="1" stop-color="#FEB334"/>
</linearGradient>
<linearGradient id="paint12_linear_575_16947" x1="45.8476" y1="28.8681" x2="47.5335" y2="21.4186" gradientUnits="userSpaceOnUse">
<stop stop-color="#FD9D24"/>
<stop offset="1" stop-color="#FF9515"/>
</linearGradient>
<linearGradient id="paint13_linear_575_16947" x1="39.5466" y1="7.80461" x2="32.8812" y2="4.58954" gradientUnits="userSpaceOnUse">
<stop stop-color="#FCC15B"/>
<stop offset="1" stop-color="#FEE998"/>
</linearGradient>
<linearGradient id="paint14_linear_575_16947" x1="39.5787" y1="7.39664" x2="42.7546" y2="14.4541" gradientUnits="userSpaceOnUse">
<stop stop-color="#FF9515"/>
<stop offset="1" stop-color="#FFBE41"/>
</linearGradient>
<radialGradient id="paint15_radial_575_16947" cx="0" cy="0" r="1" gradientUnits="userSpaceOnUse" gradientTransform="translate(25.002 25.3347) scale(17.4967 17.4967)">
<stop offset="0.8428" stop-color="#FAAA31"/>
<stop offset="1" stop-color="#F57E16"/>
</radialGradient>
<linearGradient id="paint16_linear_575_16947" x1="25.002" y1="6.27507" x2="25.002" y2="44.3945" gradientUnits="userSpaceOnUse">
<stop offset="0.0226" stop-color="#FD9A18"/>
<stop offset="0.3764" stop-color="#FEC752"/>
<stop offset="1" stop-color="#FFA422"/>
</linearGradient>
<linearGradient id="paint17_linear_575_16947" x1="25.0021" y1="3.78064" x2="25.0021" y2="46.7627" gradientUnits="userSpaceOnUse">
<stop stop-color="#FFDB69"/>
<stop offset="0.1799" stop-color="#FEE7B0"/>
<stop offset="0.24" stop-color="#FEE9BA"/>
<stop offset="0.2592" stop-color="#FDECD0"/>
<stop offset="0.2953" stop-color="#FEDA92"/>
<stop offset="0.3254" stop-color="#FFCD64"/>
<stop offset="0.3405" stop-color="#FFC853"/>
<stop offset="0.7613" stop-color="#FF9114"/>
<stop offset="1" stop-color="#F57E16"/>
</linearGradient>
</defs>
</svg>
