<svg width="20" height="20" viewBox="0 0 20 20" fill="none" xmlns="http://www.w3.org/2000/svg">
<circle opacity="0.4" cx="10" cy="10" r="10" fill="#D5F223" fill-opacity="0.8"/>
<path fill-rule="evenodd" clip-rule="evenodd" d="M10 5.75C9.30964 5.75 8.75 6.30964 8.75 7C8.75 7.41421 8.41421 7.75 8 7.75C7.58579 7.75 7.25 7.41421 7.25 7C7.25 5.48122 8.48122 4.25 10 4.25C11.5188 4.25 12.75 5.48122 12.75 7C12.75 7.54634 12.5899 8.05757 12.3138 8.48663C12.1409 8.75537 11.9387 9.01194 11.7523 9.24363C11.7182 9.28601 11.6847 9.32749 11.6518 9.36825C11.4971 9.5597 11.3551 9.73544 11.2239 9.91577C10.9003 10.3605 10.75 10.6947 10.75 11V11.5C10.75 11.9142 10.4142 12.25 10 12.25C9.58579 12.25 9.25 11.9142 9.25 11.5V11C9.25 10.2007 9.64241 9.53977 10.011 9.03325C10.1667 8.81923 10.3373 8.60814 10.4925 8.41619C10.5236 8.37775 10.554 8.34007 10.5836 8.30329C10.7688 8.07313 10.9265 7.87065 11.0524 7.67495C11.1774 7.48068 11.25 7.24996 11.25 7C11.25 6.30964 10.6904 5.75 10 5.75Z" fill="#D5F223" fill-opacity="0.8"/>
<path fill-rule="evenodd" clip-rule="evenodd" d="M10 13.25C10.4142 13.25 10.75 13.5858 10.75 14V15C10.75 15.4142 10.4142 15.75 10 15.75C9.58579 15.75 9.25 15.4142 9.25 15V14C9.25 13.5858 9.58579 13.25 10 13.25Z" fill="#D5F223" fill-opacity="0.8"/>
</svg>
