<svg width="115" height="113" viewBox="0 0 115 113" fill="none" xmlns="http://www.w3.org/2000/svg">
<path opacity="0.994" fill-rule="evenodd" clip-rule="evenodd" d="M53.4244 8.44232C53.4444 8.91386 53.2977 8.98539 52.9838 8.65688C51.1658 6.13871 48.7424 4.38646 45.7137 3.40018C44.0217 2.97149 42.3328 2.61388 40.6466 2.32738C46.3149 1.6032 50.5743 3.64151 53.4244 8.44232Z" fill="#D5F223" fill-opacity="0.8"/>
<path opacity="0.982" fill-rule="evenodd" clip-rule="evenodd" d="M71.4895 2.22013C72.8133 2.18449 74.1352 2.22024 75.455 2.32741C71.7951 2.6099 68.4905 3.82573 65.5412 5.97492C64.3668 6.93684 63.4122 8.0454 62.6772 9.30059C62.4387 9.115 62.4021 8.90044 62.5671 8.65692C64.4646 5.07131 67.4387 2.92571 71.4895 2.22013Z" fill="#D5F223" fill-opacity="0.8"/>
<path opacity="0.998" fill-rule="evenodd" clip-rule="evenodd" d="M39.1043 8.44237C38.9539 8.80208 38.66 8.94513 38.2231 8.87149C36.3428 8.68478 34.7273 9.22118 33.3764 10.4807C31.6388 12.4703 30.3903 14.7232 29.6312 17.2393C29.3375 17.3108 29.3375 17.3824 29.6312 17.4539C29.3368 17.7779 29.0797 18.1355 28.8601 18.5267C28.2496 20.5732 27.7722 22.6473 27.4281 24.7489C26.629 28.4912 26.1884 32.2818 26.1063 36.1205C25.8043 38.3674 25.6207 40.6561 25.5555 42.9864C25.4086 50.782 25.4086 58.5778 25.5555 66.3734C25.7454 70.4234 26.0758 74.4286 26.5469 78.3887C26.859 80.892 27.1895 83.3953 27.5383 85.8983C27.7257 86.7866 27.9828 87.6448 28.3093 88.473C28.1163 88.4449 27.9694 88.5164 27.8687 88.6876C28.5429 90.9076 29.2403 93.1249 29.9616 95.3389C30.1808 95.4604 30.3643 95.6035 30.5124 95.768C31.09 98.0889 32.4119 100.02 34.4779 101.561C35.5686 102.56 36.8171 102.846 38.2231 102.419C38.8069 102.259 39.3943 102.045 39.9856 101.776C39.5489 100.842 38.9614 100.055 38.2231 99.4156C38.4549 99.4475 38.6752 99.4119 38.884 99.3083C37.9916 97.3631 37.1837 95.3964 36.4607 93.4079C36.0425 90.7967 35.5286 88.1505 34.9185 85.4692C33.7106 77.0696 33.0129 68.6304 32.8256 60.1512C33.2323 63.4809 33.7097 66.771 34.2576 70.0209C34.221 70.9534 34.2578 71.8831 34.3678 72.8102C35.2104 77.5886 35.9815 82.3804 36.681 87.1857C36.939 88.3632 37.2328 89.5074 37.5622 90.6186C37.701 91.3799 37.9213 92.095 38.2231 92.7642C38.2868 93.5205 38.5805 94.1642 39.1043 94.6952C38.9114 94.6671 38.7644 94.7386 38.6637 94.9098C39.3295 96.678 40.1006 98.3945 40.977 100.059C41.3409 100.252 41.6714 100.467 41.9683 100.703C41.8055 100.675 41.6586 100.711 41.5277 100.81C42.2602 101.847 43.215 102.634 44.3917 103.17C45.5291 103.346 46.6307 103.238 47.6963 102.848C46.8567 103.865 45.7552 104.366 44.3917 104.35C43.5935 104.405 42.8593 104.227 42.1886 103.814C41.4956 103.318 40.8346 102.782 40.2059 102.205C36.4087 104.624 33.0673 104.123 30.1819 100.703C28.5962 98.2582 27.3111 95.6835 26.3266 92.9788C26.458 92.9283 26.5315 92.8211 26.5469 92.6569C25.9001 90.1637 25.2392 87.6963 24.5641 85.2546C24.6838 85.2418 24.7572 85.1703 24.7844 85.0401C24.4944 84.0604 24.3476 83.0593 24.3438 82.0362C24.383 81.2591 24.2362 80.5438 23.9032 79.8906C23.7371 78.8258 23.6636 77.753 23.6829 76.6723C22.725 64.0916 22.5781 51.504 23.2423 38.9098C23.4239 35.2795 23.7911 31.6678 24.3438 28.0746C24.3284 27.9104 24.255 27.8031 24.1235 27.7527C24.6219 25.331 25.2094 22.8994 25.886 20.4577C25.8587 20.3275 25.7853 20.256 25.6656 20.2431C25.6656 20.1716 25.6656 20.1001 25.6656 20.0286C26.4035 17.2662 27.4682 14.62 28.8601 12.0899C31.1669 7.87177 34.5817 6.65595 39.1043 8.44237ZM34.0373 83.9673C34.1074 85.1289 34.1074 86.2731 34.0373 87.4002C33.8467 87.6326 33.6264 87.6682 33.3764 87.5075C32.8732 86.8473 32.4326 86.1678 32.0545 85.4692C31.2196 80.1977 30.5587 74.9054 30.0718 69.5918C30.3276 67.4488 30.8783 65.3746 31.7241 63.3696C30.7483 70.4445 31.5194 77.3104 34.0373 83.9673ZM28.7499 70.45C28.9564 73.5601 29.397 76.6353 30.0718 79.6761C30.1253 81.0553 30.272 82.4857 30.5124 83.9673C30.343 84.5283 30.2694 85.1004 30.2921 85.6837C29.2895 85.4808 28.7755 85.8741 28.7499 86.8638C28.9174 87.173 29.0641 87.4948 29.1906 87.8293C30.9076 88.6056 32.413 89.6784 33.7068 91.0477C33.8626 91.3869 34.0461 91.7088 34.2576 92.0133C34.2074 92.0989 34.1338 92.1345 34.0373 92.1205C32.0089 91.0735 30.0995 89.8576 28.3093 88.473C27.9828 87.6448 27.7257 86.7866 27.5383 85.8983C27.1895 83.3953 26.859 80.892 26.5469 78.3887C26.8378 78.4919 27.0582 78.7782 27.2078 79.247C27.3878 79.8861 27.5715 80.5298 27.7586 81.178C28.0588 81.6681 28.3893 81.7039 28.7499 81.2853C28.0978 79.7829 27.6572 78.2454 27.4281 76.6723C26.9912 73.4657 27.2483 70.3187 28.1992 67.2316C28.3314 68.3433 28.5151 69.4161 28.7499 70.45ZM30.5124 95.768C32.9347 97.2661 35.505 98.482 38.2231 99.4156C38.9614 100.055 39.5489 100.842 39.9856 101.776C39.3943 102.045 38.8069 102.259 38.2231 102.419C36.8964 102.453 35.6482 102.166 34.4779 101.561C32.4119 100.02 31.09 98.0889 30.5124 95.768Z" fill="#D5F223" fill-opacity="0.8"/>
<path opacity="0.996" fill-rule="evenodd" clip-rule="evenodd" d="M90.8764 21.1013C90.8764 21.1729 90.8764 21.2444 90.8764 21.3159C90.7449 21.3664 90.6716 21.4736 90.6561 21.6377C91.2587 23.9288 91.6627 26.2531 91.8678 28.6109C92.0258 28.7276 92.1359 28.8708 92.1983 29.04C92.0575 29.1681 91.9841 29.3469 91.978 29.5764C92.6023 34.0586 93.0429 38.5287 93.2998 42.9864C93.2998 43.2724 93.2998 43.5586 93.2998 43.8446C93.3373 52.5714 93.2639 61.2967 93.0795 70.0209C92.796 74.6846 92.3554 79.3334 91.7577 83.9673C91.464 84.0387 91.464 84.1104 91.7577 84.1818C91.1611 86.554 90.5737 88.9498 89.9952 91.3696C90.0014 91.5991 90.0748 91.7779 90.2155 91.906C89.249 94.6478 88.0374 97.2942 86.5805 99.8447C85.4126 101.577 83.8337 102.829 81.8439 103.599C79.6399 103.975 77.6572 103.51 75.8956 102.205C73.3495 104.937 70.7058 105.045 67.9646 102.527C70.9107 103.994 73.1872 103.279 74.7941 100.381C74.6632 100.282 74.5163 100.246 74.3535 100.274C74.7256 100.101 75.0926 99.8867 75.455 99.6301C76.4395 97.8568 77.174 95.9972 77.6581 94.0515C78.3954 92.0381 78.9094 89.964 79.2002 87.8293C81.0673 77.906 82.4993 67.8931 83.4962 57.791C83.5878 59.6521 83.5513 61.5117 83.386 63.3696C83.386 63.441 83.386 63.5127 83.386 63.5841C82.932 70.0739 82.3444 76.5821 81.6236 83.109C81.6681 83.6347 81.5947 84.1353 81.4033 84.6109C80.8582 87.3822 80.2709 90.1715 79.6408 92.9788C79.083 94.9345 78.4221 96.8655 77.6581 98.7719C77.6854 98.9021 77.7587 98.9735 77.8784 98.9864C77.3402 99.9054 76.7526 100.799 76.1159 101.668C76.4151 101.869 76.709 102.048 76.9971 102.205C77.4772 102.511 78.028 102.654 78.6494 102.634C79.0255 102.632 79.356 102.561 79.6408 102.419C81.1003 102.107 82.312 101.392 83.2759 100.274C84.4241 98.7523 85.3421 97.1075 86.0297 95.3389C86.0024 95.2087 85.929 95.1372 85.8094 95.1243C86.5476 94.0812 87.0984 92.9369 87.4617 91.6914C87.6344 90.4929 87.8915 89.3128 88.2328 88.1512C88.2266 87.9216 88.1532 87.7429 88.0125 87.6148C88.3608 87.2625 88.5075 86.8333 88.4531 86.3274C88.6672 84.715 88.9609 83.1414 89.3343 81.6071C89.6403 80.5839 89.7873 79.5111 89.7749 78.3887C89.782 77.1681 89.8555 75.9524 89.9952 74.7412C90.2124 73.7821 90.2858 72.7808 90.2155 71.7374C90.7874 65.1319 91.0077 58.4806 90.8764 51.7833C90.8914 48.0959 90.7445 44.4484 90.4358 40.8408C90.2001 38.6409 90.0532 36.4239 89.9952 34.1895C89.7383 31.8317 89.4815 29.4715 89.2241 27.109C89.1904 26.5402 89.0067 26.0396 88.6734 25.6071C88.8109 25.5176 88.8842 25.3745 88.8937 25.178C88.4758 23.3931 88.0719 21.605 87.682 19.814C87.6527 19.1909 87.3956 18.6902 86.9109 18.3121C86.2408 14.9677 84.625 12.1427 82.0642 9.83697C79.4243 8.42996 76.9273 8.64452 74.5738 10.4807C75.1391 11.4067 75.7266 12.3007 76.3362 13.1626C76.2047 13.2131 76.1313 13.3204 76.1159 13.4845C76.8643 15.3831 77.5986 17.2784 78.319 19.1703C78.662 21.4168 79.1026 23.7055 79.6408 26.0362C81.0321 35.5006 81.8031 45.0127 81.954 54.5726C81.6628 50.3724 81.1854 46.2243 80.522 42.1282C79.7908 36.3928 78.9464 30.6711 77.9885 24.9634C77.4807 22.6337 76.8566 20.345 76.1159 18.0975C75.6319 16.1518 74.8974 14.2923 73.9128 12.519C73.6701 12.374 73.4498 12.231 73.2519 12.0898C72.4877 9.98772 70.872 8.91493 68.4052 8.87146C68.1208 8.92237 67.9005 8.85086 67.7443 8.6569C68.0692 8.2472 68.5098 7.99687 69.0661 7.90594C71.3324 7.56052 73.1316 8.31148 74.4636 10.1588C79.4873 6.1788 83.7464 6.82248 87.2414 12.0898C88.7763 14.8656 89.8778 17.7979 90.546 20.8868C90.6304 21.0061 90.7405 21.0776 90.8764 21.1013ZM86.9109 18.3121C83.6226 16.1471 80.0977 14.4306 76.3362 13.1626C75.7266 12.3007 75.1391 11.4067 74.5738 10.4807C76.9273 8.64452 79.4243 8.42996 82.0642 9.83697C84.625 12.1427 86.2408 14.9677 86.9109 18.3121ZM89.9952 34.1895C90.0532 36.4239 90.2001 38.6409 90.4358 40.8408C90.4715 41.2757 90.4347 41.7048 90.3257 42.1282C90.2836 41.6544 90.1734 41.2253 89.9952 40.8408C89.6438 38.5416 89.0565 36.3246 88.2328 34.1895C88.1982 33.8949 88.235 33.6087 88.3429 33.3312C88.7249 33.4919 89.1288 33.5992 89.5546 33.6531C89.6793 33.8666 89.8262 34.0453 89.9952 34.1895ZM84.9282 44.7029C84.4805 46.3734 83.9297 48.0185 83.2759 49.6377C83.7515 46.223 83.8617 42.7901 83.6063 39.3389C83.768 39.0797 83.8414 38.7937 83.8266 38.4807C84.3162 38.5497 84.7202 38.4066 85.0383 38.0515C85.1617 40.2712 85.1249 42.4884 84.9282 44.7029ZM87.5718 42.7718C87.5152 43.5595 87.2949 44.2748 86.9109 44.9174C86.9098 44.0519 86.8365 43.1937 86.6906 42.3427C86.6351 41.7377 86.7453 41.1657 87.0211 40.6263C87.4624 41.2699 87.6459 41.9851 87.5718 42.7718ZM84.2673 65.5151C85.1068 68.3883 85.5475 71.3205 85.5891 74.3121C85.5891 74.4552 85.5891 74.5981 85.5891 74.7412C85.423 75.2825 85.2763 75.8545 85.1485 76.4577C85.1758 76.5879 85.2492 76.6594 85.3688 76.6722C85.0941 78.0083 84.9471 79.3671 84.9282 80.7489C84.6488 81.2649 84.5019 81.8371 84.4876 82.4653C84.4876 82.6799 84.4876 82.8945 84.4876 83.109C83.7735 84.3215 83.4065 85.6445 83.386 87.0784C83.177 87.2107 82.9934 87.1751 82.8353 86.9711C82.7073 86.1626 82.2666 85.5904 81.5134 85.2546C81.407 85.0512 81.3704 84.8366 81.4033 84.6109C81.5947 84.1353 81.6681 83.6347 81.6236 83.109C81.98 81.8609 82.2737 80.5736 82.5048 79.2469C83.0282 78.2587 83.2486 77.1859 83.1657 76.0286C83.1657 75.9571 83.1657 75.8854 83.1657 75.814C83.5001 74.9416 83.6837 74.0119 83.7165 73.0247C83.7898 70.45 83.8634 67.8753 83.9368 65.3006C84.0212 65.4199 84.1313 65.4913 84.2673 65.5151ZM87.7922 75.1703C87.6542 76.2433 87.3974 77.3161 87.0211 78.3887C86.8741 78.6747 86.7274 78.6747 86.5805 78.3887C86.4725 78.1113 86.4357 77.8251 86.4703 77.5305C86.7556 76.7222 86.9023 75.864 86.9109 74.9558C87.6448 71.1724 87.9387 71.2441 87.7922 75.1703ZM89.9952 74.7412C89.8555 75.9524 89.782 77.1681 89.7749 78.3887C89.4125 79.4044 89.2658 80.4772 89.3343 81.6071C88.9609 83.1414 88.6672 84.715 88.4531 86.3274C87.9188 85.7811 87.2579 85.4593 86.4703 85.3619C86.3472 85.2063 86.2738 85.0276 86.25 84.8255C86.7375 83.2592 87.1782 81.6856 87.5718 80.1052C88.0347 79.3978 88.3286 78.6112 88.4531 77.745C89.0776 76.3847 89.555 74.9543 89.8851 73.4538C89.9941 73.8772 90.0309 74.3063 89.9952 74.7412ZM84.7079 89.9749C83.6718 90.6216 82.6436 91.2653 81.6236 91.906C81.2872 91.8903 81.0669 92.0334 80.9627 92.3351C80.7183 92.3473 80.498 92.4187 80.3017 92.5496C80.1702 92.4992 80.0968 92.3919 80.0814 92.2278C80.6798 90.9293 81.5978 89.8923 82.8353 89.1167C83.4689 89.4274 84.093 89.7134 84.7079 89.9749ZM85.8094 95.1243C85.929 95.1372 86.0024 95.2087 86.0297 95.3389C85.3421 97.1075 84.4241 98.7523 83.2759 100.274C82.312 101.392 81.1003 102.107 79.6408 102.419C78.7554 102.388 77.8742 102.317 76.9971 102.205C76.709 102.048 76.4151 101.869 76.1159 101.668C76.7526 100.799 77.3402 99.9054 77.8784 98.9864C80.6503 97.9226 83.2939 96.6353 85.8094 95.1243Z" fill="#D5F223" fill-opacity="0.8"/>
<path opacity="0.999" fill-rule="evenodd" clip-rule="evenodd" d="M47.9166 8.22779C47.9336 8.49595 48.0805 8.67474 48.3572 8.76419C48.1484 8.86778 47.9281 8.90354 47.6963 8.87147C45.7893 8.88876 44.2838 9.67549 43.18 11.2316C43.0637 11.514 43.1739 11.657 43.5105 11.6607C43.2662 11.8302 42.9725 11.9375 42.6293 11.9826C41.6108 13.5973 40.8029 15.3138 40.2059 17.132C40.2213 17.2961 40.2947 17.4034 40.4262 17.4538C40.2127 17.6275 40.0292 17.8421 39.8754 18.0975C39.1757 20.5035 38.5882 22.9352 38.113 25.3925C36.9462 32.1662 35.9549 38.9606 35.1388 45.7757C34.8972 47.6765 34.6401 49.6075 34.3678 51.5688C34.2116 48.9072 34.3217 46.261 34.6982 43.6301C34.9516 37.9445 35.5391 32.2943 36.4607 26.6799C36.6479 25.5571 36.8683 24.4129 37.1216 23.2469C37.3474 21.7201 37.7144 20.2182 38.2231 18.7412C38.1958 18.611 38.1225 18.5395 38.0028 18.5266C38.7464 16.7126 39.4073 14.8531 39.9856 12.9481C39.7653 12.9481 39.545 12.9481 39.3247 12.9481C39.6968 12.7757 40.0638 12.5611 40.4262 12.3044C40.6886 11.6461 41.0558 11.074 41.5277 10.5879C41.9159 10.4244 42.1362 10.1383 42.1887 9.72971C43.6854 7.78163 45.5948 7.281 47.9166 8.22779Z" fill="#D5F223" fill-opacity="0.8"/>
<path opacity="0.072" fill-rule="evenodd" clip-rule="evenodd" d="M47.9167 8.22778C49.4263 9.18167 51.042 9.75382 52.7635 9.94426C51.9336 10.222 51.0523 10.3651 50.1198 10.3734C49.478 9.60298 48.6704 9.10235 47.6964 8.87146C47.9282 8.90354 48.1485 8.86777 48.3573 8.76418C48.0806 8.67473 47.9337 8.49594 47.9167 8.22778Z" fill="#D5F223" fill-opacity="0.8"/>
<path opacity="0.105" fill-rule="evenodd" clip-rule="evenodd" d="M67.7443 8.65692C67.9005 8.85088 68.1208 8.9224 68.4052 8.87148C67.5819 9.27329 66.7741 9.73817 65.9818 10.2661C66.2544 10.3159 66.4747 10.4232 66.6428 10.588C66.1504 10.6512 65.7098 10.5797 65.3209 10.3734C65.8994 9.54957 66.7071 8.97741 67.7443 8.65692Z" fill="#D5F223" fill-opacity="0.8"/>
<path opacity="0.41" fill-rule="evenodd" clip-rule="evenodd" d="M39.1044 8.44232C40.0387 8.88015 40.8831 9.45232 41.6379 10.1588C41.7939 9.96988 41.9776 9.82683 42.1887 9.72968C42.1362 10.1383 41.9159 10.4244 41.5277 10.5879C41.4279 10.3823 41.2812 10.2035 41.0871 10.0515C40.1528 9.54756 39.198 9.15421 38.2231 8.87144C38.66 8.94508 38.9539 8.80203 39.1044 8.44232Z" fill="#D5F223" fill-opacity="0.8"/>
<path opacity="0.18" fill-rule="evenodd" clip-rule="evenodd" d="M53.4244 8.44232C53.6943 8.75064 53.9146 9.10823 54.0853 9.51512C56.3234 9.65817 58.5265 9.80121 60.6945 9.94424C58.1242 9.94424 55.5541 9.94424 52.9838 9.94424C53.0796 9.55874 53.0796 9.12962 52.9838 8.65688C53.2977 8.98539 53.4444 8.91386 53.4244 8.44232Z" fill="#D5F223" fill-opacity="0.8"/>
<path fill-rule="evenodd" clip-rule="evenodd" d="M52.7634 9.94427C52.8368 9.94427 52.9103 9.94427 52.9837 9.94427C55.554 9.94427 58.1241 9.94427 60.6944 9.94427C62.2595 9.96086 63.8016 10.1039 65.3209 10.3734C65.7097 10.5797 66.1503 10.6512 66.6427 10.588C68.8863 10.9248 71.0894 11.4254 73.2519 12.0899C73.4497 12.231 73.6701 12.374 73.9128 12.519C74.8974 14.2924 75.6319 16.1519 76.1159 18.0975C74.2382 17.3688 72.3288 16.7251 70.3879 16.1665C69.9539 15.7059 69.5501 15.2053 69.1762 14.6646C69.1179 15.0213 69.228 15.3431 69.5067 15.6301C69.3758 15.7297 69.2289 15.7655 69.0661 15.7374C66.2272 15.1844 63.3632 14.8268 60.4741 14.6646C58.1241 14.3785 55.7743 14.3785 53.4243 14.6646C51.3471 14.811 49.2909 15.0971 47.2557 15.5228C46.6902 15.5703 46.176 15.7134 45.7136 15.9519C43.9128 16.3189 42.1504 16.8196 40.4262 17.4539C40.2947 17.4034 40.2214 17.2961 40.2059 17.132C40.803 15.3138 41.6108 13.5973 42.6293 11.9826C42.9725 11.9375 43.2662 11.8303 43.5105 11.6607C45.6482 11.0341 47.8512 10.605 50.1197 10.3734C51.0523 10.3651 51.9335 10.2221 52.7634 9.94427Z" fill="#070606"/>
<path fill-rule="evenodd" clip-rule="evenodd" d="M39.3248 12.9481C39.5451 12.9481 39.7654 12.9481 39.9857 12.9481C39.4074 14.853 38.7465 16.7125 38.0029 18.5266C34.1912 20.1668 30.6663 22.2408 27.4282 24.7488C27.7723 22.6472 28.2497 20.5732 28.8602 18.5266C29.0799 18.1354 29.337 17.7779 29.6313 17.4538C29.6313 17.3823 29.6313 17.3108 29.6313 17.2392C31.4167 16.4055 33.1791 15.5115 34.9186 14.5573C36.3669 13.9561 37.8357 13.4197 39.3248 12.9481Z" fill="#0A0908"/>
<path fill-rule="evenodd" clip-rule="evenodd" d="M76.3362 13.1627C80.0977 14.4307 83.6226 16.1471 86.9109 18.3121C87.3955 18.6902 87.6526 19.1909 87.6819 19.814C88.0719 21.605 88.4757 23.3931 88.8936 25.178C88.8842 25.3745 88.8108 25.5176 88.6733 25.6071C85.5721 22.9479 82.1207 20.8022 78.3189 19.1703C77.5985 17.2784 76.8642 15.3831 76.1158 13.4845C76.1313 13.3204 76.2046 13.2131 76.3362 13.1627Z" fill="#090808"/>
<path fill-rule="evenodd" clip-rule="evenodd" d="M53.4243 14.6646C55.7743 14.3785 58.1241 14.3785 60.4741 14.6646C59.5898 14.6291 58.7086 14.6648 57.8305 14.7718C62.2013 20.4551 65.1755 26.7846 66.7529 33.7604C67.3858 36.5288 67.8998 39.3181 68.295 42.1282C68.5959 37.3961 68.1553 32.7472 66.9732 28.1818C67.3274 28.8002 67.6211 29.4438 67.8544 30.1128C68.0064 30.3785 68.1166 30.3785 68.1849 30.1128C70.9585 42.2764 71.5829 54.578 70.0575 67.0171C69.6113 70.7931 68.9872 74.512 68.1849 78.1741C68.4049 75.6745 68.4417 73.1713 68.295 70.6646C68.0044 71.8674 67.8207 73.0833 67.7442 74.3121C67.7442 74.3835 67.7442 74.4552 67.7442 74.5266C66.5553 81.1475 64.3522 87.4412 61.135 93.4079C60.1882 95.0426 59.16 96.616 58.0508 98.1282C57.7571 98.1282 57.4632 98.1282 57.1695 98.1282C54.7314 94.9535 52.7486 91.5206 51.2213 87.8293C50.6945 86.3268 50.1437 84.8248 49.569 83.3236C49.4811 83.3725 49.4445 83.4442 49.4588 83.5381C45.7955 69.1154 44.841 54.5254 46.5948 39.768C46.5582 41.0573 46.595 42.3447 46.705 43.6301C47.3813 35.9886 49.3641 28.6935 52.6532 21.745C53.9938 19.3472 55.4992 17.0586 57.1695 14.8791C55.9296 14.6656 54.6814 14.594 53.4243 14.6646ZM67.7442 74.5266C67.7442 74.4552 67.7442 74.3835 67.7442 74.3121C67.9225 73.9276 68.0326 73.4985 68.0747 73.0247C68.2565 73.8209 68.2199 74.6077 67.9646 75.3849C67.7599 75.1298 67.6865 74.8438 67.7442 74.5266Z" fill="#37505C"/>
<path opacity="0.999" fill-rule="evenodd" clip-rule="evenodd" d="M53.4244 14.6646C54.6814 14.594 55.9297 14.6656 57.1696 14.8791C55.4992 17.0586 53.9939 19.3472 52.6533 21.745C49.3641 28.6935 47.3814 35.9886 46.705 43.6301C46.5951 42.3447 46.5583 41.0573 46.5949 39.768C47.3721 32.0123 49.2813 24.5386 52.3228 17.3466C52.2861 17.2393 52.2495 17.132 52.2127 17.0247C50.0396 21.6233 48.2403 26.3437 46.8152 31.1856C46.0741 32.6708 45.5233 34.2442 45.1629 35.906C44.481 38.8171 43.9671 41.7495 43.6207 44.7029C42.7466 35.8939 44.2151 27.5261 48.0269 19.5994C46.5178 21.4956 45.1959 23.4982 44.0614 25.6071C43.9591 25.4797 43.9223 25.3365 43.9512 25.178C44.7443 21.8596 45.8458 18.6413 47.2558 15.5228C49.291 15.0971 51.3471 14.811 53.4244 14.6646Z" fill="#37505C"/>
<path fill-rule="evenodd" clip-rule="evenodd" d="M60.4741 14.6646C63.3632 14.8268 66.2272 15.1844 69.0661 15.7374C69.2639 15.8785 69.4842 16.0215 69.727 16.1665C71.7717 20.6272 73.1671 25.276 73.9128 30.1128C73.9895 31.7019 73.8793 33.2752 73.5824 34.8332C72.9545 28.9197 70.7146 23.8417 66.863 19.5994C69.4626 24.3466 70.9682 29.4245 71.3793 34.8332C71.5077 36.2265 71.6179 37.6211 71.7098 39.0171C71.7091 39.5942 71.6357 40.1306 71.4894 40.6263C70.3571 32.6333 68.0439 24.9806 64.5498 17.6684C64.513 17.7757 64.4764 17.883 64.4396 17.9902C66.0144 21.9452 67.2626 25.986 68.1849 30.1128C68.1166 30.3785 68.0064 30.3785 67.8544 30.1128C67.6211 29.4439 67.3274 28.8002 66.9732 28.1818C68.1553 32.7472 68.5959 37.3961 68.295 42.1282C67.8998 39.3181 67.3858 36.5288 66.7529 33.7604C65.1755 26.7846 62.2013 20.4551 57.8304 14.7719C58.7086 14.6648 59.5898 14.6291 60.4741 14.6646Z" fill="#37505C"/>
<path fill-rule="evenodd" clip-rule="evenodd" d="M45.7136 15.9519C46.0392 15.8957 46.3329 15.9672 46.5949 16.1665C44.3541 19.8881 42.9221 23.8932 42.2989 28.1818C41.9691 30.1789 41.7122 32.1814 41.5278 34.1895C41.3447 31.4373 41.2346 28.648 41.1973 25.8216C38.0196 30.959 36.2572 36.5376 35.91 42.5573C35.8366 44.2737 35.763 45.9902 35.6897 47.7067C35.3484 47.1034 35.1649 46.4597 35.1389 45.7757C35.9549 38.9606 36.9463 32.1662 38.1131 25.3925C38.5883 22.9352 39.1758 20.5035 39.8755 18.0975C40.0293 17.842 40.2128 17.6275 40.4263 17.4538C42.1504 16.8195 43.9128 16.3189 45.7136 15.9519Z" fill="#37505C"/>
<path opacity="0.981" fill-rule="evenodd" clip-rule="evenodd" d="M70.3879 16.1665C72.3288 16.7251 74.2382 17.3688 76.1159 18.0975C76.8566 20.3451 77.4807 22.6338 77.9885 24.9634C78.9464 30.6711 79.7908 36.3928 80.522 42.1282C80.5789 43.9818 80.2484 45.7697 79.5307 47.4922C79.4207 46.2784 79.3839 45.0625 79.4205 43.8447C79.5972 44.1562 79.7073 44.5137 79.751 44.9175C80.1775 44.4283 80.361 43.856 80.3017 43.201C80.326 41.7763 80.0323 41.6332 79.4205 42.7719C78.8907 38.0374 77.679 33.4602 75.7854 29.0401C75.2668 27.8842 74.6425 26.8114 73.9128 25.8217C73.2605 22.413 72.0854 19.1946 70.3879 16.1665Z" fill="#37505C"/>
<path fill-rule="evenodd" clip-rule="evenodd" d="M47.2558 15.5228C45.8458 18.6413 44.7443 21.8596 43.9512 25.178C42.8133 29.0969 41.9689 33.1019 41.4177 37.1933C41.2749 36.184 41.3117 35.1827 41.5278 34.1895C41.7122 32.1814 41.9691 30.179 42.2989 28.1818C42.9221 23.8932 44.3541 19.8881 46.5949 16.1665C46.3329 15.9672 46.0393 15.8957 45.7136 15.9519C46.1761 15.7134 46.6903 15.5704 47.2558 15.5228Z" fill="#D5F223" fill-opacity="0.8"/>
<path fill-rule="evenodd" clip-rule="evenodd" d="M70.3879 16.1665C72.0853 19.1946 73.2605 22.4129 73.9128 25.8216C74.8011 29.7097 75.2785 33.6432 75.3448 37.6224C75.0381 35.0591 74.5609 32.556 73.9128 30.1128C73.167 25.276 71.7716 20.6272 69.727 16.1665C69.4842 16.0215 69.2639 15.8785 69.066 15.7373C69.2288 15.7655 69.3758 15.7297 69.5067 15.6301C69.228 15.3431 69.1178 15.0213 69.1762 14.6646C69.5501 15.2052 69.9539 15.7059 70.3879 16.1665Z" fill="#D5F223" fill-opacity="0.8"/>
<path opacity="0.997" fill-rule="evenodd" clip-rule="evenodd" d="M22.5814 18.3121C22.2142 18.4551 21.847 18.5982 21.4798 18.7412C21.3057 18.9346 21.0854 19.0776 20.8189 19.1703C20.3308 19.3211 19.9269 19.6071 19.6072 20.0286C17.5492 23.1665 16.2641 26.528 15.7519 30.1128C15.1439 31.1588 14.74 32.3033 14.5402 33.5458C13.5895 38.0996 12.7818 42.677 12.1168 47.2776C12.2091 42.7676 12.6864 38.2974 13.5488 33.8676C13.5334 33.7035 13.46 33.5962 13.3285 33.5458C13.895 28.9783 15.1801 24.6154 17.1839 20.4577C17.7482 19.2645 18.6662 18.442 19.9377 17.9902C20.8886 17.6146 21.7698 17.7219 22.5814 18.3121Z" fill="#D5F223" fill-opacity="0.8"/>
<path opacity="0.996" fill-rule="evenodd" clip-rule="evenodd" d="M103.654 36.7642C103.518 36.7404 103.408 36.6689 103.324 36.5496C103.287 36.8 103.25 37.0502 103.214 37.3006C103.732 40.6106 103.989 43.9363 103.985 47.2776C103.465 42.8804 102.73 38.5178 101.782 34.1895C101.55 33.2386 101.146 32.3803 100.57 31.6148C100.76 31.8214 100.907 31.8214 101.011 31.6148C100.189 27.8387 98.8301 24.2627 96.9348 20.8868C96.3841 20.0643 95.6864 19.3849 94.8419 18.8485C94.1279 18.6783 93.467 18.7856 92.8592 19.1703C92.6629 19.3012 92.4426 19.3727 92.1982 19.3849C93.2588 18.051 94.654 17.5861 96.3841 17.9903C97.364 18.4439 98.1351 19.1234 98.6973 20.0286C99.7442 21.7825 100.552 23.642 101.121 25.6071C101.971 28.8598 102.632 32.1499 103.103 35.4768C103.351 35.886 103.534 36.3151 103.654 36.7642Z" fill="#D5F223" fill-opacity="0.8"/>
<path opacity="0.765" fill-rule="evenodd" clip-rule="evenodd" d="M22.5814 18.3121C23.0025 18.4354 23.3696 18.65 23.6829 18.9558C23.4961 19.1971 23.2758 19.1971 23.022 18.9558C22.5233 18.8016 22.0092 18.73 21.4799 18.7412C21.847 18.5981 22.2142 18.4551 22.5814 18.3121Z" fill="#767FAD"/>
<path opacity="0.983" fill-rule="evenodd" clip-rule="evenodd" d="M38.0029 18.5266C38.1225 18.5395 38.1959 18.611 38.2232 18.7412C37.7145 20.2181 37.3475 21.72 37.1216 23.2469C34.0871 27.7121 32.2879 32.647 31.7241 38.0515C31.614 40.7683 31.5772 43.4861 31.614 46.2048C31.4399 45.9668 31.3298 45.6808 31.2835 45.3465C31.0458 45.8964 30.9357 46.4685 30.9531 47.063C30.3547 46.0926 30.061 45.0198 30.0718 43.8446C30.16 42.4867 30.2333 41.1279 30.2921 39.768C30.9592 36.3696 31.51 32.9366 31.9444 29.4691C31.1776 32.8066 30.5532 36.1679 30.0718 39.5534C29.846 40.2988 29.6991 41.0854 29.6312 41.9136C29.4519 41.4564 29.3417 40.9558 29.3008 40.4117C28.7106 42.2131 28.3433 44.0727 28.1992 45.9902C27.2486 42.6918 26.9547 39.3303 27.318 35.9059C27.5524 34.3735 27.8461 32.8716 28.1992 31.4002C27.4053 33.0763 26.7075 34.6497 26.1063 36.1205C26.1885 32.2818 26.6291 28.4912 27.4282 24.7488C30.6662 22.2408 34.1911 20.1669 38.0029 18.5266ZM30.9531 39.3389C31.2381 39.671 31.3851 40.1001 31.3937 40.6262C31.3802 41.3564 31.2701 42.0715 31.0632 42.7718C30.6508 42.356 30.4673 41.8554 30.5125 41.2699C30.5697 40.6033 30.7165 39.9596 30.9531 39.3389Z" fill="#37505C"/>
<path opacity="0.185" fill-rule="evenodd" clip-rule="evenodd" d="M23.022 18.9557C23.2758 19.1971 23.4961 19.1971 23.6829 18.9557C24.1352 19.1775 24.5024 19.4994 24.7845 19.9213C25.0694 20.0264 25.3631 20.0622 25.6657 20.0285C25.6657 20.1001 25.6657 20.1716 25.6657 20.2431C24.5641 21.1013 23.4626 21.9596 22.3611 22.8178C22.8499 22.2254 23.2171 21.5461 23.4626 20.7795C23.1352 20.2239 22.9883 19.616 23.022 18.9557Z" fill="#37505C"/>
<path opacity="0.953" fill-rule="evenodd" clip-rule="evenodd" d="M78.319 19.1703C82.1208 20.8022 85.5721 22.9478 88.6734 25.6071C89.0067 26.0396 89.1904 26.5402 89.2241 27.109C89.4815 29.4715 89.7383 31.8317 89.9952 34.1894C89.8262 34.0453 89.6793 33.8665 89.5546 33.653C89.1287 33.5992 88.7249 33.4919 88.3429 33.3312C88.235 33.6086 88.1982 33.8949 88.2328 34.1894C87.8979 33.3258 87.4939 32.4676 87.0211 31.6147C87.396 33.2282 87.6897 34.8732 87.9023 36.5496C88.0492 38.2661 88.0492 39.9825 87.9023 41.699C87.8587 42.1028 87.7485 42.4603 87.5718 42.7718C87.6459 41.985 87.4624 41.2699 87.0211 40.6262C86.7453 41.1656 86.6351 41.7376 86.6906 42.3427C86.1046 39.0786 85.4803 35.7886 84.818 32.473C85.0839 34.8239 85.3408 37.1841 85.5891 39.5534C85.6182 41.3298 85.3979 43.0462 84.9282 44.7029C85.1249 42.4884 85.1617 40.2711 85.0383 38.0515C84.7202 38.4066 84.3162 38.5497 83.8266 38.4806C83.8414 38.7937 83.768 39.0797 83.6063 39.3389C83.2783 37.8069 83.0212 36.2336 82.8353 34.6186C82.1787 31.5903 81.114 28.7296 79.6408 26.0362C79.1026 23.7054 78.662 21.4168 78.319 19.1703Z" fill="#37505C"/>
<path opacity="0.188" fill-rule="evenodd" clip-rule="evenodd" d="M92.8592 19.1703C92.6479 20.3343 93.0518 21.264 94.0709 21.9596C94.18 21.5363 94.2168 21.1072 94.1811 20.6722C95.8279 20.8418 97.0027 21.6285 97.706 23.0324C97.4138 23.8915 97.1567 24.7497 96.9349 25.6071C95.892 25.1636 95.0473 24.4841 94.4014 23.5688C94.1114 23.4555 93.9645 23.5627 93.9608 23.8906C92.9976 22.9521 91.9694 22.0939 90.8765 21.3159C90.8765 21.2444 90.8765 21.1728 90.8765 21.1013C91.2431 20.7905 91.4268 20.3614 91.4272 19.814C91.607 19.5301 91.8641 19.3871 92.1983 19.3848C92.4426 19.3726 92.6629 19.3011 92.8592 19.1703Z" fill="#37505C"/>
<path opacity="0.655" fill-rule="evenodd" clip-rule="evenodd" d="M20.819 19.1703C20.4987 19.6147 20.2049 20.0796 19.9378 20.5649C20.3285 21.2561 20.7691 21.2561 21.2596 20.5649C21.6148 20.4104 21.9453 20.4461 22.251 20.6722C22.5013 21.6153 22.2443 22.402 21.4799 23.0324C21.5806 23.2036 21.7275 23.275 21.9205 23.2469C19.6372 25.3286 17.581 27.6173 15.752 30.1128C16.2641 26.528 17.5493 23.1665 19.6073 20.0285C19.927 19.6071 20.3309 19.321 20.819 19.1703Z" fill="#37505C"/>
<path fill-rule="evenodd" clip-rule="evenodd" d="M25.6658 20.2431C25.7854 20.256 25.8588 20.3275 25.8861 20.4577C25.2095 22.8993 24.622 25.331 24.1236 27.7527C22.2681 29.6305 20.5791 31.633 19.0566 33.7603C18.6455 34.0824 18.3518 34.5115 18.1753 35.0477C16.9108 36.9386 15.8827 38.9413 15.091 41.0554C14.4801 42.3629 14.0394 43.7219 13.7692 45.132C13.6958 45.132 13.6223 45.132 13.5489 45.132C12.8603 46.9077 12.4197 48.7673 12.2271 50.7105C11.7455 53.8217 11.672 56.9686 12.0067 60.1512C12.2182 66.3637 12.7322 72.5503 13.5489 78.7105C13.4748 78.9315 13.328 79.0388 13.1083 79.0324C6.9558 68.6567 5.26678 57.6427 8.04123 45.9902C8.3549 45.5579 8.50178 45.0573 8.48184 44.4883C8.79552 44.056 8.94239 43.5554 8.92246 42.9864C8.92246 42.915 8.92246 42.8433 8.92246 42.7718C9.29989 42.5283 9.44676 42.1706 9.36307 41.699C10.3084 38.7868 11.6303 36.069 13.3286 33.5458C13.46 33.5962 13.5335 33.7035 13.5489 33.8676C12.6865 38.2974 12.2091 42.7675 12.1169 47.2776C12.7818 42.677 13.5896 38.0996 14.5403 33.5458C14.7401 32.3033 15.144 31.1588 15.752 30.1128C17.581 27.6173 19.6372 25.3286 21.9205 23.2469C21.994 23.0324 22.1408 22.8893 22.3612 22.8178C23.4627 21.9596 24.5642 21.1013 25.6658 20.2431Z" fill="#090808"/>
<path opacity="0.999" fill-rule="evenodd" clip-rule="evenodd" d="M46.8151 31.1856C42.5802 48.9031 43.0942 66.497 48.3573 83.9672C48.1982 84.0569 48.0881 84.1998 48.0268 84.3964C47.1945 82.7792 46.4968 81.1342 45.9339 79.4615C45.0747 76.97 44.4872 74.3953 44.1715 71.7374C44.078 69.9366 43.8943 68.1486 43.6207 66.3734C43.5105 68.0883 43.474 69.8048 43.5105 71.5228C43.5372 75.3471 43.9044 79.1377 44.6121 82.8944C45.1465 86.2959 46.2481 89.5142 47.9167 92.5496C47.8799 92.6211 47.8433 92.6927 47.8065 92.7642C47.6505 92.5751 47.4668 92.4323 47.2557 92.3351C45.5953 90.171 44.2367 87.8109 43.1801 85.2546C43.0712 85.6052 43.0347 85.9629 43.0699 86.3274C42.8582 85.9487 42.7846 85.5196 42.8496 85.04C42.6505 84.8879 42.5771 84.6734 42.6293 84.3964C42.923 84.2533 42.923 84.1104 42.6293 83.9672C42.2764 82.5511 41.9459 81.1207 41.6379 79.6761C41.5357 79.8035 41.4989 79.9466 41.5278 80.1052C41.3586 79.9415 41.2484 79.7269 41.1973 79.4615C41.0356 81.6822 41.0724 83.8992 41.3075 86.1128C41.2707 86.3988 41.2341 86.6851 41.1973 86.9711C37.2902 80.1249 35.4541 72.7584 35.6897 64.8715C35.0043 66.5403 34.5271 68.2568 34.2577 70.0209C33.7098 66.771 33.2324 63.4809 32.8257 60.1511C33.0129 68.6303 33.7106 77.0696 34.9186 85.4692C34.5661 84.9965 34.2724 84.4959 34.0374 83.9672C31.5195 77.3103 30.7484 70.4444 31.7241 63.3695C30.8784 65.3746 30.3276 67.4487 30.0718 69.5918C29.7381 65.3053 29.5911 60.9785 29.6312 56.6109C29.5894 52.3148 29.7363 48.0592 30.0718 43.8446C30.061 45.0198 30.3547 46.0926 30.9531 47.063C31.1027 47.7511 31.3598 48.3948 31.7241 48.9941C31.6433 48.083 31.6067 47.1531 31.614 46.2048C31.5772 43.4861 31.614 40.7683 31.7241 38.0515C32.2879 32.647 34.0871 27.7121 37.1216 23.2469C36.8683 24.4129 36.648 25.5571 36.4607 26.6799C34.3702 32.066 33.7829 37.7162 34.6983 43.6301C34.3218 46.261 34.2116 48.9072 34.3678 51.5688C34.6401 49.6075 34.8972 47.6765 35.1389 45.7757C35.1649 46.4597 35.3484 47.1034 35.6897 47.7067C35.763 45.9902 35.8366 44.2738 35.91 42.5573C36.2572 36.5376 38.0196 30.9591 41.1973 25.8216C41.2346 28.648 41.3447 31.4373 41.5278 34.1895C41.3117 35.1827 41.2749 36.184 41.4176 37.1933C41.9688 33.1019 42.8133 29.0969 43.9511 25.178C43.9223 25.3365 43.9591 25.4796 44.0613 25.6071C45.1959 23.4982 46.5177 21.4956 48.0268 19.5994C44.2151 27.5261 42.7465 35.8939 43.6207 44.7029C43.967 41.7495 44.481 38.8171 45.1628 35.9059C45.5233 34.2442 46.074 32.6708 46.8151 31.1856ZM31.614 46.2048C31.6067 47.1531 31.6433 48.083 31.7241 48.9941C31.3598 48.3948 31.1027 47.7511 30.9531 47.063C30.9357 46.4685 31.0458 45.8965 31.2835 45.3466C31.3298 45.6808 31.4399 45.9668 31.614 46.2048ZM35.1389 70.8791C35.5451 71.2608 35.6919 71.7614 35.5795 72.381C35.1091 72.4568 34.8155 72.278 34.6983 71.8446C34.8181 71.5046 34.9651 71.1827 35.1389 70.8791ZM44.1715 71.7374C44.4872 74.3953 45.0747 76.97 45.9339 79.4615C46.1315 80.457 46.1683 81.4582 46.0441 82.4653C45.7447 83.3491 45.2673 83.492 44.6121 82.8944C43.9044 79.1377 43.5372 75.3471 43.5105 71.5228C43.6465 71.499 43.7566 71.4275 43.841 71.3082C43.9022 71.5048 44.0124 71.6477 44.1715 71.7374Z" fill="#B1B1B1"/>
<path fill-rule="evenodd" clip-rule="evenodd" d="M90.8765 21.3159C91.9694 22.0939 92.9976 22.9521 93.9608 23.8906C94.328 24.1052 94.6217 24.3912 94.842 24.7489C94.842 25.178 95.0623 25.3925 95.5029 25.3925C95.6307 25.8751 95.9243 26.2325 96.3841 26.4653C97.572 27.551 98.6002 28.7667 99.4684 30.1129C99.4523 30.4405 99.5993 30.655 99.909 30.7565C100.297 30.92 100.518 31.2062 100.57 31.6148C101.146 32.3803 101.55 33.2386 101.782 34.1895C102.73 38.5178 103.465 42.8804 103.985 47.2776C103.99 43.9363 103.732 40.6106 103.214 37.3006C103.25 37.0502 103.287 36.8 103.324 36.5496C103.408 36.6689 103.518 36.7404 103.654 36.7642C108.708 47.0352 109.7 57.6917 106.628 68.7335C105.808 71.5297 104.669 74.1761 103.214 76.6722C103.068 76.3217 102.995 75.9284 102.993 75.4922C103.279 73.3191 103.426 71.1377 103.434 68.9481C103.86 65.7731 104.044 62.5547 103.985 59.2929C103.696 62.1524 103.439 65.0131 103.214 67.8753C102.756 71.0823 102.352 74.3007 102.002 77.5305C101.841 78.4267 101.584 79.2849 101.231 80.1052C100.148 81.7337 98.9732 83.3071 97.706 84.8255C95.5948 87.5706 93.098 89.9307 90.2155 91.906C90.0748 91.7779 90.0014 91.5991 89.9952 91.3696C90.5738 88.9498 91.1611 86.554 91.7577 84.1818C91.7577 84.1104 91.7577 84.0387 91.7577 83.9673C92.6389 83.0376 93.5201 82.1077 94.4014 81.178C94.7111 81.0765 94.8581 80.8619 94.842 80.5343C95.2302 80.3708 95.4505 80.0846 95.5029 79.6761C95.6388 79.6523 95.749 79.5808 95.8334 79.4615C95.9067 79.7475 95.9803 80.0337 96.0537 80.3198C96.1991 79.3096 96.5295 78.3799 97.045 77.5305C97.0072 77.3176 97.0807 77.1747 97.2654 77.1014C97.5751 76.9999 97.722 76.7853 97.706 76.4577C98.5123 74.7476 99.3202 73.0312 100.129 71.3083C101.12 69.1987 101.855 66.9817 102.332 64.6569C102.994 61.8992 103.288 59.0741 103.214 56.1818C103.284 52.7611 102.844 49.4354 101.892 46.2048C101.818 46.2048 101.745 46.2048 101.671 46.2048C101.033 43.3389 100.006 40.6211 98.5872 38.0515C98.0199 36.5295 97.6159 34.9559 97.3755 33.3312C97.3356 34.0168 97.2255 34.6604 97.045 35.2623C95.6943 32.9873 94.0788 30.9132 92.1983 29.0401C92.136 28.8708 92.0258 28.7277 91.8678 28.6109C91.6627 26.2531 91.2587 23.9288 90.6562 21.6378C90.6716 21.4737 90.7449 21.3664 90.8765 21.3159Z" fill="#0A0A09"/>
<path fill-rule="evenodd" clip-rule="evenodd" d="M73.9128 30.1128C74.561 32.556 75.0382 35.0591 75.3448 37.6224C75.2785 33.6432 74.8011 29.7097 73.9128 25.8216C74.6425 26.8114 75.2669 27.8842 75.7855 29.04C77.679 33.4602 78.8907 38.0374 79.4205 42.7718C79.4205 43.1295 79.4205 43.487 79.4205 43.8446C79.3839 45.0625 79.4207 46.2784 79.5307 47.4921C80.2484 45.7697 80.5789 43.9817 80.522 42.1282C81.1854 46.2243 81.6628 50.3724 81.954 54.5726C81.8031 45.0127 81.0321 35.5006 79.6408 26.0362C81.114 28.7296 82.1787 31.5903 82.8353 34.6186C83.0212 36.2336 83.2783 37.8069 83.6063 39.3389C83.8617 42.7901 83.7515 46.223 83.2759 49.6377C83.9297 48.0185 84.4805 46.3734 84.9282 44.7029C85.3979 43.0463 85.6182 41.3298 85.5891 39.5534C87.055 51.1422 87.055 62.7284 85.5891 74.3121C85.5475 71.3205 85.1068 68.3883 84.2673 65.5151C84.0983 64.7322 83.8046 64.0171 83.386 63.3695C83.5513 61.5117 83.5878 59.6521 83.4962 57.791C82.4993 67.8931 81.0673 77.9059 79.2002 87.8293C78.5814 88.745 77.957 89.6749 77.3276 90.6186C77.1835 90.8752 77.0734 90.8752 76.9971 90.6186C80.2625 83.4087 81.4008 75.8992 80.4119 68.0898C80.22 67.1278 79.9263 66.1981 79.5307 65.3006C79.6071 72.6949 77.8812 79.6323 74.3535 86.1128C74.9025 82.9127 75.2329 79.6943 75.3448 76.4577C74.9359 78.933 74.4588 81.3649 73.9128 83.7527C73.9933 81.5949 73.8831 79.4493 73.5824 77.3159C73.3671 78.4516 73.257 79.5958 73.2519 80.7489C72.1779 84.6283 70.5624 88.2758 68.4052 91.6914C68.2893 92.0626 68.069 92.3488 67.7443 92.5496C67.5332 92.6468 67.3495 92.7897 67.1935 92.9787C68.154 90.7473 69.0353 88.4588 69.8372 86.1128C70.571 83.4341 71.0482 80.7165 71.2692 77.9596C71.3425 76.8153 71.4161 75.6709 71.4895 74.5266C71.7831 72.5956 71.7831 70.6646 71.4895 68.7335C72.9488 59.362 72.9488 49.9931 71.4895 40.6262C71.6358 40.1306 71.7091 39.5942 71.7098 39.0171C71.6179 37.6211 71.5078 36.2265 71.3793 34.8331C70.9682 29.4245 69.4627 24.3466 66.863 19.5994C70.7147 23.8417 72.9545 28.9197 73.5824 34.8331C73.8794 33.2752 73.9895 31.7019 73.9128 30.1128ZM79.4205 43.8446C79.4205 43.487 79.4205 43.1295 79.4205 42.7718C80.0323 41.6332 80.326 41.7763 80.3017 43.201C80.361 43.856 80.1775 44.4282 79.751 44.9174C79.7073 44.5136 79.5972 44.1562 79.4205 43.8446Z" fill="#B1B1B1"/>
<path fill-rule="evenodd" clip-rule="evenodd" d="M46.5948 39.768C44.8409 54.5254 45.7955 69.1154 49.4588 83.5381C49.6994 84.9521 50.0666 86.3109 50.5603 87.6148C51.1029 89.7726 51.6905 91.9182 52.3228 94.0515C52.4556 94.5967 52.4556 95.0973 52.3228 95.5535C50.7817 91.7658 49.4599 87.9038 48.3572 83.9672C43.0941 66.497 42.5801 48.9031 46.8151 31.1856C48.2403 26.3437 50.0395 21.6233 52.2126 17.0247C52.2494 17.132 52.286 17.2393 52.3228 17.3466C49.2812 24.5386 47.372 32.0123 46.5948 39.768Z" fill="#D5F223" fill-opacity="0.8"/>
<path fill-rule="evenodd" clip-rule="evenodd" d="M71.4732 40.4902C72.9325 49.857 72.9325 59.226 71.4732 68.5975C71.2817 69.0732 71.2084 69.5737 71.2529 70.0994C70.9784 72.6327 70.5378 75.136 69.931 77.609C68.1922 84.4779 65.9155 91.2009 63.1015 97.7776C62.9716 98.0492 62.8614 98.3352 62.7711 98.6358C62.6647 98.4324 62.6281 98.2178 62.6609 97.9921C62.4406 97.9921 62.2203 97.9921 62 97.9921C62.2353 97.7917 62.529 97.7201 62.8812 97.7776C65.1951 91.3382 66.9576 84.7583 68.1686 78.0381C68.9709 74.376 69.5951 70.657 70.0412 66.881C71.5666 54.4419 70.9422 42.1404 68.1686 29.9768C67.2464 25.85 65.9981 21.8092 64.4234 17.8542C64.4602 17.7469 64.4967 17.6396 64.5335 17.5323C68.0276 24.8445 70.3408 32.4972 71.4732 40.4902Z" fill="#D5F223" fill-opacity="0.8"/>
<path opacity="0.792" fill-rule="evenodd" clip-rule="evenodd" d="M94.8419 24.7488C95.1356 24.892 95.3559 25.1065 95.5028 25.3925C95.0622 25.3925 94.8419 25.178 94.8419 24.7488Z" fill="#767FAD"/>
<path opacity="0.769" fill-rule="evenodd" clip-rule="evenodd" d="M95.5029 25.3925C95.9627 25.6253 96.2564 25.9828 96.3842 26.4653C95.9244 26.2325 95.6307 25.8751 95.5029 25.3925Z" fill="#D5F223" fill-opacity="0.8"/>
<path fill-rule="evenodd" clip-rule="evenodd" d="M57.3899 24.7488C57.7333 25.4715 57.9168 26.2583 57.9406 27.109C59.0071 47.1467 58.8604 67.1724 57.5 87.1856C56.9332 66.3729 56.8964 45.5607 57.3899 24.7488Z" fill="#D5F223" fill-opacity="0.8"/>
<path opacity="0.97" fill-rule="evenodd" clip-rule="evenodd" d="M24.1236 27.7527C24.2551 27.8031 24.3285 27.9104 24.3439 28.0745C23.7912 31.6678 23.424 35.2794 23.2424 38.9098C22.5889 40.4394 22.0748 42.0127 21.7002 43.6301C21.9285 42.6804 21.8918 41.7505 21.5901 40.8408C21.2124 40.5351 20.9187 40.6065 20.7089 41.0554C20.5989 42.1258 20.5621 43.1986 20.5987 44.2738C20.065 39.9924 20.6158 35.8444 22.251 31.8293C20.4831 34.13 19.3081 36.7047 18.7261 39.5535C18.6181 39.276 18.5814 38.9898 18.6159 38.6952C18.584 37.0247 18.7308 35.3796 19.0566 33.7603C20.5791 31.633 22.2681 29.6305 24.1236 27.7527Z" fill="#37505C"/>
<path fill-rule="evenodd" clip-rule="evenodd" d="M36.4607 26.6799C35.5391 32.2942 34.9516 37.9445 34.6982 43.6301C33.7828 37.7162 34.3702 32.066 36.4607 26.6799Z" fill="#37505C"/>
<path opacity="0.92" fill-rule="evenodd" clip-rule="evenodd" d="M92.1983 29.04C94.0789 30.9131 95.6944 32.9873 97.0451 35.2623C97.1074 35.4315 97.2176 35.5747 97.3755 35.6914C97.5978 37.545 97.708 39.4045 97.706 41.2699C97.706 42.0567 97.706 42.8433 97.706 43.6301C97.4123 43.7015 97.4123 43.7732 97.706 43.8446C97.7417 44.2795 97.7049 44.7087 97.5958 45.132C97.148 40.3188 95.6058 35.8845 92.9694 31.8293C94.5627 36.1462 95.0401 40.5805 94.4014 45.132C94.438 44.1995 94.4012 43.2698 94.2912 42.3427C93.4898 41.4933 93.1593 41.7078 93.2999 42.9864C93.043 38.5287 92.6024 34.0586 91.978 29.5764C91.9842 29.3469 92.0576 29.1681 92.1983 29.04Z" fill="#37505C"/>
<path opacity="0.443" fill-rule="evenodd" clip-rule="evenodd" d="M99.4684 30.1129C99.7781 30.2143 99.925 30.4289 99.909 30.7565C99.5992 30.655 99.4523 30.4405 99.4684 30.1129Z" fill="#D5F223" fill-opacity="0.8"/>
<path opacity="0.998" fill-rule="evenodd" clip-rule="evenodd" d="M20.5987 44.2737C20.7043 45.6373 20.8511 46.9961 21.0393 48.3504C21.0111 48.8127 21.1213 49.2419 21.3698 49.6377C21.5074 47.7073 21.6176 45.7763 21.7002 43.8446C21.7002 43.7732 21.7002 43.7015 21.7002 43.6301C22.0748 42.0127 22.5889 40.4393 23.2424 38.9097C22.5782 51.504 22.7251 64.0915 23.683 76.6722C22.9426 74.0007 22.2817 71.2831 21.7002 68.5189C21.5709 66.6617 21.4607 64.8023 21.3698 62.9404C20.9133 64.3337 20.6196 65.764 20.4885 67.2316C20.3068 69.4147 20.3435 71.5603 20.5987 73.6684C20.8582 76.074 21.4457 78.3983 22.3611 80.6415C22.3614 81.2944 22.1778 81.3303 21.8104 80.7488C21.2963 79.8906 20.7823 79.0324 20.2682 78.1741C20.1587 79.0375 20.1954 79.8957 20.3784 80.7488C20.0056 80.383 19.7119 79.9539 19.4972 79.4615C19.6099 78.7895 19.6099 78.0743 19.4972 77.3159C19.6433 76.8565 19.7167 76.3557 19.7175 75.814C18.4613 63.432 18.0941 51.059 18.6159 38.6952C18.5814 38.9898 18.6181 39.276 18.7261 39.5534C19.3081 36.7047 20.4831 34.13 22.251 31.8293C20.6158 35.8443 20.065 39.9924 20.5987 44.2737ZM21.7002 43.6301C21.7002 43.7015 21.7002 43.7732 21.7002 43.8446C21.424 45.3399 21.2037 46.8418 21.0393 48.3504C20.8511 46.9961 20.7043 45.6373 20.5987 44.2737C20.5621 43.1986 20.5988 42.1258 20.7088 41.0553C20.9187 40.6065 21.2124 40.535 21.5901 40.8408C21.8918 41.7505 21.9285 42.6804 21.7002 43.6301Z" fill="#37505C"/>
<path opacity="0.999" fill-rule="evenodd" clip-rule="evenodd" d="M29.6313 41.9136C28.2577 51.4126 27.964 60.9247 28.75 70.45C28.5152 69.4161 28.3315 68.3433 28.1993 67.2316C27.2484 70.3187 26.9913 73.4656 27.4282 76.6722C27.3965 77.5037 27.4701 78.3261 27.6485 79.1397C27.6117 79.3184 27.5751 79.4973 27.5384 79.6761C27.4771 79.4795 27.367 79.3366 27.2079 79.247C27.0583 78.7781 26.8379 78.4919 26.547 78.3887C26.0759 74.4286 25.7455 70.4234 25.5556 66.3734C25.4087 58.5778 25.4087 50.782 25.5556 42.9864C25.6208 40.6561 25.8044 38.3674 26.1064 36.1205C26.7076 34.6497 27.4053 33.0763 28.1993 31.4002C27.8461 32.8717 27.5525 34.3736 27.318 35.906C26.9548 39.3303 27.2486 42.6918 28.1993 45.9902C28.3434 44.0727 28.7106 42.2131 29.3008 40.4117C29.3418 40.9558 29.4519 41.4564 29.6313 41.9136Z" fill="#37505C"/>
<path opacity="0.998" fill-rule="evenodd" clip-rule="evenodd" d="M88.2327 34.1895C89.0565 36.3245 89.6438 38.5416 89.9952 40.8408C90.3695 43.83 90.5164 46.8339 90.4358 49.8523C90.3613 50.6668 90.4347 51.3104 90.6561 51.7833C90.7295 51.7833 90.803 51.7833 90.8764 51.7833C91.0077 58.4806 90.7874 65.1319 90.2155 71.7374C90.2501 71.4428 90.2133 71.1565 90.1053 70.8791C89.6226 73.1886 89.0719 75.4773 88.453 77.745C88.3286 78.6112 88.0347 79.3978 87.5718 80.1052C87.3713 80.4311 87.1878 80.7885 87.021 81.178C86.8952 80.4174 87.0422 79.7022 87.4617 79.0324C87.6978 77.7547 87.808 76.4673 87.7921 75.1703C88.1025 73.5463 88.0657 71.9015 87.682 70.2354C87.6207 70.432 87.5106 70.5749 87.3515 70.6646C88.058 62.0648 87.9111 53.4824 86.9109 44.9174C87.2949 44.2748 87.5152 43.5595 87.5718 42.7718C87.7485 42.4603 87.8586 42.1028 87.9023 41.699C88.0492 39.9826 88.0492 38.2661 87.9023 36.5496C87.6897 34.8733 87.396 33.2282 87.021 31.6147C87.4938 32.4676 87.8979 33.3259 88.2327 34.1895Z" fill="#37505C"/>
<path fill-rule="evenodd" clip-rule="evenodd" d="M97.706 43.8446C97.706 43.7732 97.706 43.7015 97.706 43.6301C97.706 42.8433 97.706 42.0567 97.706 41.2699C98.01 52.5948 97.5694 63.8948 96.3841 75.1703C96.4169 74.9446 96.3804 74.73 96.274 74.5266C95.5472 76.8717 94.4456 79.0173 92.9694 80.9634C93.6774 78.4447 94.1914 75.87 94.5115 73.2392C94.5811 71.7845 94.6179 70.3541 94.6217 68.9481C94.5606 66.9233 94.3038 64.9206 93.8506 62.9404C93.783 65.0266 93.5994 67.1005 93.2998 69.1626C93.3589 69.5057 93.2853 69.7917 93.0795 70.0209C93.2639 61.2967 93.3373 52.5714 93.2998 43.8446C93.5552 45.1047 93.8123 46.3921 94.0709 47.7067C94.1813 46.8463 94.2914 45.9881 94.4014 45.132C95.04 40.5805 94.5626 36.1462 92.9694 31.8293C95.6058 35.8845 97.1479 40.3188 97.5958 45.132C97.7048 44.7086 97.7416 44.2795 97.706 43.8446Z" fill="#37505C"/>
<path opacity="0.75" fill-rule="evenodd" clip-rule="evenodd" d="M18.1753 35.0477C18.3068 35.0982 18.3802 35.2054 18.3956 35.3696C17.8701 38.6435 17.4295 41.8978 17.0738 45.132C17.0913 44.5375 16.9811 43.9655 16.7433 43.4155C16.6699 43.487 16.5965 43.5587 16.523 43.6301C16.4129 45.202 16.3762 46.7753 16.4129 48.3504C16.048 46.3254 15.8644 44.2513 15.8621 42.1282C15.5263 42.6427 15.1959 43.1433 14.8707 43.6301C15.0462 42.8315 15.2665 42.0447 15.5316 41.27C15.4949 41.0554 15.4582 40.8408 15.4215 40.6263C15.3602 40.8228 15.25 40.9657 15.091 41.0554C15.8827 38.9413 16.9108 36.9386 18.1753 35.0477Z" fill="#37505C"/>
<path opacity="0.998" fill-rule="evenodd" clip-rule="evenodd" d="M98.5872 38.0515C98.4244 38.7278 98.4244 39.443 98.5872 40.1971C98.6872 41.6259 98.7606 43.0564 98.8075 44.4883C99.1175 51.0702 99.0439 57.65 98.5872 64.2278C98.2977 68.5224 97.7102 72.7778 96.8248 76.9941C96.8309 77.2237 96.9043 77.4024 97.0451 77.5305C96.5296 78.3799 96.1991 79.3096 96.0537 80.3197C95.9803 80.0337 95.9068 79.7475 95.8334 79.4615C95.749 79.5808 95.6389 79.6522 95.5029 79.6761C96.0645 78.2424 96.3582 76.7405 96.3842 75.1703C97.5694 63.8948 98.01 52.5948 97.706 41.2699C97.708 39.4046 97.5978 37.545 97.3755 35.6914C97.2176 35.5747 97.1074 35.4316 97.0451 35.2623C97.2255 34.6604 97.3357 34.0168 97.3755 33.3312C97.6159 34.9559 98.0199 36.5295 98.5872 38.0515Z" fill="#D5F223" fill-opacity="0.8"/>
<path fill-rule="evenodd" clip-rule="evenodd" d="M19.0565 33.7604C18.7307 35.3797 18.5839 37.0247 18.6158 38.6952C18.094 51.059 18.4612 63.432 19.7174 75.814C19.7166 76.3558 19.6432 76.8566 19.4971 77.3159C18.9887 75.2811 18.5481 73.2069 18.1752 71.0937C17.8369 66.6618 17.5065 62.2277 17.1838 57.791C17.0737 53.8582 17.037 49.9244 17.0737 45.9903C17.0737 45.7043 17.0737 45.418 17.0737 45.132C17.4294 41.8978 17.87 38.6435 18.3955 35.3696C18.3801 35.2054 18.3067 35.0982 18.1752 35.0477C18.3517 34.5115 18.6454 34.0824 19.0565 33.7604Z" fill="#D5F223" fill-opacity="0.8"/>
<path fill-rule="evenodd" clip-rule="evenodd" d="M30.2922 39.768C30.2922 39.6249 30.2188 39.5535 30.0719 39.5535C30.5533 36.1679 31.1776 32.8066 31.9445 29.4692C31.5101 32.9367 30.9593 36.3696 30.2922 39.768Z" fill="#D5F223" fill-opacity="0.8"/>
<path opacity="0.998" fill-rule="evenodd" clip-rule="evenodd" d="M30.0718 39.5535C30.2188 39.5535 30.2921 39.6249 30.2921 39.768C30.2333 41.1279 30.1599 42.4867 30.0718 43.8447C29.7363 48.0592 29.5894 52.3148 29.6312 56.6109C29.5911 60.9785 29.7381 65.3053 30.0718 69.5918C30.5587 74.9053 31.2196 80.1977 32.0546 85.4692C32.2015 85.9667 32.2383 86.4675 32.1647 86.9711C31.4424 84.5255 30.7449 82.0939 30.0718 79.6761C29.397 76.6353 28.9564 73.5601 28.75 70.45C27.9639 60.9247 28.2576 51.4126 29.6312 41.9136C29.6991 41.0854 29.846 40.2988 30.0718 39.5535Z" fill="#D5F223" fill-opacity="0.8"/>
<path opacity="0.999" fill-rule="evenodd" clip-rule="evenodd" d="M86.6906 42.3428C86.8365 43.1937 86.9098 44.0519 86.9109 44.9175C87.9111 53.4825 88.0581 62.0648 87.3515 70.6646C87.0962 72.0826 86.9493 73.5131 86.9109 74.9558C86.9023 75.864 86.7556 76.7222 86.4703 77.5305C85.8076 80.4691 85.0366 83.4013 84.1571 86.3274C84.217 85.2585 84.3272 84.1857 84.4876 83.109C84.4876 82.8945 84.4876 82.6799 84.4876 82.4654C84.8268 81.9637 84.9736 81.3915 84.9282 80.7489C84.9471 79.3671 85.0941 78.0083 85.3688 76.6723C85.5677 76.052 85.6411 75.4083 85.5891 74.7412C85.5891 74.5981 85.5891 74.4552 85.5891 74.3121C87.055 62.7285 87.055 51.1423 85.5891 39.5535C85.3408 37.1841 85.0839 34.8239 84.818 32.473C85.4803 35.7886 86.1046 39.0787 86.6906 42.3428Z" fill="#D5F223" fill-opacity="0.8"/>
<path opacity="0.999" fill-rule="evenodd" clip-rule="evenodd" d="M99.4684 42.3427C100.321 43.5745 101.055 44.8619 101.671 46.2048C101.745 47.063 101.818 47.063 101.892 46.2048C102.843 49.4354 103.284 52.7611 103.214 56.1818C103.288 59.0741 102.994 61.8992 102.332 64.6569C102.365 64.4312 102.329 64.2166 102.222 64.0132C101.492 66.3614 100.464 68.5784 99.1379 70.6646C99.1005 68.7672 98.9903 66.9076 98.8075 65.086C98.8665 64.7429 98.7929 64.4569 98.5872 64.2278C99.0439 57.65 99.1174 51.0702 98.8075 44.4883C98.9888 43.7423 99.0989 42.9555 99.1379 42.1282C99.2223 42.2475 99.3325 42.3189 99.4684 42.3427Z" fill="#37505C"/>
<path opacity="0.408" fill-rule="evenodd" clip-rule="evenodd" d="M98.5872 40.1971C98.9196 40.879 99.2133 41.5941 99.4684 42.3427C99.3325 42.3189 99.2223 42.2475 99.1379 42.1282C99.0989 42.9555 98.9888 43.7423 98.8075 44.4883C98.7605 43.0564 98.6872 41.6259 98.5872 40.1971Z" fill="#767FAD"/>
<path opacity="0.843" fill-rule="evenodd" clip-rule="evenodd" d="M9.36298 41.699C9.44667 42.1706 9.29979 42.5283 8.92236 42.7718C8.98755 42.3635 9.13441 42.0059 9.36298 41.699Z" fill="#D5F223" fill-opacity="0.8"/>
<path fill-rule="evenodd" clip-rule="evenodd" d="M16.4128 48.3504C16.5406 49.1318 16.6508 49.9186 16.7432 50.7105C16.781 49.099 16.8911 47.5254 17.0737 45.9902C17.037 49.9244 17.0737 53.8581 17.1839 57.791C17.5065 62.2277 17.837 66.6618 18.1752 71.0937C17.8958 70.5777 17.749 70.0054 17.7346 69.3772C17.405 66.3088 17.1479 63.2333 16.9635 60.1512C16.2402 63.5811 15.8363 67.0141 15.7519 70.45C15.427 70.2492 15.2067 69.963 15.0909 69.5918C14.2032 67.4108 13.3954 65.3366 12.6676 63.3696C12.4857 62.4079 12.3756 61.4065 12.3371 60.3657C12.2528 60.2464 12.1427 60.175 12.0067 60.1512C11.6719 56.9686 11.7454 53.8217 12.227 50.7105C12.194 50.9363 12.2307 51.1508 12.3371 51.3542C12.975 48.7104 13.8195 46.1357 14.8706 43.6301C15.1958 43.1433 15.5262 42.6427 15.862 42.1282C15.8643 44.2512 16.0479 46.3254 16.4128 48.3504Z" fill="#37505C"/>
<path opacity="0.682" fill-rule="evenodd" clip-rule="evenodd" d="M8.92238 42.9864C8.94232 43.5554 8.79544 44.056 8.48177 44.4883C8.46183 43.9193 8.60871 43.4187 8.92238 42.9864Z" fill="#D5F223" fill-opacity="0.8"/>
<path opacity="0.671" fill-rule="evenodd" clip-rule="evenodd" d="M8.48183 44.4883C8.50177 45.0574 8.35489 45.5579 8.04122 45.9903C8.02128 45.4212 8.16816 44.9207 8.48183 44.4883Z" fill="#D5F223" fill-opacity="0.8"/>
<path opacity="0.025" fill-rule="evenodd" clip-rule="evenodd" d="M14.8707 43.6301C13.8195 46.1357 12.975 48.7104 12.3372 51.3542C12.2308 51.1508 12.1941 50.9362 12.227 50.7105C12.4196 48.7673 12.8602 46.9077 13.5489 45.132C13.6223 45.9902 13.6957 45.9902 13.7692 45.132C14.0823 44.5937 14.4494 44.0929 14.8707 43.6301Z" fill="#767FAD"/>
<path fill-rule="evenodd" clip-rule="evenodd" d="M89.9952 40.8408C90.1735 41.2253 90.2836 41.6544 90.3257 42.1282C90.4348 41.7049 90.4715 41.2757 90.4359 40.8408C90.7445 44.4484 90.8914 48.0959 90.8765 51.7833C90.8031 51.7833 90.7295 51.7833 90.6562 51.7833C90.7245 51.094 90.6511 50.4503 90.4359 49.8523C90.5165 46.8339 90.3695 43.8301 89.9952 40.8408Z" fill="#767FAD"/>
<path opacity="0.315" fill-rule="evenodd" clip-rule="evenodd" d="M21.7001 43.8447C21.6175 45.7763 21.5073 47.7074 21.3697 49.6378C21.1212 49.2419 21.011 48.8128 21.0392 48.3504C21.2036 46.8418 21.4239 45.3399 21.7001 43.8447Z" fill="#767FAD"/>
<path fill-rule="evenodd" clip-rule="evenodd" d="M89.7749 58.8638C90.091 59.3139 90.3481 59.8145 90.546 60.3657C90.6929 61.5816 90.6929 62.7973 90.546 64.0132C90.377 62.28 90.1199 60.5635 89.7749 58.8638Z" fill="#767FAD"/>
<path opacity="0.604" fill-rule="evenodd" clip-rule="evenodd" d="M17.7347 69.3772C17.4683 68.1467 17.1011 66.9308 16.6332 65.7297C16.2908 67.4264 16.1072 69.1429 16.0824 70.8791C15.9244 70.7624 15.8143 70.6193 15.752 70.45C15.8364 67.014 16.2403 63.5811 16.9636 60.1511C17.148 63.2333 17.4051 66.3088 17.7347 69.3772Z" fill="#37505C"/>
<path fill-rule="evenodd" clip-rule="evenodd" d="M103.434 68.9481C103.496 68.5372 103.423 68.1797 103.214 67.8753C103.439 65.0131 103.696 62.1523 103.985 59.2929C104.044 62.5546 103.86 65.773 103.434 68.9481Z" fill="#D5F223" fill-opacity="0.8"/>
<path opacity="0.101" fill-rule="evenodd" clip-rule="evenodd" d="M83.3861 63.3696C83.8047 64.0171 84.0983 64.7322 84.2673 65.5152C84.1314 65.4913 84.0212 65.4199 83.9368 65.3006C83.8635 67.8753 83.7899 70.45 83.7165 73.0247C83.6837 74.0119 83.5002 74.9416 83.1658 75.814C83.6617 71.7464 83.735 67.6698 83.3861 63.5841C83.3861 63.5127 83.3861 63.441 83.3861 63.3696Z" fill="#37505C"/>
<path opacity="0.732" fill-rule="evenodd" clip-rule="evenodd" d="M21.7002 68.519C21.4508 67.8478 21.2673 67.1325 21.1494 66.3734C20.9034 66.6843 20.7565 67.0419 20.7088 67.4462C20.5987 69.519 20.562 71.5932 20.5987 73.6684C20.3435 71.5604 20.3068 69.4148 20.4885 67.2316C20.6195 65.764 20.9133 64.3338 21.3697 62.9404C21.4607 64.8024 21.5708 66.6617 21.7002 68.519Z" fill="#37505C"/>
<path opacity="0.804" fill-rule="evenodd" clip-rule="evenodd" d="M94.6216 68.9481C94.094 68.3787 93.6534 68.4501 93.2998 69.1627C93.5994 67.1005 93.7829 65.0266 93.8506 62.9404C94.3037 64.9206 94.5606 66.9233 94.6216 68.9481Z" fill="#37505C"/>
<path opacity="0.94" fill-rule="evenodd" clip-rule="evenodd" d="M79.2002 87.8293C78.9094 89.964 78.3954 92.0381 77.6581 94.0516C76.4832 94.4807 75.308 94.9098 74.1331 95.3389C74.1576 95.2065 74.231 95.0993 74.3535 95.0171C74.0497 94.1644 73.6824 93.3418 73.2519 92.5496C72.8029 93.0796 72.4357 93.6518 72.1504 94.2661C72.969 91.5659 73.7033 88.8483 74.3535 86.1129C77.8812 79.6323 79.6071 72.695 79.5307 65.3006C79.9263 66.1981 80.22 67.1278 80.4119 68.0899C81.4008 75.8992 80.2625 83.4088 76.9971 90.6186C77.0734 90.8752 77.1835 90.8752 77.3276 90.6186C77.957 89.675 78.5814 88.7451 79.2002 87.8293Z" fill="#37505C"/>
<path opacity="0.883" fill-rule="evenodd" clip-rule="evenodd" d="M41.5278 80.1052C41.6265 81.5406 41.7735 82.971 41.9684 84.3964C41.7944 84.1584 41.6842 83.8724 41.638 83.5381C41.432 84.904 41.6157 86.1914 42.1887 87.4002C42.1887 87.5433 42.2621 87.6148 42.409 87.6148C42.409 87.6862 42.409 87.7579 42.409 87.8293C42.6818 88.1971 42.8287 88.6262 42.8496 89.1167C42.6906 89.027 42.5804 88.8841 42.5192 88.6876C42.133 89.853 41.8025 91.0331 41.5278 92.2278C41.7089 92.7582 41.8558 93.2946 41.9684 93.837C40.571 94.2296 39.4695 93.8363 38.6638 92.6569C38.4574 92.5084 38.3107 92.5443 38.2232 92.7642C37.9214 92.095 37.7011 91.3798 37.5623 90.6186C37.548 90.5246 37.5845 90.4529 37.6724 90.404C37.7648 90.6555 37.9115 90.8701 38.1131 91.0477C37.7892 89.7082 37.3118 88.4209 36.6811 87.1856C35.9816 82.3804 35.2105 77.5886 34.3678 72.8102C34.2579 71.883 34.2211 70.9534 34.2577 70.0209C34.5271 68.2568 35.0043 66.5403 35.6897 64.8715C35.4542 72.7584 37.2902 80.1249 41.1974 86.9711C41.2341 86.6851 41.2707 86.3988 41.3075 86.1128C41.0724 83.8992 41.0356 81.6822 41.1974 79.4615C41.2485 79.7269 41.3586 79.9415 41.5278 80.1052ZM35.1389 70.8791C34.9651 71.1827 34.8182 71.5046 34.6983 71.8446C34.8155 72.278 35.1092 72.4568 35.5795 72.381C35.6919 71.7614 35.5452 71.2608 35.1389 70.8791Z" fill="#37505C"/>
<path opacity="0.887" fill-rule="evenodd" clip-rule="evenodd" d="M102.332 64.6569C101.855 66.9817 101.12 69.1987 100.129 71.3083C100.158 71.1203 100.085 70.9772 99.9089 70.8791C99.5655 71.0023 99.235 71.1452 98.9176 71.3083C98.8074 69.2354 98.7708 67.1613 98.8074 65.086C98.9903 66.9077 99.1004 68.7672 99.1379 70.6646C100.464 68.5784 101.492 66.3614 102.222 64.0132C102.329 64.2166 102.365 64.4312 102.332 64.6569Z" fill="#767FAD"/>
<path opacity="0.798" fill-rule="evenodd" clip-rule="evenodd" d="M15.091 69.5918C14.9465 69.4249 14.763 69.282 14.5402 69.1627C14.3717 69.1777 14.2616 69.2491 14.2097 69.3772C13.7776 68.4156 13.4105 67.4142 13.1082 66.3734C12.8202 65.3937 12.6733 64.3924 12.6676 63.3696C13.3954 65.3366 14.2032 67.4108 15.091 69.5918Z" fill="#D5F223" fill-opacity="0.8"/>
<path opacity="0.998" fill-rule="evenodd" clip-rule="evenodd" d="M83.386 63.5841C83.735 67.6697 83.6616 71.7464 83.1657 75.814C83.1657 75.8854 83.1657 75.9571 83.1657 76.0286C82.9183 77.0692 82.698 78.142 82.5048 79.2469C82.2737 80.5736 81.98 81.8609 81.6235 83.109C82.3444 76.5821 82.9319 70.0739 83.386 63.5841Z" fill="#B1B1B1"/>
<path opacity="0.999" fill-rule="evenodd" clip-rule="evenodd" d="M13.1082 66.3734C13.4105 67.4142 13.7777 68.4155 14.2098 69.3772C14.2098 69.4486 14.2098 69.5203 14.2098 69.5917C14.1261 70.0633 14.273 70.421 14.6504 70.6645C15.8672 73.8222 17.4827 76.7546 19.4971 79.4615C19.7118 79.9539 20.0056 80.383 20.3784 80.7488C21.6922 82.3149 23.0875 83.8168 24.5642 85.2546C25.2392 87.6963 25.9002 90.1637 26.5469 92.6569C26.5315 92.821 26.4581 92.9283 26.3266 92.9787C23.7017 91.138 21.2783 89.0641 19.0565 86.7565C17.7529 85.2855 16.5045 83.7836 15.3113 82.2507C15.0277 81.7922 14.8441 81.2917 14.7605 80.7488C14.054 76.2182 13.4298 71.6766 12.8879 67.1243C12.8911 66.8271 12.9645 66.577 13.1082 66.3734Z" fill="#0A0909"/>
<path opacity="0.992" fill-rule="evenodd" clip-rule="evenodd" d="M103.214 67.8753C103.423 68.1798 103.497 68.5372 103.434 68.9481C103.426 71.1377 103.279 73.3191 102.993 75.4922C102.995 75.9284 103.068 76.3217 103.214 76.6722C102.723 80.5504 102.099 84.4125 101.341 88.2584C100.928 89.8951 100.34 91.4687 99.5786 92.9788C98.5577 94.1294 97.6029 94.058 96.7146 92.7642C96.192 92.0325 95.7882 91.2458 95.5029 90.404C95.4886 90.3101 95.5251 90.2384 95.6131 90.1895C95.8501 90.7428 96.2539 91.1005 96.8247 91.2623C97.3101 91.24 97.7507 91.0971 98.1466 90.8332C99.1164 89.4012 99.8139 87.8278 100.239 86.1129C100.597 84.2801 101.001 82.4563 101.451 80.6416C101.445 80.412 101.372 80.2333 101.231 80.1052C101.584 79.2849 101.841 78.4267 102.002 77.5305C102.352 74.3007 102.756 71.0823 103.214 67.8753Z" fill="#D5F223" fill-opacity="0.8"/>
<path opacity="0.704" fill-rule="evenodd" clip-rule="evenodd" d="M44.1715 71.7373C44.0124 71.6477 43.9022 71.5048 43.841 71.3082C43.7566 71.4275 43.6465 71.499 43.5105 71.5228C43.474 69.8048 43.5105 68.0883 43.6207 66.3734C43.8943 68.1486 44.078 69.9365 44.1715 71.7373Z" fill="#767FAD"/>
<path opacity="0.989" fill-rule="evenodd" clip-rule="evenodd" d="M12.0067 60.1511C12.1427 60.1749 12.2529 60.2464 12.3372 60.3657C12.3756 61.4065 12.4858 62.4079 12.6676 63.3695C12.6734 64.3923 12.8202 65.3937 13.1082 66.3733C12.9645 66.577 12.8911 66.8271 12.8879 67.1243C13.4298 71.6766 14.054 76.2182 14.7605 80.7488C14.8441 81.2917 15.0277 81.7922 15.3113 82.2507C15.4515 85.0801 16.2226 87.798 17.6245 90.404C18.0033 90.8453 18.4439 91.203 18.9464 91.4768C19.8287 91.1535 20.4529 90.5812 20.819 89.7603C18.7217 95.2659 16.8491 95.1945 15.2012 89.5458C14.4509 86.0345 13.7533 82.5301 13.1082 79.0323C13.3279 79.0388 13.4748 78.9315 13.5489 78.7105C12.7322 72.5503 12.2181 66.3637 12.0067 60.1511Z" fill="#D5F223" fill-opacity="0.8"/>
<path opacity="0.894" fill-rule="evenodd" clip-rule="evenodd" d="M14.2098 69.5918C14.4384 69.8986 14.5852 70.2563 14.6504 70.6646C14.273 70.4211 14.1261 70.0634 14.2098 69.5918Z" fill="#D5F223" fill-opacity="0.8"/>
<path opacity="0.129" fill-rule="evenodd" clip-rule="evenodd" d="M71.4895 68.7335C71.7832 70.6646 71.7832 72.5956 71.4895 74.5266C71.5609 73.056 71.4875 71.6256 71.2692 70.2354C71.2247 69.7098 71.2981 69.2092 71.4895 68.7335Z" fill="#D5F223" fill-opacity="0.8"/>
<path opacity="0.271" fill-rule="evenodd" clip-rule="evenodd" d="M87.7921 75.1703C87.9386 71.2441 87.6447 71.1725 86.9109 74.9558C86.9492 73.5131 87.0962 72.0826 87.3515 70.6646C87.5106 70.5749 87.6207 70.432 87.682 70.2355C88.0657 71.9015 88.1025 73.5463 87.7921 75.1703Z" fill="#D5F223" fill-opacity="0.8"/>
<path opacity="0.149" fill-rule="evenodd" clip-rule="evenodd" d="M90.2156 71.7374C90.2859 72.7808 90.2125 73.7821 89.9953 74.7412C90.031 74.3063 89.9942 73.8772 89.8851 73.4539C89.5551 74.9543 89.0777 76.3847 88.4531 77.7451C89.072 75.4774 89.6227 73.1887 90.1054 70.8792C90.2134 71.1566 90.2502 71.4428 90.2156 71.7374Z" fill="#D5F223" fill-opacity="0.8"/>
<path opacity="0.94" fill-rule="evenodd" clip-rule="evenodd" d="M68.1848 78.1741C66.9738 84.8943 65.2114 91.4742 62.8975 97.9136C62.5452 97.8561 62.2516 97.9278 62.0163 98.1282C61.5023 98.1282 60.9881 98.1282 60.4741 98.1282C60.1805 98.1282 59.8866 98.1282 59.5929 98.1282C60.2677 97.9777 60.9654 97.8346 61.6858 97.699C61.7636 96.923 61.9471 96.172 62.2366 95.4462C61.9422 94.8716 61.7585 94.2637 61.6858 93.6224C61.538 93.4611 61.3545 93.3894 61.135 93.4078C64.3522 87.4412 66.5552 81.1475 67.7442 74.5266C67.6865 74.8437 67.7599 75.1297 67.9645 75.3849C68.2199 74.6077 68.2564 73.8209 68.0747 73.0247C68.0326 73.4985 67.9225 73.9276 67.7442 74.3121C67.8207 73.0833 68.0044 71.8674 68.295 70.6646C68.4417 73.1712 68.4049 75.6745 68.1848 78.1741Z" fill="#37505C"/>
<path opacity="0.616" fill-rule="evenodd" clip-rule="evenodd" d="M85.5891 74.7412C85.641 75.4083 85.5677 76.052 85.3687 76.6722C85.2491 76.6594 85.1758 76.5879 85.1484 76.4577C85.2762 75.8546 85.4229 75.2825 85.5891 74.7412Z" fill="#767FAD"/>
<path opacity="0.506" fill-rule="evenodd" clip-rule="evenodd" d="M97.706 76.4576C97.722 76.7853 97.5751 76.9998 97.2654 77.1013C97.2493 76.7737 97.3962 76.5591 97.706 76.4576Z" fill="#D5F223" fill-opacity="0.8"/>
<path opacity="0.806" fill-rule="evenodd" clip-rule="evenodd" d="M87.7922 75.1703C87.8081 76.4673 87.6979 77.7547 87.4618 79.0324C87.0423 79.7022 86.8953 80.4173 87.0211 81.178C87.1879 80.7885 87.3714 80.4311 87.5719 80.1052C87.1782 81.6856 86.7376 83.2592 86.2501 84.8255C86.2739 85.0276 86.3472 85.2063 86.4704 85.3619C87.258 85.4593 87.9189 85.7811 88.4531 86.3274C88.5075 86.8333 88.3608 87.2624 88.0125 87.6147C86.9729 88.4843 85.8714 89.2711 84.7079 89.9749C84.093 89.7133 83.4689 89.4273 82.8353 89.1166C81.5979 89.8923 80.6798 90.9292 80.0815 92.2278C80.0969 92.3919 80.1703 92.4992 80.3018 92.5496C80.1976 92.8513 79.9773 92.9944 79.6409 92.9787C80.2709 90.1714 80.8583 87.3822 81.4033 84.6109C81.3705 84.8366 81.4071 85.0512 81.5135 85.2546C82.2667 85.5904 82.7073 86.1626 82.8353 86.9711C82.9935 87.1751 83.177 87.2107 83.3861 87.0783C83.4066 85.6444 83.7736 84.3215 84.4876 83.109C84.3272 84.1856 84.2171 85.2584 84.1572 86.3274C85.0366 83.4012 85.8077 80.469 86.4704 77.5304C86.4358 77.825 86.4726 78.1113 86.5805 78.3887C86.7275 78.6747 86.8742 78.6747 87.0211 78.3887C87.3974 77.3161 87.6543 76.2433 87.7922 75.1703Z" fill="#37505C"/>
<path opacity="0.114" fill-rule="evenodd" clip-rule="evenodd" d="M83.1657 76.0286C83.2485 77.1859 83.0282 78.2587 82.5048 79.247C82.698 78.142 82.9183 77.0692 83.1657 76.0286Z" fill="#D5F223" fill-opacity="0.8"/>
<path opacity="0.767" fill-rule="evenodd" clip-rule="evenodd" d="M73.9128 83.7527C73.1948 88.2082 71.9464 92.4994 70.1676 96.6263C69.8279 96.7981 69.4609 96.8696 69.0661 96.8408C69.2639 96.6996 69.4842 96.5567 69.727 96.4117C67.6202 95.3413 65.7476 95.6273 64.1092 97.2699C64.0678 97.6049 64.2513 97.748 64.6599 97.6991C64.1958 97.9068 63.6816 97.9784 63.1178 97.9136C65.9318 91.3369 68.2084 84.6139 69.9473 77.745C69.7407 81.3632 70.1813 81.4346 71.2691 77.9596C71.0482 80.7165 70.571 83.4341 69.8371 86.1129C69.0352 88.4588 68.154 90.7473 67.1935 92.9788C67.3494 92.7897 67.5332 92.6468 67.7442 92.5496C67.5858 93.0354 67.5125 93.536 67.5239 94.0515C67.7828 94.0985 68.0031 94.0271 68.1848 93.837C68.3459 92.9871 68.7129 92.2362 69.2864 91.5841C70.825 91.509 71.5961 90.7581 71.5996 89.3312C71.2766 88.9397 70.8728 88.8324 70.3879 89.0094C69.7572 89.9423 69.0963 90.8364 68.4052 91.6914C70.5624 88.2758 72.1779 84.6283 73.2519 80.7489C73.257 79.5958 73.3671 78.4516 73.5824 77.3159C73.8831 79.4493 73.9932 81.5949 73.9128 83.7527ZM67.7442 92.5496C68.069 92.3488 68.2893 92.0626 68.4052 91.6914C69.0963 90.8364 69.7572 89.9423 70.3879 89.0094C70.8728 88.8324 71.2766 88.9397 71.5996 89.3312C71.5961 90.7581 70.825 91.509 69.2864 91.5841C68.7129 92.2362 68.3459 92.9871 68.1848 93.837C68.0031 94.0271 67.7828 94.0985 67.5239 94.0515C67.5125 93.536 67.5858 93.0354 67.7442 92.5496Z" fill="#37505C"/>
<path opacity="0.855" fill-rule="evenodd" clip-rule="evenodd" d="M89.775 78.3887C89.7873 79.511 89.6404 80.5838 89.3343 81.6071C89.2658 80.4772 89.4126 79.4044 89.775 78.3887Z" fill="#D5F223" fill-opacity="0.8"/>
<path opacity="0.8" fill-rule="evenodd" clip-rule="evenodd" d="M95.5028 79.676C95.4504 80.0845 95.2301 80.3708 94.8419 80.5343C94.8944 80.1257 95.1147 79.8395 95.5028 79.676Z" fill="#D5F223" fill-opacity="0.8"/>
<path opacity="0.824" fill-rule="evenodd" clip-rule="evenodd" d="M101.231 80.1052C101.372 80.2333 101.445 80.412 101.451 80.6416C101.001 82.4563 100.597 84.2801 100.239 86.1128C99.8138 87.8278 99.1163 89.4012 98.1465 90.8331C98.4596 88.912 98.5698 86.9809 98.477 85.04C98.2543 84.8604 97.9972 84.789 97.7059 84.8255C98.9731 83.307 100.148 81.7337 101.231 80.1052Z" fill="#37505C"/>
<path opacity="0.569" fill-rule="evenodd" clip-rule="evenodd" d="M27.4282 76.6722C27.6573 78.2454 28.0979 79.7829 28.75 81.2853C28.3894 81.7039 28.0589 81.668 27.7587 81.178C27.5716 80.5298 27.3879 79.8861 27.2079 79.247C27.3669 79.3366 27.4771 79.4795 27.5383 79.6761C27.5751 79.4973 27.6117 79.3184 27.6485 79.1397C27.4701 78.3261 27.3965 77.5037 27.4282 76.6722Z" fill="#D5F223" fill-opacity="0.8"/>
<path opacity="0.724" fill-rule="evenodd" clip-rule="evenodd" d="M45.9339 79.4615C46.4968 81.1342 47.1945 82.7792 48.0268 84.3964C48.0881 84.1998 48.1982 84.0569 48.3573 83.9672C49.4599 87.9038 50.7817 91.7658 52.3228 95.5534C52.5429 96.1246 52.7632 96.6966 52.9837 97.2699C52.4468 96.7372 51.7859 96.4509 51.001 96.4117C50.9441 95.5663 50.6872 94.7795 50.2299 94.0515C49.7857 93.5686 49.2718 93.4971 48.6877 93.837C47.8638 93.6428 47.3866 93.142 47.2557 92.335C47.4668 92.4322 47.6505 92.5751 47.8065 92.7642C47.8433 92.6927 47.8799 92.6211 47.9167 92.5496C46.2481 89.5142 45.1465 86.2958 44.6121 82.8944C45.2673 83.492 45.7447 83.3491 46.0441 82.4653C46.1683 81.4582 46.1315 80.457 45.9339 79.4615ZM47.6964 87.4002C48.4573 87.4982 48.8245 87.9274 48.7979 88.6875C48.7873 89.2945 48.567 89.7953 48.137 90.1895C46.9041 89.3563 46.7572 88.4266 47.6964 87.4002ZM48.3573 90.6186C49.4436 90.8194 49.9578 91.4631 49.8994 92.5496C48.7109 92.4621 48.1969 91.8184 48.3573 90.6186Z" fill="#37505C"/>
<path opacity="0.671" fill-rule="evenodd" clip-rule="evenodd" d="M94.8419 80.5343C94.858 80.8619 94.7111 81.0765 94.4013 81.178C94.3853 80.8503 94.5322 80.6358 94.8419 80.5343Z" fill="#D5F223" fill-opacity="0.8"/>
<path opacity="0.349" fill-rule="evenodd" clip-rule="evenodd" d="M23.9033 79.8906C24.2363 80.5437 24.3831 81.2591 24.3439 82.0362C24.0109 81.3831 23.8641 80.6678 23.9033 79.8906Z" fill="#D5F223" fill-opacity="0.8"/>
<path opacity="0.516" fill-rule="evenodd" clip-rule="evenodd" d="M30.0718 79.676C30.7449 82.0939 31.4424 84.5255 32.1648 86.971C32.2383 86.4675 32.2015 85.9667 32.0546 85.4691C32.4326 86.1677 32.8733 86.8472 33.3764 87.5074C33.6265 87.6681 33.8468 87.6325 34.0374 87.4002C34.1074 86.2731 34.1074 85.1288 34.0374 83.9672C34.2724 84.4959 34.5661 84.9965 34.9186 85.4691C35.5286 88.1505 36.0426 90.7966 36.4607 93.4078C35.5447 93.1564 34.7368 92.7272 34.0374 92.1205C34.1339 92.1344 34.2074 92.0988 34.2577 92.0132C34.0462 91.7087 33.8627 91.3869 33.7069 91.0477C32.413 89.6784 30.9077 88.6056 29.1906 87.8293C29.0642 87.4948 28.9174 87.1729 28.75 86.8638C28.7756 85.874 29.2895 85.4807 30.2921 85.6837C30.2695 85.1003 30.343 84.5283 30.5125 83.9672C30.2721 82.4857 30.1254 81.0552 30.0718 79.676Z" fill="#37505C"/>
<path opacity="0.999" fill-rule="evenodd" clip-rule="evenodd" d="M74.3534 86.1128C73.7033 88.8482 72.969 91.5658 72.1503 94.2661C71.8055 94.6971 71.5852 95.1979 71.4894 95.768C71.5647 95.9478 71.7115 96.0195 71.93 95.9825C71.6828 96.293 71.3524 96.5076 70.9386 96.6262C70.5897 97.522 70.0755 98.3086 69.3965 98.9864C69.6417 98.2161 69.8986 97.4295 70.1676 96.6262C71.9463 92.4994 73.1948 88.2082 73.9128 83.7527C74.4587 81.3648 74.9359 78.933 75.3448 76.4576C75.2328 79.6943 74.9024 82.9127 74.3534 86.1128Z" fill="#D5F223" fill-opacity="0.8"/>
<path opacity="0.039" fill-rule="evenodd" clip-rule="evenodd" d="M84.9282 80.7488C84.9735 81.3914 84.8268 81.9637 84.4875 82.4653C84.5019 81.8371 84.6488 81.2649 84.9282 80.7488Z" fill="#D5F223" fill-opacity="0.8"/>
<path opacity="0.982" fill-rule="evenodd" clip-rule="evenodd" d="M42.6294 83.9672C42.6294 84.1103 42.6294 84.2532 42.6294 84.3963C42.5771 84.6733 42.6505 84.8879 42.8497 85.04C42.7847 85.5196 42.8583 85.9487 43.07 86.3274C43.9265 89.7977 44.9913 93.2306 46.2644 96.6262C46.4836 96.7477 46.6671 96.8908 46.8152 97.0553C46.6682 97.0553 46.5215 97.0553 46.3746 97.0553C46.0904 96.9356 45.9069 96.7211 45.8238 96.4117C45.676 96.573 45.4925 96.6447 45.273 96.6262C45.273 96.4831 45.1997 96.4117 45.0527 96.4117C44.0451 94.0603 43.3108 91.6287 42.8497 89.1166C42.8287 88.6262 42.6818 88.197 42.4091 87.8293C42.4091 87.7578 42.4091 87.6862 42.4091 87.6147C42.2621 87.6147 42.1887 87.5433 42.1887 87.4002C42.1154 86.3988 42.0418 85.3977 41.9684 84.3963C41.7735 82.971 41.6265 81.5405 41.5278 80.1051C41.499 79.9466 41.5358 79.8035 41.638 79.676C41.946 81.1207 42.2764 82.5511 42.6294 83.9672Z" fill="#D5F223" fill-opacity="0.8"/>
<path opacity="0.857" fill-rule="evenodd" clip-rule="evenodd" d="M15.3113 82.2508C16.5045 83.7836 17.7529 85.2855 19.0565 86.7565C18.9205 86.7804 18.8103 86.8518 18.726 86.9711C18.2639 88.2673 18.6678 89.1255 19.9377 89.5458C20.3175 89.2967 20.6846 89.3323 21.0392 89.6531C20.9889 89.7387 20.9155 89.7743 20.8189 89.7604C20.4529 90.5813 19.8287 91.1535 18.9463 91.4768C18.4439 91.2031 18.0033 90.8454 17.6245 90.4041C16.2225 87.798 15.4515 85.0802 15.3113 82.2508Z" fill="#37505C"/>
<path opacity="0.324" fill-rule="evenodd" clip-rule="evenodd" d="M51.2213 87.8293C51.025 87.6984 50.8047 87.627 50.5604 87.6147C50.0667 86.3109 49.6994 84.9521 49.4588 83.5381C49.4445 83.4441 49.4811 83.3725 49.569 83.3235C50.1438 84.8248 50.6945 86.3267 51.2213 87.8293Z" fill="#37505C"/>
<path opacity="0.999" fill-rule="evenodd" clip-rule="evenodd" d="M88.0125 87.6147C88.1533 87.7428 88.2266 87.9216 88.2328 88.1511C87.8915 89.3128 87.6344 90.4928 87.4617 91.6914C87.0984 92.9369 86.5477 94.0811 85.8094 95.1243C83.294 96.6353 80.6503 97.9226 77.8784 98.9864C77.7588 98.9735 77.6854 98.9021 77.6581 98.7718C78.4221 96.8655 79.083 94.9344 79.6408 92.9787C79.9772 92.9944 80.1976 92.8513 80.3018 92.5496C80.4981 92.4187 80.7184 92.3473 80.9627 92.3351C81.2991 92.3507 81.5194 92.2076 81.6236 91.9059C82.6436 91.2653 83.6718 90.6216 84.7079 89.9749C85.8713 89.2711 86.9729 88.4844 88.0125 87.6147Z" fill="#0C0B0B"/>
<path opacity="0.165" fill-rule="evenodd" clip-rule="evenodd" d="M96.8247 91.2623C96.2539 91.1005 95.85 90.7428 95.613 90.1895C95.5251 90.2384 95.4885 90.3101 95.5028 90.404C95.0435 89.9354 94.8232 89.3632 94.8419 88.6876C95.5348 88.8114 95.8652 89.2405 95.8333 89.9749C96.1267 90.4384 96.4572 90.8675 96.8247 91.2623Z" fill="#37505C"/>
<path opacity="0.999" fill-rule="evenodd" clip-rule="evenodd" d="M28.3094 88.473C30.0996 89.8575 32.009 91.0735 34.0374 92.1205C34.7368 92.7273 35.5447 93.1564 36.4607 93.4079C37.1838 95.3964 37.9916 97.363 38.8841 99.3082C38.6752 99.4119 38.4549 99.4475 38.2232 99.4155C35.505 98.482 32.9347 97.2661 30.5125 95.768C30.3644 95.6034 30.1809 95.4603 29.9617 95.3389C29.2404 93.1249 28.5429 90.9076 27.8688 88.6876C27.9695 88.5163 28.1164 88.4449 28.3094 88.473Z" fill="#0C0B0B"/>
<path fill-rule="evenodd" clip-rule="evenodd" d="M36.681 87.1856C37.3118 88.4208 37.7892 89.7082 38.113 91.0477C37.9114 90.87 37.7647 90.6555 37.6724 90.404C37.5845 90.4529 37.5479 90.5246 37.5623 90.6186C37.2329 89.5074 36.939 88.3631 36.681 87.1856Z" fill="#37505C"/>
<path opacity="0.698" fill-rule="evenodd" clip-rule="evenodd" d="M81.6236 91.9059C81.5194 92.2076 81.2991 92.3507 80.9626 92.3351C81.0669 92.0334 81.2872 91.8903 81.6236 91.9059Z" fill="#D5F223" fill-opacity="0.8"/>
<path fill-rule="evenodd" clip-rule="evenodd" d="M77.6581 94.0515C77.1741 95.9971 76.4396 97.8567 75.455 99.6301C75.0926 99.8867 74.7256 100.101 74.3535 100.274C63.6278 103.546 52.8328 103.69 41.9684 100.703C41.6714 100.467 41.341 100.252 40.977 100.059C40.1007 98.3944 39.3296 96.6779 38.6638 94.9098C38.7645 94.7385 38.9114 94.6671 39.1044 94.6952C41.0559 95.367 43.0387 95.9392 45.0527 96.4117C45.1997 96.4117 45.273 96.4831 45.273 96.6262C45.9139 97.6585 46.6116 98.6598 47.3659 99.6301C47.109 98.7755 46.7786 97.9172 46.3745 97.0553C46.5215 97.0553 46.6682 97.0553 46.8152 97.0553C47.6431 97.13 48.4507 97.2731 49.2385 97.4845C50.0559 97.8355 50.9371 97.9784 51.8822 97.9136C52.1025 97.9136 52.3228 97.9136 52.5431 97.9136C54.1095 98.2303 55.725 98.3734 57.3899 98.3427C58.4575 98.3425 59.4854 98.271 60.4742 98.1281C60.9881 98.1281 61.5023 98.1281 62.0163 98.1281C62.2366 98.1281 62.4569 98.1281 62.6772 98.1281C62.6444 98.3539 62.681 98.5684 62.7874 98.7718C62.8777 98.4712 62.9879 98.1852 63.1178 97.9136C63.6816 97.9784 64.1958 97.9067 64.66 97.699C65.4403 97.4469 66.2482 97.304 67.0834 97.2699C67.756 97.3534 68.3435 97.2105 68.8458 96.8408C68.9192 96.8408 68.9928 96.8408 69.0661 96.8408C69.4609 96.8695 69.8279 96.7981 70.1676 96.6262C69.8987 97.4295 69.6418 98.2161 69.3966 98.9864C70.0756 98.3086 70.5898 97.522 70.9387 96.6262C71.3525 96.5076 71.6829 96.293 71.9301 95.9825C72.6644 95.768 73.3989 95.5534 74.1332 95.3389C75.3081 94.9098 76.4832 94.4806 77.6581 94.0515ZM69.0661 96.8408C68.9928 96.8408 68.9192 96.8408 68.8458 96.8408C68.2129 96.9056 67.6255 97.0487 67.0834 97.2699C66.2482 97.304 65.4403 97.4469 64.66 97.699C64.2513 97.7479 64.0678 97.6048 64.1092 97.2699C65.7476 95.6272 67.6202 95.3412 69.727 96.4117C69.4843 96.5567 69.264 96.6996 69.0661 96.8408Z" fill="#0B0A0A"/>
<path opacity="0.137" fill-rule="evenodd" clip-rule="evenodd" d="M72.1504 94.2661C72.139 94.8767 71.9187 95.3775 71.4895 95.768C71.5853 95.1979 71.8056 94.6972 72.1504 94.2661Z" fill="#D5F223" fill-opacity="0.8"/>
<path opacity="0.987" fill-rule="evenodd" clip-rule="evenodd" d="M46.3745 97.0554C46.7785 97.9172 47.109 98.7755 47.3659 99.6301C46.6115 98.6598 45.9138 97.6585 45.2729 96.6262C45.4924 96.6447 45.6759 96.573 45.8237 96.4117C45.9068 96.7211 46.0903 96.9356 46.3745 97.0554Z" fill="#D5F223" fill-opacity="0.8"/>
<path opacity="0.596" fill-rule="evenodd" clip-rule="evenodd" d="M68.8458 96.8408C68.3435 97.2105 67.756 97.3534 67.0834 97.2699C67.6255 97.0487 68.2129 96.9056 68.8458 96.8408Z" fill="#D5F223" fill-opacity="0.8"/>
<path opacity="0.686" fill-rule="evenodd" clip-rule="evenodd" d="M52.3228 94.0515C52.8766 95.2799 53.3172 96.5672 53.6446 97.9136C54.8171 98.0166 55.992 98.088 57.1695 98.1281C57.4632 98.1281 57.7571 98.1281 58.0507 98.1281C58.5647 98.1281 59.0789 98.1281 59.5929 98.1281C59.8865 98.1281 60.1804 98.1281 60.4741 98.1281C59.4854 98.271 58.4574 98.3425 57.3898 98.3427C55.7249 98.3734 54.1094 98.2303 52.5431 97.9136C52.7748 97.9456 52.9951 97.9099 53.204 97.8063C53.0383 97.6623 52.9647 97.4836 52.9837 97.2699C52.7631 96.6966 52.5428 96.1246 52.3228 95.5534C52.4556 95.0973 52.4556 94.5967 52.3228 94.0515Z" fill="#D5F223" fill-opacity="0.8"/>
<path opacity="0.384" fill-rule="evenodd" clip-rule="evenodd" d="M49.2385 97.4845C50.1649 97.5311 51.0461 97.674 51.8822 97.9136C50.9371 97.9784 50.0559 97.8355 49.2385 97.4845Z" fill="#D5F223" fill-opacity="0.8"/>
<path opacity="0.122" fill-rule="evenodd" clip-rule="evenodd" d="M34.478 101.561C35.6483 102.166 36.8966 102.453 38.2232 102.419C36.8172 102.846 35.5688 102.56 34.478 101.561Z" fill="#D5F223" fill-opacity="0.8"/>
<path opacity="0.216" fill-rule="evenodd" clip-rule="evenodd" d="M76.9971 102.205C77.8741 102.317 78.7553 102.388 79.6407 102.419C79.3559 102.561 79.0254 102.632 78.6494 102.634C78.0279 102.654 77.4771 102.511 76.9971 102.205Z" fill="#D5F223" fill-opacity="0.8"/>
<path opacity="0.075" fill-rule="evenodd" clip-rule="evenodd" d="M47.6964 102.634C47.9901 102.776 47.9901 102.776 47.6964 102.634V102.634Z" fill="#D5F223" fill-opacity="0.8"/>
<path opacity="0.939" fill-rule="evenodd" clip-rule="evenodd" d="M53.2041 103.492C53.4405 103.653 53.4773 103.868 53.3142 104.136C50.4172 108.773 46.1948 110.74 40.6466 110.036C44.4152 109.791 47.7931 108.575 50.7807 106.389C51.7223 105.515 52.5299 104.549 53.2041 103.492Z" fill="#D5F223" fill-opacity="0.8"/>
<path opacity="0.944" fill-rule="evenodd" clip-rule="evenodd" d="M62.6772 103.492C64.7558 106.224 67.4729 108.119 70.8286 109.178C72.2835 109.534 73.7521 109.82 75.2347 110.036C71.0751 110.605 67.5134 109.425 64.5499 106.496C63.7548 105.59 63.1304 104.589 62.6772 103.492Z" fill="#D5F223" fill-opacity="0.8"/>
</svg>
