<svg width="18" height="20" viewBox="0 0 18 20" fill="none" xmlns="http://www.w3.org/2000/svg">
<path fill-rule="evenodd" clip-rule="evenodd" d="M14.4697 11.4697C14.1768 11.7626 14.1768 12.2374 14.4697 12.5303C14.7626 12.8232 15.2374 12.8232 15.5303 12.5303L16.8232 11.2374C17.5066 10.554 17.5066 9.44598 16.8232 8.76256L15.5303 7.46967C15.2374 7.17678 14.7626 7.17678 14.4697 7.46967C14.1768 7.76256 14.1768 8.23744 14.4697 8.53033L15.1893 9.25L10 9.25C9.58579 9.25 9.25 9.58579 9.25 10C9.25 10.4142 9.58579 10.75 10 10.75L15.1893 10.75L14.4697 11.4697Z" fill="#D5F223" fill-opacity="0.8"/>
<path fill-rule="evenodd" clip-rule="evenodd" d="M8 2.51611L11 2.51611C12.5188 2.51611 13.75 3.74733 13.75 5.26611C13.75 5.68033 13.4142 6.01611 13 6.01611C12.5858 6.01611 12.25 5.68033 12.25 5.26611C12.25 4.57576 11.6904 4.01611 11 4.01611H8V2.51611ZM13 14.5161C13.4142 14.5161 13.75 14.8519 13.75 15.2661C13.75 16.7849 12.5188 18.0161 11 18.0161H8V16.5161H11C11.6904 16.5161 12.25 15.9565 12.25 15.2661C12.25 14.8519 12.5858 14.5161 13 14.5161Z" fill="#D5F223" fill-opacity="0.8"/>
<path opacity="0.4" d="M0 3.99676C0 3.27511 0.381946 2.60121 1.01783 2.20091L4.44642 0.366124C5.9654 -0.590105 8.00002 0.438116 8.00002 2.16198V17.838C8.00002 19.5619 5.9654 20.5901 4.44642 19.6339L1.01785 17.7959C0.381963 17.3956 1.71661e-05 16.7217 1.71661e-05 16L0 3.99676Z" fill="#D5F223" fill-opacity="0.8"/>
</svg>
