<svg width="19" height="19" viewBox="0 0 19 19" fill="none" xmlns="http://www.w3.org/2000/svg">
<path d="M14.25 5.6685C14.2025 5.66058 14.1471 5.66058 14.0996 5.6685C13.0071 5.62892 12.1362 4.73433 12.1362 3.626C12.1362 2.49391 13.0466 1.5835 14.1787 1.5835C15.3108 1.5835 16.2212 2.50183 16.2212 3.626C16.2133 4.73433 15.3425 5.62892 14.25 5.6685Z" stroke="#D5F223" stroke-opacity="0.8" stroke-width="1.5" stroke-linecap="round" stroke-linejoin="round"/>
<path d="M13.4346 11.432C14.5192 11.614 15.7146 11.424 16.5537 10.862C17.67 10.1178 17.67 8.89862 16.5537 8.15446C15.7067 7.59237 14.4954 7.40237 13.4108 7.59237" stroke="#D5F223" stroke-opacity="0.8" stroke-width="1.5" stroke-linecap="round" stroke-linejoin="round"/>
<path d="M4.72626 5.6685C4.77376 5.66058 4.82917 5.66058 4.87667 5.6685C5.96917 5.62892 6.84 4.73433 6.84 3.626C6.84 2.49391 5.92959 1.5835 4.79751 1.5835C3.66542 1.5835 2.755 2.50183 2.755 3.626C2.76292 4.73433 3.63376 5.62892 4.72626 5.6685Z" stroke="#D5F223" stroke-opacity="0.8" stroke-width="1.5" stroke-linecap="round" stroke-linejoin="round"/>
<path d="M5.54168 11.432C4.4571 11.614 3.26168 11.424 2.42251 10.862C1.30626 10.1178 1.30626 8.89862 2.42251 8.15446C3.2696 7.59237 4.48085 7.40237 5.56543 7.59237" stroke="#D5F223" stroke-opacity="0.8" stroke-width="1.5" stroke-linecap="round" stroke-linejoin="round"/>
<path d="M9.49998 11.5821C9.45248 11.5742 9.39706 11.5742 9.34956 11.5821C8.25706 11.5425 7.38623 10.6479 7.38623 9.53957C7.38623 8.40749 8.29665 7.49707 9.42873 7.49707C10.5608 7.49707 11.4712 8.41541 11.4712 9.53957C11.4633 10.6479 10.5925 11.5504 9.49998 11.5821Z" stroke="#D5F223" stroke-opacity="0.4" stroke-width="1.5" stroke-linecap="round" stroke-linejoin="round"/>
<path d="M7.19626 14.0757C6.08001 14.8198 6.08001 16.039 7.19626 16.7832C8.46292 17.6302 10.5371 17.6302 11.8038 16.7832C12.92 16.039 12.92 14.8198 11.8038 14.0757C10.545 13.2365 8.46292 13.2365 7.19626 14.0757Z" stroke="#D5F223" stroke-opacity="0.4" stroke-width="1.5" stroke-linecap="round" stroke-linejoin="round"/>
</svg>
