<svg width="24" height="24" viewBox="0 0 24 24" fill="none" xmlns="http://www.w3.org/2000/svg">
<path opacity="0.4" d="M18.14 21.62C17.26 21.88 16.22 22 15 22H8.99998C7.77998 22 6.73999 21.88 5.85999 21.62C6.07999 19.02 8.74998 16.97 12 16.97C15.25 16.97 17.92 19.02 18.14 21.62Z" stroke="#D5F223" stroke-opacity="0.8" stroke-width="1.5" stroke-linecap="round" stroke-linejoin="round"/>
<path d="M22 9V15C22 18.78 20.86 20.85 18.14 21.62C17.26 21.88 16.22 22 15 22H9C7.78 22 6.74 21.88 5.86 21.62C3.14 20.85 2 18.78 2 15V9C2 4 4 2 9 2H15C20 2 22 4 22 9Z" stroke="#D5F223" stroke-opacity="0.8" stroke-width="1.5" stroke-linecap="round" stroke-linejoin="round"/>
<path opacity="0.4" d="M15.58 10.58C15.58 12.56 13.98 14.17 12 14.17C10.02 14.17 8.42004 12.56 8.42004 10.58C8.42004 8.60002 10.02 7 12 7C13.98 7 15.58 8.60002 15.58 10.58Z" stroke="#D5F223" stroke-opacity="0.8" stroke-width="1.5" stroke-linecap="round" stroke-linejoin="round"/>
</svg>
