<svg width="50" height="40" viewBox="0 0 50 40" fill="none" xmlns="http://www.w3.org/2000/svg">
<path d="M37.6213 34.7087C37.6213 34.7087 38.3495 35.7621 40.6687 37.2403C40.8422 37.3495 41.0243 37.4624 41.216 37.5765C41.9442 38.0121 42.7997 38.4757 43.8107 38.9563L44.0534 32.767C44.0534 32.767 47.2087 33.0097 50 31.7961C49.6784 31.6359 48.2925 30.8896 46.2997 29.3447C46.1213 29.2075 45.9357 29.0619 45.7488 28.9102C44.8677 28.2015 43.8859 27.3483 42.8361 26.335C41.2621 29.0049 37.6213 34.7087 37.6213 34.7087Z" fill="url(#paint0_linear_575_19677)"/>
<path d="M12.3786 34.3447C12.3786 34.3447 11.6505 35.3981 9.33131 36.8763C9.15777 36.9855 8.97573 37.0984 8.78398 37.2125C8.05583 37.6481 7.20631 38.1117 6.18932 38.5923L5.9466 32.403C5.9466 32.403 2.79126 32.6457 0 31.4321C0.321602 31.2719 1.70752 30.5256 3.70024 28.9807C3.87864 28.8435 4.06432 28.6979 4.25121 28.5462C5.13228 27.8375 6.11408 26.9843 7.16384 25.9709C8.73786 28.6409 12.3786 34.3447 12.3786 34.3447Z" fill="url(#paint1_linear_575_19677)"/>
<path d="M9.33126 36.8762C9.15772 36.9855 8.97568 37.0983 8.78393 37.2124C8.35068 35.8059 6.62374 32.6991 5.94655 31.7961C5.46999 31.1483 4.94242 30.5396 4.36888 29.9758C4.14437 29.7512 3.87374 29.2961 3.7002 28.9806C3.87859 28.8435 4.06427 28.6978 4.25117 28.5461C4.47204 28.8957 4.80699 29.4187 5.10068 29.8544C5.58612 30.5826 8.6201 34.466 8.98418 35.1942C9.22325 35.6772 9.30335 36.426 9.33126 36.8762Z" fill="#9925E8"/>
<path fill-rule="evenodd" clip-rule="evenodd" d="M25 39.3204C35.8581 39.3204 44.6602 30.5182 44.6602 19.6602C44.6602 8.80217 35.8581 0 25 0C14.142 0 5.33984 8.80217 5.33984 19.6602C5.33984 30.5182 14.142 39.3204 25 39.3204ZM25 34.5874C33.244 34.5874 39.9272 27.9043 39.9272 19.6602C39.9272 11.4161 33.244 4.73301 25 4.73301C16.7559 4.73301 10.0728 11.4161 10.0728 19.6602C10.0728 27.9043 16.7559 34.5874 25 34.5874Z" fill="#6C7E92"/>
<mask id="mask0_575_19677" style="mask-type:alpha" maskUnits="userSpaceOnUse" x="5" y="0" width="40" height="40">
<path fill-rule="evenodd" clip-rule="evenodd" d="M25 39.3204C35.8581 39.3204 44.6602 30.5182 44.6602 19.6602C44.6602 8.80217 35.8581 0 25 0C14.142 0 5.33984 8.80217 5.33984 19.6602C5.33984 30.5182 14.142 39.3204 25 39.3204ZM25 34.5874C33.244 34.5874 39.9272 27.9043 39.9272 19.6602C39.9272 11.4161 33.244 4.73301 25 4.73301C16.7559 4.73301 10.0728 11.4161 10.0728 19.6602C10.0728 27.9043 16.7559 34.5874 25 34.5874Z" fill="#6C7E92"/>
</mask>
<g mask="url(#mask0_575_19677)">
<g filter="url(#filter0_f_575_19677)">
<ellipse cx="12.9826" cy="6.70771" rx="4.49029" ry="9.10194" transform="rotate(42.5525 12.9826 6.70771)" fill="#F0F2F7"/>
</g>
<g filter="url(#filter1_f_575_19677)">
<ellipse cx="37.6873" cy="6.7076" rx="4.49029" ry="9.10194" transform="rotate(150 37.6873 6.7076)" fill="#F0F2F7"/>
</g>
<g filter="url(#filter2_f_575_19677)">
<ellipse cx="35.9461" cy="33.0334" rx="4.49029" ry="9.10194" transform="rotate(-135 35.9461 33.0334)" fill="#F0F2F7"/>
</g>
<g filter="url(#filter3_f_575_19677)">
<ellipse cx="13.1306" cy="31.3344" rx="4.49029" ry="9.10194" transform="rotate(-45 13.1306 31.3344)" fill="#889BAF"/>
</g>
</g>
<circle cx="24.9999" cy="19.6601" r="14.9272" fill="url(#paint2_linear_575_19677)"/>
<circle cx="24.9999" cy="19.6601" r="12.4272" stroke="url(#paint3_linear_575_19677)" stroke-width="5"/>
<path fill-rule="evenodd" clip-rule="evenodd" d="M25 35.6797C33.8473 35.6797 41.0194 28.5076 41.0194 19.6603C41.0194 10.813 33.8473 3.64087 25 3.64087C16.1527 3.64087 8.98059 10.813 8.98059 19.6603C8.98059 28.5076 16.1527 35.6797 25 35.6797ZM25 34.5875C33.244 34.5875 39.9272 27.9044 39.9272 19.6603C39.9272 11.4162 33.244 4.73311 25 4.73311C16.7559 4.73311 10.0728 11.4162 10.0728 19.6603C10.0728 27.9044 16.7559 34.5875 25 34.5875Z" fill="url(#paint4_linear_575_19677)"/>
<path opacity="0.15" d="M40.4127 7.46359C39.4888 8.56922 38.6484 9.42294 37.6233 10.4155C37.5474 10.4909 37.4715 10.5663 37.3955 10.6416C37.3449 10.6919 37.3069 10.7296 37.2563 10.7798C37.0665 10.9557 36.8767 11.1442 36.6742 11.3201C36.5982 11.3829 36.535 11.4457 36.459 11.5211C36.4084 11.5588 36.3578 11.6091 36.3198 11.6468C36.2566 11.7096 36.1933 11.7598 36.13 11.8101C29.3974 17.7277 20.8425 21.3335 11.8067 21.9869C11.7181 21.9869 11.6421 21.9994 11.5536 21.9994C11.4903 21.9994 11.427 22.012 11.3637 22.012C11.2625 22.012 11.1739 22.0246 11.0727 22.0246C10.7436 22.0371 10.4146 22.0623 10.0856 22.0623C9.98431 22.0623 9.87041 22.0748 9.76917 22.0748C9.51607 22.0874 9.26296 22.0874 9.02251 22.0874C7.84558 22.0874 6.66864 22.0497 5.47905 21.9492C5.39046 21.2079 5.33984 20.4415 5.33984 19.6751C5.33984 8.80731 14.2112 0 25.1453 0C30.0681 0 34.4573 1.88928 37.9248 4.85437C38.8233 5.62077 39.6533 6.54643 40.4127 7.46359Z" fill="url(#paint5_linear_575_19677)"/>
<defs>
<filter id="filter0_f_575_19677" x="-53.0066" y="-59.6548" width="131.978" height="132.725" filterUnits="userSpaceOnUse" color-interpolation-filters="sRGB">
<feFlood flood-opacity="0" result="BackgroundImageFix"/>
<feBlend mode="normal" in="SourceGraphic" in2="BackgroundImageFix" result="shape"/>
<feGaussianBlur stdDeviation="29.5" result="effect1_foregroundBlur_575_19677"/>
</filter>
<filter id="filter1_f_575_19677" x="-27.299" y="-60.4905" width="129.972" height="134.396" filterUnits="userSpaceOnUse" color-interpolation-filters="sRGB">
<feFlood flood-opacity="0" result="BackgroundImageFix"/>
<feBlend mode="normal" in="SourceGraphic" in2="BackgroundImageFix" result="shape"/>
<feGaussianBlur stdDeviation="29.5" result="effect1_foregroundBlur_575_19677"/>
</filter>
<filter id="filter2_f_575_19677" x="-30.2322" y="-33.1448" width="132.357" height="132.356" filterUnits="userSpaceOnUse" color-interpolation-filters="sRGB">
<feFlood flood-opacity="0" result="BackgroundImageFix"/>
<feBlend mode="normal" in="SourceGraphic" in2="BackgroundImageFix" result="shape"/>
<feGaussianBlur stdDeviation="29.5" result="effect1_foregroundBlur_575_19677"/>
</filter>
<filter id="filter3_f_575_19677" x="-53.0476" y="-34.8438" width="132.356" height="132.356" filterUnits="userSpaceOnUse" color-interpolation-filters="sRGB">
<feFlood flood-opacity="0" result="BackgroundImageFix"/>
<feBlend mode="normal" in="SourceGraphic" in2="BackgroundImageFix" result="shape"/>
<feGaussianBlur stdDeviation="29.5" result="effect1_foregroundBlur_575_19677"/>
</filter>
<linearGradient id="paint0_linear_575_19677" x1="46.4199" y1="35.3155" x2="40.1092" y2="31.3714" gradientUnits="userSpaceOnUse">
<stop offset="0.01" stop-color="#9D00FF"/>
<stop offset="0.41" stop-color="#7B00DB"/>
<stop offset="0.53" stop-color="#9825E4"/>
<stop offset="0.62" stop-color="#6800B5"/>
<stop offset="1" stop-color="#400071"/>
</linearGradient>
<linearGradient id="paint1_linear_575_19677" x1="2.71481" y1="35.3095" x2="10.085" y2="30.1481" gradientUnits="userSpaceOnUse">
<stop offset="0.01" stop-color="#9D00FF"/>
<stop offset="0.41" stop-color="#7B00DB"/>
<stop offset="0.53" stop-color="#9825E4"/>
<stop offset="0.62" stop-color="#6800B5"/>
<stop offset="1" stop-color="#400071"/>
</linearGradient>
<linearGradient id="paint2_linear_575_19677" x1="24.9999" y1="4.73291" x2="24.9999" y2="34.5873" gradientUnits="userSpaceOnUse">
<stop stop-color="#2A99A4"/>
<stop offset="0.484375" stop-color="#10667B"/>
<stop offset="1" stop-color="#184A61"/>
</linearGradient>
<linearGradient id="paint3_linear_575_19677" x1="24.9999" y1="4.73291" x2="24.9999" y2="34.5873" gradientUnits="userSpaceOnUse">
<stop stop-color="#3F879B"/>
<stop offset="1" stop-color="#062C3C"/>
</linearGradient>
<linearGradient id="paint4_linear_575_19677" x1="25" y1="3.64087" x2="25" y2="35.6797" gradientUnits="userSpaceOnUse">
<stop stop-color="#3C4E56"/>
<stop offset="1" stop-color="#ADBED2"/>
</linearGradient>
<linearGradient id="paint5_linear_575_19677" x1="14.6072" y1="3.03083" x2="25.7134" y2="18.5763" gradientUnits="userSpaceOnUse">
<stop offset="0.5084" stop-color="white" stop-opacity="0"/>
<stop offset="1" stop-color="white"/>
</linearGradient>
</defs>
</svg>
