<svg width="36" height="30" viewBox="0 0 36 30" fill="none" xmlns="http://www.w3.org/2000/svg">
<path d="M35.7947 5.19951L35.7718 25.5495C35.7705 26.7268 35.3026 27.8557 34.4708 28.6888C33.6389 29.5219 32.5108 29.9914 31.3334 29.9945L4.58344 29.9643C3.99346 29.9725 3.40775 29.8633 2.86038 29.643C2.31301 29.4227 1.81491 29.0957 1.39507 28.6811C0.975232 28.2666 0.64203 27.7726 0.414854 27.2281C0.187677 26.6835 0.0710626 26.0993 0.0717946 25.5092L0.0947582 5.15923C0.095319 4.56996 0.213351 3.98671 0.441953 3.44358C0.670555 2.90046 1.00514 2.40836 1.42614 1.99605C1.84715 1.58375 2.34613 1.25951 2.89391 1.0423C3.44168 0.825083 4.02727 0.719253 4.61643 0.730994L31.4497 0.761273C32.611 0.784415 33.7168 1.26237 34.5294 2.09234C35.3419 2.92232 35.7963 4.03802 35.7947 5.19951ZM2.57179 25.512C2.56899 25.7745 2.61966 26.0348 2.7207 26.277C2.82175 26.5192 2.97106 26.7384 3.15954 26.921C3.34802 27.1037 3.57172 27.2461 3.817 27.3395C4.06229 27.4329 4.32402 27.4753 4.58626 27.4643L31.4196 27.4946C31.9207 27.4736 32.394 27.2586 32.7396 26.8952C33.0852 26.5317 33.276 26.0482 33.2718 25.5467L33.2947 5.19669C33.2953 4.68394 33.0922 4.19196 32.73 3.82898C32.3679 3.466 31.8763 3.26176 31.3636 3.26118L4.6136 3.23099C4.10085 3.23041 3.60887 3.43355 3.24589 3.79571C2.88291 4.15787 2.67867 4.64939 2.67809 5.16214L2.57179 25.512Z" fill="#D5F223" fill-opacity="0.8"/>
<path d="M19.1983 2.03079L19.1879 11.2475C19.1875 11.579 19.0555 11.8968 18.8208 12.1309C18.5861 12.3651 18.268 12.4964 17.9365 12.496C17.605 12.4957 17.2872 12.3636 17.053 12.1289C16.8189 11.8942 16.6875 11.5761 16.6879 11.2446L16.6983 2.02797C16.6987 1.69645 16.8307 1.37865 17.0654 1.1445C17.3001 0.910339 17.6182 0.779003 17.9497 0.779377C18.2812 0.779751 18.599 0.911805 18.8332 1.14649C19.0673 1.38118 19.1987 1.69927 19.1983 2.03079Z" fill="#D5F223" fill-opacity="0.8"/>
<path d="M19.1786 19.4643L19.1682 28.6976C19.1678 29.0292 19.0358 29.347 18.8011 29.5811C18.5664 29.8153 18.2483 29.9466 17.9168 29.9462C17.5853 29.9459 17.2675 29.8138 17.0333 29.5791C16.7992 29.3444 16.6678 29.0263 16.6682 28.6948L16.6786 19.4615C16.679 19.13 16.8111 18.8122 17.0458 18.578C17.2804 18.3439 17.5985 18.2125 17.93 18.2129C18.2616 18.2133 18.5794 18.3453 18.8135 18.58C19.0477 18.8147 19.179 19.1328 19.1786 19.4643Z" fill="#D5F223" fill-opacity="0.8"/>
<path d="M8.15625 9.75181L8.14361 20.9518C8.13892 21.282 8.00548 21.5973 7.77173 21.8305C7.53798 22.0637 7.22239 22.1965 6.8922 22.2004L1.25887 22.194C0.927352 22.1937 0.609558 22.0616 0.375402 21.8269C0.141246 21.5922 0.00990916 21.2741 0.0102833 20.9426L0.0229217 9.74263C0.0208655 9.57785 0.0518509 9.41434 0.114048 9.26174C0.176244 9.10914 0.268391 8.97055 0.385045 8.85416C0.5017 8.73777 0.640496 8.64593 0.793235 8.58408C0.945975 8.52223 1.10956 8.49161 1.27433 8.49404L6.90766 8.5004C7.23918 8.50077 7.55698 8.63283 7.79113 8.86751C8.02529 9.1022 8.15662 9.42029 8.15625 9.75181ZM5.64497 19.749L5.65478 11.049L2.58812 11.0455L2.57836 19.6955L5.64497 19.749Z" fill="#D5F223" fill-opacity="0.8"/>
<path d="M35.7896 9.78298L35.7769 20.983C35.777 21.3033 35.6542 21.6114 35.4337 21.8437C35.2133 22.0761 34.912 22.2149 34.5922 22.2316L28.9589 22.2253C28.6287 22.2206 28.3134 22.0872 28.0802 21.8534C27.8469 21.6197 27.7142 21.3041 27.7103 20.9739L27.7229 9.77388C27.7233 9.44236 27.8553 9.12457 28.09 8.89041C28.3247 8.65625 28.6428 8.52492 28.9743 8.52529L34.6076 8.53165C34.9289 8.54501 35.2322 8.6833 35.453 8.91704C35.6738 9.15078 35.7945 9.4615 35.7896 9.78298ZM33.2783 19.7802L33.2881 11.0802L30.2214 11.0767L30.2117 19.7267L33.2783 19.7802Z" fill="#D5F223" fill-opacity="0.8"/>
<path d="M23.1833 15.3686C23.1821 16.4308 22.8657 17.4686 22.2743 18.3509C21.6829 19.2331 20.8429 19.92 19.8609 20.3246C18.8788 20.7292 17.7988 20.8333 16.7575 20.6237C15.7163 20.4141 14.7606 19.9002 14.0116 19.1471C13.2626 18.3941 12.7539 17.4357 12.5499 16.3934C12.3458 15.351 12.4557 14.2715 12.8656 13.2917C13.2754 12.3118 13.9668 11.4756 14.8522 10.8889C15.7376 10.3022 16.7772 9.99142 17.8393 9.99592C19.2598 10.0019 20.6199 10.5708 21.6216 11.5779C22.6233 12.585 23.1849 13.9482 23.1833 15.3686ZM14.9666 15.3593C14.966 15.9263 15.1335 16.4807 15.4479 16.9525C15.7624 17.4243 16.2097 17.7922 16.7333 18.0098C17.2568 18.2274 17.8332 18.2848 18.3894 18.1748C18.9456 18.0648 19.4567 17.7924 19.858 17.3919C20.2594 16.9914 20.533 16.481 20.6442 15.925C20.7555 15.3691 20.6993 14.7926 20.483 14.2685C20.2666 13.7445 19.8997 13.2964 19.4286 12.9808C18.9575 12.6653 18.4035 12.4966 17.8365 12.4959C17.0762 12.4951 16.3467 12.7963 15.8085 13.3333C15.2703 13.8703 14.9675 14.5991 14.9666 15.3593Z" fill="#D5F223" fill-opacity="0.8"/>
</svg>
