<svg width="22" height="17" viewBox="0 0 22 17" fill="none" xmlns="http://www.w3.org/2000/svg">
<path d="M9 8.49984C11.0711 8.49984 12.75 6.91418 12.75 4.95817C12.75 3.00216 11.0711 1.4165 9 1.4165C6.92893 1.4165 5.25 3.00216 5.25 4.95817C5.25 6.91418 6.92893 8.49984 9 8.49984Z" stroke="#9E9FA4" stroke-linecap="round" stroke-linejoin="round"/>
<path d="M2.55737 15.5833C2.55737 12.8421 5.44489 10.625 8.99989 10.625C9.71989 10.625 10.4174 10.7171 11.0699 10.8871" stroke="#9E9FA4" stroke-linecap="round" stroke-linejoin="round"/>
<path d="M17.6666 16.3335H14.3333C13 16.3335 12.6666 16.0002 12.6666 14.6668V14.0002C12.6666 12.6668 13 12.3335 14.3333 12.3335H17.6666C19 12.3335 19.3333 12.6668 19.3333 14.0002V14.6668C19.3333 16.0002 19 16.3335 17.6666 16.3335Z" stroke="#D5F223" stroke-opacity="0.8" stroke-linecap="round" stroke-linejoin="round"/>
<path d="M14.4058 12.4502L13.7175 12.3524C13.3321 11.3213 13.3312 10.3667 14.8924 9.78323C16.2975 9.2581 16.9987 9.70606 17.3479 10.6406" stroke="#D5F223" stroke-opacity="0.8" stroke-linecap="round" stroke-linejoin="round"/>
</svg>
