<svg width="20" height="19" viewBox="0 0 20 19" fill="none" xmlns="http://www.w3.org/2000/svg">
<path d="M18.3334 4.91913V8.933C18.3334 9.93253 17.9834 10.7747 17.3584 11.3571C16.7417 11.9474 15.85 12.2779 14.7917 12.2779V13.7024C14.7917 14.2376 14.1583 14.5603 13.6917 14.2613L12.8834 13.7575C12.9584 13.5136 12.9917 13.246 12.9917 12.9626V9.75942C12.9917 8.15387 11.8584 7.08348 10.1584 7.08348H4.50002C4.38335 7.08348 4.27502 7.09136 4.16669 7.09923V4.91913C4.16669 2.91218 5.58335 1.57422 7.70835 1.57422H14.7917C16.9167 1.57422 18.3334 2.91218 18.3334 4.91913Z" stroke="#D5F223" stroke-opacity="0.8" stroke-miterlimit="10" stroke-linecap="round" stroke-linejoin="round"/>
<path d="M12.9917 9.75944V12.9626C12.9917 13.246 12.9584 13.5136 12.8834 13.7576C12.575 14.9145 11.5584 15.6386 10.1584 15.6386H7.89169L5.37502 17.2205C5.00002 17.4645 4.50002 17.2048 4.50002 16.7798V15.6386C3.65002 15.6386 2.94169 15.371 2.45002 14.9066C1.95002 14.4344 1.66669 13.7654 1.66669 12.9626V9.75944C1.66669 8.26407 2.65002 7.23305 4.16669 7.09925C4.27502 7.09138 4.38335 7.0835 4.50002 7.0835H10.1584C11.8584 7.0835 12.9917 8.15389 12.9917 9.75944Z" stroke="#D5F223" stroke-opacity="0.8" stroke-miterlimit="10" stroke-linecap="round" stroke-linejoin="round"/>
</svg>
