<svg width="18" height="18" viewBox="0 0 18 18" fill="none" xmlns="http://www.w3.org/2000/svg">
<path d="M9 8.49984C11.0711 8.49984 12.75 6.91418 12.75 4.95817C12.75 3.00216 11.0711 1.4165 9 1.4165C6.92893 1.4165 5.25 3.00216 5.25 4.95817C5.25 6.91418 6.92893 8.49984 9 8.49984Z" stroke="#9E9FA4" stroke-linecap="round" stroke-linejoin="round"/>
<path d="M2.55737 15.5833C2.55737 12.8421 5.44489 10.625 8.99989 10.625C9.71989 10.625 10.4174 10.7171 11.0699 10.8871" stroke="#9E9FA4" stroke-linecap="round" stroke-linejoin="round"/>
<path fill-rule="evenodd" clip-rule="evenodd" d="M12.8133 10.6665H13.1866C14.9245 10.6665 16.3333 12.0753 16.3333 13.8132V14.1865C16.3333 15.9244 14.9245 17.3332 13.1866 17.3332H12.8133C11.0754 17.3332 9.66663 15.9244 9.66663 14.1865V13.8132C9.66663 12.0753 11.0754 10.6665 12.8133 10.6665ZM13.1866 16.8332C14.6438 16.8223 15.8224 15.6437 15.8333 14.1865V13.8132C15.8224 12.356 14.6438 11.1774 13.1866 11.1665H12.8133C11.3561 11.1774 10.1775 12.356 10.1666 13.8132V14.1865C10.1775 15.6437 11.3561 16.8223 12.8133 16.8332H13.1866Z" fill="#D5F223" fill-opacity="0.8"/>
<path d="M14.3333 13.7498H13.25V12.6665C13.25 12.5284 13.138 12.4165 13 12.4165C12.8619 12.4165 12.75 12.5284 12.75 12.6665V13.7498H11.6666C11.5286 13.7498 11.4166 13.8618 11.4166 13.9998C11.4166 14.1379 11.5286 14.2498 11.6666 14.2498H12.75V15.3332C12.75 15.4712 12.8619 15.5832 13 15.5832C13.138 15.5832 13.25 15.4712 13.25 15.3332V14.2498H14.3333C14.4714 14.2498 14.5833 14.1379 14.5833 13.9998C14.5833 13.8618 14.4714 13.7498 14.3333 13.7498Z" fill="#D5F223" fill-opacity="0.8"/>
</svg>
