<svg width="12" height="12" viewBox="0 0 12 12" fill="none" xmlns="http://www.w3.org/2000/svg">
<path d="M6 5.66656C7.38071 5.66656 8.5 4.60945 8.5 3.30545C8.5 2.00144 7.38071 0.944336 6 0.944336C4.61929 0.944336 3.5 2.00144 3.5 3.30545C3.5 4.60945 4.61929 5.66656 6 5.66656Z" stroke="#9E9FA4" stroke-width="1.5" stroke-linecap="round" stroke-linejoin="round"/>
<path d="M1.70483 10.3891C1.70483 8.56155 3.62985 7.0835 5.99985 7.0835" stroke="#9E9FA4" stroke-width="1.5" stroke-linecap="round" stroke-linejoin="round"/>
<path d="M9.10001 10.1057C9.98366 10.1057 10.7 9.42918 10.7 8.59461C10.7 7.76005 9.98366 7.0835 9.10001 7.0835C8.21635 7.0835 7.5 7.76005 7.5 8.59461C7.5 9.42918 8.21635 10.1057 9.10001 10.1057Z" stroke="#9E9FA4" stroke-width="1.5" stroke-linecap="round" stroke-linejoin="round"/>
<path d="M11 10.3892L10.5 9.91699" stroke="#9E9FA4" stroke-width="1.5" stroke-linecap="round" stroke-linejoin="round"/>
</svg>
