<svg width="22" height="17" viewBox="0 0 22 17" fill="none" xmlns="http://www.w3.org/2000/svg">
<path d="M13 8.49984C15.0711 8.49984 16.75 6.91418 16.75 4.95817C16.75 3.00216 15.0711 1.4165 13 1.4165C10.9289 1.4165 9.25 3.00216 9.25 4.95817C9.25 6.91418 10.9289 8.49984 13 8.49984Z" stroke="#D5F223" stroke-opacity="0.8" stroke-width="1.5" stroke-linecap="round" stroke-linejoin="round"/>
<path d="M6.55737 15.5833C6.55737 12.8421 9.44489 10.625 12.9999 10.625C13.7199 10.625 14.4174 10.7171 15.0699 10.8871" stroke="#D5F223" stroke-opacity="0.8" stroke-width="1.5" stroke-linecap="round" stroke-linejoin="round"/>
<path d="M7.44263 9.08333C9.51369 9.08333 11.1926 7.49768 11.1926 5.54167C11.1926 3.58566 9.51369 2 7.44263 2C5.37156 2 3.69263 3.58566 3.69263 5.54167C3.69263 7.49768 5.37156 9.08333 7.44263 9.08333Z" stroke="#D5F223" stroke-opacity="0.4" stroke-width="1.5" stroke-linecap="round" stroke-linejoin="round"/>
<path d="M1 16.1668C1 13.4256 3.88752 11.2085 7.44252 11.2085C8.16252 11.2085 8.86003 11.3006 9.51253 11.4706" stroke="#D5F223" stroke-opacity="0.4" stroke-width="1.5" stroke-linecap="round" stroke-linejoin="round"/>
<path d="M20.5 12.7498C20.5 12.9765 20.47 13.1961 20.41 13.4086C20.3425 13.6919 20.2225 13.9682 20.065 14.209C19.5475 15.0307 18.595 15.5832 17.5 15.5832C16.7275 15.5832 16.03 15.3069 15.505 14.8536C15.28 14.6694 15.085 14.4498 14.935 14.209C14.6575 13.784 14.5 13.2811 14.5 12.7498C14.5 11.9848 14.8225 11.2836 15.3475 10.7736C15.895 10.2424 16.66 9.9165 17.5 9.9165C18.385 9.9165 19.1875 10.2778 19.7275 10.8586C20.2075 11.3615 20.5 12.0273 20.5 12.7498Z" stroke="#D5F223" stroke-opacity="0.8" stroke-width="1.5" stroke-miterlimit="10" stroke-linecap="round" stroke-linejoin="round"/>
<path d="M18.6176 12.7358H16.3826" stroke="#D5F223" stroke-opacity="0.8" stroke-width="1.5" stroke-miterlimit="10" stroke-linecap="round" stroke-linejoin="round"/>
<path d="M17.5217 11.6185L17.4779 13.853" stroke="#D5F223" stroke-opacity="0.8" stroke-width="1.5" stroke-miterlimit="10" stroke-linecap="round" stroke-linejoin="round"/>
</svg>
